<?xml version="1.0" encoding="utf-8"?>
<!-- Generator: Adobe Illustrator 16.0.0, SVG Export Plug-In . SVG Version: 6.00 Build 0)  -->
<!DOCTYPE svg PUBLIC "-//W3C//DTD SVG 1.1//EN" "http://www.w3.org/Graphics/SVG/1.1/DTD/svg11.dtd">
<svg version="1.1" id="Layer_1" xmlns="http://www.w3.org/2000/svg" xmlns:xlink="http://www.w3.org/1999/xlink" x="0px" y="0px"
	 width="100px" height="100px" viewBox="0 0 100 100" enable-background="new 0 0 100 100" xml:space="preserve">
<g id="Helper">
</g>
<path fill="#3491FF" d="M67.186,43.224h-2.002v-5.227c0-8.22-6.197-14.417-14.414-14.417c-8.353,0-14.417,6.063-14.417,14.417v5.227
	h-2.159c-2.289,0-4.144,2.141-4.144,4.789v20.556c0,2.647,1.854,4.787,4.144,4.787h32.991c2.289,0,4.146-2.14,4.146-4.787V48.013
	C71.331,45.365,69.475,43.224,67.186,43.224z M42.128,37.997c0-5.97,4.34-8.64,8.642-8.64c5.008,0,8.64,3.634,8.64,8.64v5.227
	H42.128V37.997z"/>
<path fill="#3491FF" d="M50.034,93.936c-23.836,0-43.229-19.393-43.229-43.23c0-23.837,19.393-43.229,43.229-43.229
	c23.835,0,43.229,19.392,43.229,43.229C93.264,74.543,73.869,93.936,50.034,93.936z M50.034,10.645
	c-22.09,0-40.062,17.971-40.062,40.061c0,22.091,17.972,40.062,40.062,40.062c22.089,0,40.061-17.971,40.061-40.062
	C90.095,28.615,72.123,10.645,50.034,10.645z"/>
</svg>
