<?xml version="1.0" encoding="utf-8"?>
<!-- Generator: Adobe Illustrator 16.0.0, SVG Export Plug-In . SVG Version: 6.00 Build 0)  -->
<!DOCTYPE svg PUBLIC "-//W3C//DTD SVG 1.1//EN" "http://www.w3.org/Graphics/SVG/1.1/DTD/svg11.dtd">
<svg version="1.1" id="Layer_1" xmlns="http://www.w3.org/2000/svg" xmlns:xlink="http://www.w3.org/1999/xlink" x="0px" y="0px"
	 width="100px" height="100px" viewBox="0 0 100 100" enable-background="new 0 0 100 100" xml:space="preserve">
<rect x="52.22" y="23.266" transform="matrix(0.6163 0.7875 -0.7875 0.6163 40.3996 -34.7547)" fill="#3491FF" stroke="#3491FF" stroke-width="0.25" stroke-linecap="round" stroke-linejoin="round" stroke-miterlimit="10" width="7.295" height="1.635"/>
<rect x="49.004" y="32.219" transform="matrix(0.9754 -0.2206 0.2206 0.9754 -5.9897 12.4259)" fill="#3491FF" stroke="#3491FF" stroke-width="0.25" stroke-linecap="round" stroke-linejoin="round" stroke-miterlimit="10" width="7.295" height="1.635"/>
<rect x="49.065" y="27.052" transform="matrix(0.9213 0.3889 -0.3889 0.9213 14.9902 -18.3077)" fill="#3491FF" stroke="#3491FF" stroke-width="0.25" stroke-linecap="round" stroke-linejoin="round" stroke-miterlimit="10" width="7.295" height="1.634"/>
<path fill="#3491FF" d="M10.59,44.99c-1.533,4.641-0.959,10.621-0.928,17.613c0.031,6.994,1.704,9.371,1.727,14.618
	c-0.028,0.327-0.544,5.007-0.72,5.324c-0.079,0.156-0.201,0.312-0.156,0.468c0.033,0.151,0.227,0.301,0.447,0.449
	c0,0,8.6,3.276,21.401-0.093c0.22-0.152,0.411-0.304,0.442-0.457c0.044-0.153-0.079-0.308-0.161-0.466
	c-0.177-0.312-1.481-3.621-1.517-3.947c-0.021-5.244,0.458-9.168,1.329-16.244c-0.006-1.357,0.813-2.449,0.872-3.826
	c4.019,1.402,6.117,3.199,7.049,2.905c3.625,0.04,6.22-1.279,8-2.647c2.438-1.872,5.358-5.311,7.188-6.713
	c0.123-0.075,0.201-0.204,0.361-0.225c0.184,0.012,0.285-0.073,0.235-0.354c-0.045-0.489-0.091-0.955-0.131-1.396
	c-0.071-0.764-0.04,0.266-0.095-0.313c0.127,0.008,0.246,0.035,0.375,0.035c3.211,0,5.812-2.357,5.812-5.264
	c0-1.182-0.443-2.263-1.171-3.141l5.067-12.544c0.58-1.436-0.236-1.71-0.236-1.71s-2.406-1.156-3.438-1.531s-1.523,1.14-1.523,1.14
	L55.333,40.25c-2.964-0.583-4.814,0.654-4.814,3.839c0,0.834,0.704,2.002,0.754,2.279c-0.156-0.057-1.697-0.586-1.858-0.645
	c-0.256-0.12-0.366-0.041-0.401,0.136c-0.061,0.149-0.204,0.192-0.31,0.292c-1.827,1.405-1.54,2.687-3.975,4.561
	c-0.963,0.74-1.916,1.473-2.841,2.184c-2.134-1.64-5.608-6.882-9.251-8.481c-6.387-6.331-14.293-5.247-14.293-5.247
	S12.618,40.679,10.59,44.99z"/>
<path fill="#3491FF" d="M95.49,90.248H65.621V60.992H95.49V90.248z M66.986,88.923h27.141V62.315H66.986V88.923z"/>
<circle fill="#3491FF" cx="22.496" cy="25.698" r="11.833"/>
<circle fill="#3491FF" cx="80.556" cy="72.035" r="7.152"/>
<path fill="#3491FF" d="M80.556,80.039c0,0-10.629-0.852-10.629,8.884h21.017C90.943,88.923,91.516,80.039,80.556,80.039z"/>
<path fill="#3491FF" d="M82.537,56.5l6.419-6.317c0.244-0.267,0.308-0.656,0.168-0.989c-0.143-0.333-0.468-0.554-0.832-0.559
	l-3.829-0.054c0,0,0.027-9.01-6.041-12.772c-2.786-1.72-7.386-2.276-9.905-1.918c-0.661,0.095-1.186,0.61-1.292,1.27
	c-0.104,0.659,0.2,1.045,0.8,1.336c4.029,0.425,6.552,1.821,7.604,2.956c2.39,2.935,0.903,8.892,0.903,8.892l-3.494-0.061
	c-0.381-0.01-0.728,0.217-0.872,0.569c-0.145,0.352-0.062,0.756,0.215,1.021l6.245,6.75C80.721,58.721,82.537,56.5,82.537,56.5z"/>
</svg>
