<?xml version="1.0" standalone="no"?>
<!DOCTYPE svg PUBLIC "-//W3C//DTD SVG 20010904//EN"
 "http://www.w3.org/TR/2001/REC-SVG-20010904/DTD/svg10.dtd">
<svg version="1.0" xmlns="http://www.w3.org/2000/svg"
 width="500.000000pt" height="500.000000pt" viewBox="0 0 500.000000 500.000000"
 preserveAspectRatio="xMidYMid meet">
<metadata>
Created by potrace 1.11, written by Peter Selinger 2001-2013
</metadata>
<g transform="translate(0.000000,500.000000) scale(0.100000,-0.100000)"
fill="#000000" stroke="none">
<path d="M2592 4662 c-13 -2 -41 -26 -64 -55 -90 -115 -141 -161 -239 -216
-48 -27 -144 -66 -189 -76 -8 -2 -37 -9 -65 -15 -66 -15 -210 -40 -385 -66
-409 -61 -888 -350 -1192 -721 -128 -156 -267 -397 -323 -558 -9 -27 -21 -59
-26 -70 -13 -31 -57 -205 -64 -250 -3 -23 -8 -52 -11 -65 -13 -56 -13 -366 1
-445 20 -119 21 -125 41 -190 10 -33 18 -62 19 -65 9 -44 89 -218 146 -318
122 -210 314 -415 522 -555 93 -63 269 -148 377 -183 47 -15 105 -35 130 -44
66 -26 135 -40 285 -60 44 -6 91 -13 105 -15 32 -5 165 -16 250 -21 36 -2 234
-6 440 -8 356 -5 442 -8 675 -23 197 -12 496 -6 525 12 3 2 25 6 50 10 25 4
47 8 50 10 3 2 25 6 49 10 24 3 54 10 67 15 13 5 24 8 24 5 0 -8 167 53 225
83 33 16 79 46 102 66 22 20 85 58 140 85 323 163 538 391 627 665 30 90 33
102 51 211 24 138 26 173 30 485 4 320 0 375 -44 546 -28 110 -63 200 -125
324 -147 292 -340 503 -684 747 -179 128 -266 174 -417 225 -49 16 -93 33 -97
36 -7 8 -16 71 -25 172 -8 106 -15 120 -58 120 -55 0 -155 -75 -155 -117 0 -8
-12 -13 -31 -13 -17 0 -39 -5 -49 -10 -25 -14 -70 -58 -70 -70 0 -5 -16 -2
-36 6 -44 19 -129 20 -150 3 -9 -7 -38 -11 -77 -10 -117 5 -112 4 -109 30 4
35 32 91 68 135 56 66 54 126 -3 126 -35 0 -143 -59 -259 -140 -54 -38 -100
-68 -101 -66 -7 7 57 158 87 207 44 72 27 122 -38 111z"/>
</g>
</svg>
