<?xml version="1.0" encoding="utf-8"?>
<!-- Generator: Adobe Illustrator 18.0.0, SVG Export Plug-In . SVG Version: 6.00 Build 0)  -->
<!DOCTYPE svg PUBLIC "-//W3C//DTD SVG 1.1//EN" "http://www.w3.org/Graphics/SVG/1.1/DTD/svg11.dtd">
<svg version="1.1" id="Layer_1" xmlns="http://www.w3.org/2000/svg" xmlns:xlink="http://www.w3.org/1999/xlink" x="0px" y="0px"
	 viewBox="0 0 600 600" enable-background="new 0 0 600 600" xml:space="preserve">
<path fill="#231F20" d="M100.1,211.4c66.2,0.9,132.4,0.2,198.5-1.9c30.4-1,61.9-0.9,91.7-8c22-5.2,44-18,46.5-42.5
	c1.3-13.1-4.9-26.8-15.6-34.3c-10-7.1-24.5-10.6-36.1-5.1c-9.3,4.5-15.9,16.3-8.6,25.7c2.6,3.3,8.1,6.5,12.3,4.1
	c3.7-2.1,4.9-6.6,1.7-9.8c-2.3-2.3-5.8,1.2-3.5,3.5c-0.6,0.7-1.2,1.3-1.9,2c-1.4-0.2-2.6-0.7-3.6-1.6c-1.2-0.9-1.9-2.3-2.4-3.7
	c-1-2.6-0.7-5.4,0.1-8c2.3-7.2,11.9-9.5,18.4-9.7c14.3-0.4,27.4,9.3,32.3,22.4c4.9,13.2,0.5,27.5-9.3,37
	c-8.8,8.6-21.4,12.9-33.1,15.7c-30.7,7.3-63.5,6.7-94.9,7.7c-33.1,1.1-66.2,1.7-99.3,2c-31.1,0.3-62.2,0.2-93.3-0.2
	C96.8,206.4,96.8,211.4,100.1,211.4L100.1,211.4z"/>
<path fill="#231F20" d="M61.8,331.5c31.6,4.3,63.5,5.8,95.3,4.3c15.7-0.8,31.3-2.3,46.9-4.5c14.1-2,28.5-4.1,42-8.8
	c11-3.8,21.2-10.2,27.6-20.1c5.9-9.2,7.1-21.1,4.4-31.5c-2.5-9.5-10.7-20.6-21.3-21.5c-9.1-0.7-19.5,8.1-14.2,17.6
	c3.4,6.1,13.7,6.1,16.7-0.2c1.4-2.9-2.9-5.4-4.3-2.5c-2.7,5.6-10.9,0.4-7.9-5.5c3.5-7,12.4-4.5,17.1-0.8c8.7,6.7,11.4,19,9.7,29.4
	c-3.7,23.5-28.6,31.3-48.8,35.3C172,333,116.8,334,63.1,326.7C60,326.2,58.6,331,61.8,331.5L61.8,331.5z"/>
<path fill="#231F20" d="M78.9,441.2c30.3,9.6,61.6,15.5,92.9,20.9c31.3,5.4,62.8,10.1,94.4,13.2c31.9,3.1,64,4.3,96,2.5
	c15.5-0.9,31-2.6,46.3-5c14.3-2.3,29.3-4.7,42.7-10.4c18.6-7.9,31.2-24.2,37.8-43c3.2-9.2,2.7-19-3-27.1c-5-7.1-13.1-11.6-21-14.5
	c-14.1-5-35.5-3.5-44.6,10.1c-3.8,5.6-4.9,15.5,3.6,17.7c7.9,2.1,13.9-3.3,16.1-10.6c0.9-3.1-3.9-4.4-4.8-1.3
	c-1.2,4-3.7,7.3-8.1,7.4c-7.2,0.2-4.4-8.2-1.8-11.4c4.1-5.1,10.9-7.8,17.1-9c12.8-2.6,27.3,2.3,36.7,11.1c13,12.2,4.8,29.8-2.8,42.5
	c-8.2,13.5-20,21.7-35,26.4c-15,4.7-31.1,7.1-46.7,9.1c-15.8,2.1-31.8,3.2-47.7,3.7c-32.1,1-64.2-1.1-96.1-4.7
	c-29.2-3.3-58.2-8-87.2-13c-28.2-4.9-56.2-10.6-83.5-19.3C77.1,435.4,75.8,440.2,78.9,441.2L78.9,441.2z"/>
</svg>
