<?xml version="1.0" encoding="utf-8"?>
<!-- Generator: Adobe Illustrator 16.0.0, SVG Export Plug-In . SVG Version: 6.00 Build 0)  -->
<!DOCTYPE svg PUBLIC "-//W3C//DTD SVG 1.1//EN" "http://www.w3.org/Graphics/SVG/1.1/DTD/svg11.dtd">
<svg version="1.1" id="Layer_1" xmlns="http://www.w3.org/2000/svg" xmlns:xlink="http://www.w3.org/1999/xlink" x="0px" y="0px"
	 width="100px" height="100px" viewBox="0 0 100 100" enable-background="new 0 0 100 100" xml:space="preserve">
<g id="Helper">
</g>
<g id="Layer_2">
	<g>
		<path fill="#3491FF" d="M81.859,18.15C64.34,0.64,35.96,0.63,18.44,18.15s-17.51,45.911,0,63.42c17.52,17.52,45.9,17.52,63.419,0
			C99.38,64.061,99.38,35.67,81.859,18.15z M52.73,83.391C34.21,84.83,18.04,70.96,16.62,52.439
			C15.19,33.92,29.05,17.76,47.57,16.33C66.1,14.9,82.26,28.77,83.68,47.28C85.109,65.811,71.24,81.97,52.73,83.391z"/>
	</g>
	<g>
		<path fill="#3491FF" d="M64.547,35.059c-3.097,0-5.604,2.507-5.604,5.606c0,3.098,2.507,5.605,5.604,5.605
			c3.094,0,5.605-2.507,5.605-5.605C70.152,37.566,67.641,35.059,64.547,35.059z"/>
	</g>
	<g>
		<path fill="#3491FF" d="M29.495,40.664c0,3.099,2.507,5.606,5.604,5.606c3.099,0,5.606-2.507,5.606-5.606
			c0-3.097-2.507-5.606-5.606-5.606C32.002,35.058,29.495,37.567,29.495,40.664z"/>
	</g>
	<g>
		<path fill="#3491FF" d="M60.09,58.04c0,3.56-2.83,6.25-6.59,6.25c-1.41,0-2.7-0.399-3.74-1.09c-1.06,0.7-2.37,1.09-3.81,1.09
			c-3.69,0-6.47-2.69-6.47-6.25c0-1.53,1.24-2.771,2.77-2.771s2.77,1.24,2.77,2.771c0,0.229,0,0.7,0.93,0.7
			c0.24,0,1.05-0.051,1.05-0.7c0-1.431,1.09-2.61,2.49-2.76c0.11,0,0.21-0.011,0.32-0.011c0.08,0,0.16,0,0.24,0.011
			c1.421,0.12,2.53,1.31,2.53,2.76c0,0.229,0,0.7,0.92,0.7c0.25,0,1.05-0.051,1.05-0.7c0-1.53,1.24-2.771,2.771-2.771
			C58.85,55.27,60.09,56.51,60.09,58.04z"/>
	</g>
</g>
</svg>
