<?xml version="1.0" encoding="utf-8"?>
<!-- Generator: Adobe Illustrator 18.0.0, SVG Export Plug-In . SVG Version: 6.00 Build 0)  -->
<!DOCTYPE svg PUBLIC "-//W3C//DTD SVG 1.1//EN" "http://www.w3.org/Graphics/SVG/1.1/DTD/svg11.dtd">
<svg version="1.1" id="Layer_1" xmlns="http://www.w3.org/2000/svg" xmlns:xlink="http://www.w3.org/1999/xlink" x="0px" y="0px"
	 viewBox="0 0 792 792" enable-background="new 0 0 792 792" xml:space="preserve">
<g>
	<g>
		<path fill="#FFFFFF" d="M444.4,35.1c-109.9,269.2-75.7,384.6-75.7,384.6l-44.3-25.9c0,0,3.8-103.3,116.7-359.8
			c0,0,0.8-1.8,2.5-1.2C445.3,33.5,444.4,35.1,444.4,35.1z"/>
		<g>
			<polygon fill="#FFFFFF" points="394.6,311.1 488.8,381 514.2,311.1 394.5,288.2 			"/>
			<path fill="#FFFFFF" d="M523,163.1l-122.9,77l-4.7,37.8L518,288.5C518,288.5,535.6,232.3,523,163.1z"/>
			<path fill="#FFFFFF" d="M483,0.4c0,0,27.5,88.1,36.5,140.1l-118.3,89C401.1,229.5,431.7,82.1,483,0.4z"/>
		</g>
		<g>
			<g>
				<path fill="#FFFFFF" d="M179.7,311.1L41.8,161.3l288.1,60.8C329.8,222.1,266.8,236.9,179.7,311.1z"/>
			</g>
			<g>
				<path fill="#FFFFFF" d="M353.8,221.8c-3.5,1.3-8,3-11.6,4.5c-71.5,30.6-142.3,98.5-142.3,98.5L301.8,381
					C301.8,381,332.5,269.3,353.8,221.8z"/>
			</g>
		</g>
	</g>
	<g>
		<path fill="#FFFFFF" d="M307.2,549.5l98.9-101.2h51L342.6,563.2l115.3,138.9h-51.8l-90.6-112.6l-8.4,7.6v105h-38.1V448.3h38.1
			V549.5z"/>
		<path fill="#FFFFFF" d="M488.3,475.7c0-6.8,2.3-12.6,6.8-17.1c4.6-4.6,10.3-6.8,17.1-6.8c6.8,0,12.6,2.3,17.1,6.8
			c4.6,4.6,6.8,10.3,6.8,17.1c0,6.8-2.3,12.6-6.8,17.1c-4.6,4.6-10.3,6.8-17.1,6.8c-6.9,0-12.6-2.3-17.1-6.8
			C490.6,488.2,488.3,482.5,488.3,475.7z M530.9,541.9v160.2h-38.1V541.9H530.9z"/>
		<path fill="#FFFFFF" d="M623,789.2h-38.1V541.9H623v17.5c6.8-8.1,14.4-13.8,22.7-16.9c8.3-3.2,16.5-4.8,24.6-4.8
			c10.6,0,20.5,2,29.9,5.9c9.3,3.9,17.5,9.5,24.6,16.7c7.1,7.2,12.7,16,16.8,26.3c4.2,10.3,6.2,21.8,6.2,34.4
			c0,13.4-2.3,25.5-6.8,36.1c-4.5,10.7-10.4,19.7-17.6,27c-7.2,7.4-15.4,13-24.8,16.9c-9.3,3.9-18.7,5.9-28,5.9
			c-2.3,0-5.2-0.3-8.9-0.8c-3.7-0.5-7.6-1.6-11.9-3.2c-4.3-1.6-8.8-4.1-13.6-7.2c-4.8-3.2-9.2-7.3-13.2-12.4V789.2z M665.6,571.2
			c-5.8,0-11.4,1.1-16.8,3.2c-5.4,2.2-10.2,5.3-14.3,9.5c-4.2,4.2-7.5,9.6-10,16.2c-2.5,6.6-3.8,14.2-3.8,22.8
			c0,8.4,1.3,15.7,3.8,22.1c2.5,6.3,5.8,11.6,10,15.8c4.2,4.2,8.9,7.4,14.3,9.5c5.4,2.2,11,3.2,16.8,3.2c6.8,0,12.9-1.3,18.3-4
			c5.4-2.7,10-6.3,13.8-11c3.8-4.7,6.7-10.1,8.9-16.4c2.1-6.2,3.2-12.8,3.2-19.6c0-7.1-1.1-13.8-3.2-20c-2.1-6.2-5.1-11.7-8.9-16.4
			c-3.8-4.7-8.4-8.4-13.8-11C678.5,572.5,672.4,571.2,665.6,571.2z"/>
	</g>
</g>
</svg>
