<?xml version="1.0" encoding="utf-8"?>
<!-- Generator: Adobe Illustrator 18.0.0, SVG Export Plug-In . SVG Version: 6.00 Build 0)  -->
<!DOCTYPE svg PUBLIC "-//W3C//DTD SVG 1.1//EN" "http://www.w3.org/Graphics/SVG/1.1/DTD/svg11.dtd">
<svg version="1.1" id="Layer_1" xmlns="http://www.w3.org/2000/svg" xmlns:xlink="http://www.w3.org/1999/xlink" x="0px" y="0px"
	 viewBox="0 0 705 420" enable-background="new 0 0 705 420" xml:space="preserve">
<g>
	<polygon fill="#C0F1FF" points="290.5,102.9 236.6,158 236.6,102.9 202.8,102.9 202.8,270 236.6,270 236.6,203.5 290.2,270 
		335.5,270 260.3,179.4 336.5,102.9 	"/>
	<path fill="#C0F1FF" d="M358.2,105.1c-5.6,0-10.4,1.9-14.2,5.8c-3.8,3.8-5.7,8.6-5.7,14.2c0,5.6,1.9,10.4,5.7,14.2
		c3.8,3.8,8.6,5.8,14.2,5.8c5.6,0,10.4-1.9,14.2-5.8c3.8-3.8,5.8-8.6,5.8-14.2c0-5.6-1.9-10.4-5.8-14.2
		C368.6,107,363.8,105.1,358.2,105.1z"/>
	<rect x="341" y="160.7" fill="#C0F1FF" width="33.8" height="109.2"/>
	<path fill="#C0F1FF" d="M504.6,191.5c-2.9-7-6.7-12.9-11.5-17.8c-5-5-10.6-8.9-16.8-11.5c-6.3-2.7-13.1-4-20.5-4
		c-5.7,0-11.4,1.1-17,3.3c-2.4,0.9-4.8,2.1-7,3.6v-4.3H398v163h33.8v-58.7c0,0,0.1,0.1,0.1,0.1l0.1,0.1c3.3,2.1,6.4,3.7,9.3,4.9
		c3.1,1.2,5.9,1.9,8.5,2.3c2.5,0.4,4.6,0.5,6.2,0.5c6.4,0,12.9-1.3,19.3-4c6.3-2.7,12-6.6,16.9-11.6c4.9-4.9,8.9-11.1,11.9-18.3
		c3-7.3,4.6-15.4,4.6-24.2C508.8,206.5,507.4,198.7,504.6,191.5z M475,215.6c0,3.7-0.6,7.1-1.8,10.6c-1,3.1-2.5,5.9-4.6,8.5
		c-1.8,2.3-4.1,4.1-6.8,5.5c-2.6,1.3-5.5,1.9-9,1.9c-3,0-5.8-0.5-8.4-1.6c-2.8-1.2-5.2-2.7-7.2-4.8c-2.1-2.1-3.8-4.8-5.1-8
		c-1.3-3.4-2-7.2-2-11.8c0-4.7,0.7-8.7,2-12.3c1.3-3.4,3-6.1,5-8.2c2.1-2.1,4.4-3.6,7.2-4.8c2.7-1.1,5.5-1.6,8.5-1.6
		c3.3,0,6.4,0.7,9.1,1.9c2.6,1.2,4.8,3,6.7,5.4c2,2.5,3.5,5.3,4.6,8.6C474.4,208.3,475,211.7,475,215.6z"/>
</g>
</svg>
