<?xml version="1.0" encoding="utf-8"?>
<!-- Generator: Adobe Illustrator 18.0.0, SVG Export Plug-In . SVG Version: 6.00 Build 0)  -->
<!DOCTYPE svg PUBLIC "-//W3C//DTD SVG 1.1//EN" "http://www.w3.org/Graphics/SVG/1.1/DTD/svg11.dtd">
<svg version="1.1" id="Layer_1" xmlns="http://www.w3.org/2000/svg" xmlns:xlink="http://www.w3.org/1999/xlink" x="0px" y="0px"
	 viewBox="0 0 7000 7000" enable-background="new 0 0 7000 7000" xml:space="preserve">
<g>
	<path fill="#5542E2" d="M5266.7,1100C3850,4583.3,4283.3,6083.3,4283.3,6083.3L3700,5750c0,0,50-1350,1516.7-4666.7
		c0,0,16.7-33.3,33.3-16.7C5266.7,1066.7,5266.7,1100,5266.7,1100z"/>
	<g>
		<polygon fill="#5542E2" points="4616.7,4666.7 5833.3,5566.7 6166.7,4666.7 4616.7,4366.7 		"/>
		<path fill="#5542E2" d="M6283.3,2750L4700,3750l-50,483.3l1583.3,150C6216.7,4366.7,6450,3650,6283.3,2750z"/>
		<path fill="#5542E2" d="M5766.7,650c0,0,366.7,1133.3,483.3,1816.7l-1533.3,1150C4700,3600,5100,1700,5766.7,650z"/>
	</g>
	<g>
		<g>
			<path fill="#5542E2" d="M1833.3,4666.7L50,2733.3L3766.7,3500C3766.7,3500,2966.7,3700,1833.3,4666.7z"/>
		</g>
		<g>
			<path fill="#5542E2" d="M4083.3,3500c-50,16.7-100,50-150,50C3016.7,3950,2100,4833.3,2100,4833.3L3416.7,5550
				C3416.7,5566.7,3816.7,4133.3,4083.3,3500z"/>
		</g>
	</g>
</g>
</svg>
