<?xml version="1.0" encoding="utf-8"?>
<!-- Generator: Adobe Illustrator 18.0.0, SVG Export Plug-In . SVG Version: 6.00 Build 0)  -->
<!DOCTYPE svg PUBLIC "-//W3C//DTD SVG 1.1//EN" "http://www.w3.org/Graphics/SVG/1.1/DTD/svg11.dtd">
<svg version="1.1" id="Layer_1" xmlns="http://www.w3.org/2000/svg" xmlns:xlink="http://www.w3.org/1999/xlink" x="0px" y="0px"
	 viewBox="0 0 792 792" enable-background="new 0 0 792 792" xml:space="preserve">
<g>
	<polygon fill="#45A5F4" stroke="#45A5F4" stroke-width="10.2922" stroke-miterlimit="10" points="342.4,203.7 283.1,203.7 
		167.8,321.7 167.8,203.7 123.5,203.7 123.5,499.4 167.8,499.4 167.8,377.1 177.5,368.2 283.1,499.4 343.3,499.4 209,337.7 	"/>
	<path fill="#45A5F4" stroke="#45A5F4" stroke-width="10.2922" stroke-miterlimit="10" d="M406.7,207.8c-8,0-14.6,2.7-19.9,8
		c-5.4,5.4-8,11.9-8,19.9c0,8,2.7,14.6,8,19.9c5.4,5.4,11.9,8,19.9,8c8,0,14.6-2.7,19.9-8s8-11.9,8-19.9c0-8-2.7-14.6-8-19.9
		S414.7,207.8,406.7,207.8z"/>
	
		<rect x="384" y="312.8" fill="#45A5F4" stroke="#45A5F4" stroke-width="10.2922" stroke-miterlimit="10" width="44.3" height="186.6"/>
	<path fill="#45A5F4" stroke="#45A5F4" stroke-width="10.2922" stroke-miterlimit="10" d="M673.8,364.9
		c-4.9-11.9-11.4-22.1-19.6-30.5c-8.3-8.4-17.8-15-28.6-19.5c-10.8-4.6-22.5-6.8-34.8-6.8c-9.4,0-19,1.8-28.6,5.6
		c-9.7,3.6-18.5,10.2-26.4,19.7V313h-44.3v288h44.3V477.7c4.7,6,9.9,10.7,15.4,14.4c5.6,3.6,10.8,6.4,15.8,8.4
		c5,1.9,9.6,3.2,13.9,3.8c4.3,0.6,7.7,0.9,10.3,0.9c10.8,0,21.8-2.3,32.6-6.8c10.8-4.6,20.4-11.2,28.8-19.7
		c8.4-8.5,15.2-19.1,20.4-31.5c5.2-12.4,7.9-26.4,7.9-42.1C681.1,390.2,678.6,376.8,673.8,364.9z M632.9,429.6
		c-2.4,7.3-6,13.6-10.3,19.1c-4.4,5.5-9.7,9.7-16.1,12.9s-13.4,4.6-21.3,4.6c-6.7,0-13.3-1.2-19.6-3.8c-6.3-2.6-11.9-6.2-16.7-11.1
		c-4.9-4.9-8.8-10.9-11.7-18.4c-2.9-7.4-4.4-15.9-4.4-25.7c0-10.1,1.5-18.9,4.4-26.6c2.9-7.7,6.8-14,11.7-18.9
		c4.9-4.9,10.3-8.5,16.7-11.1s12.8-3.8,19.6-3.8c7.9,0,15,1.6,21.3,4.6s11.7,7.4,16.1,12.9s7.8,11.8,10.3,19.1
		c2.6,7.3,3.8,15,3.8,23.2C636.7,414.8,635.4,422.3,632.9,429.6z"/>
</g>
</svg>
