<?xml version="1.0" encoding="utf-8"?>
<!-- Generator: Adobe Illustrator 18.0.0, SVG Export Plug-In . SVG Version: 6.00 Build 0)  -->
<!DOCTYPE svg PUBLIC "-//W3C//DTD SVG 1.1//EN" "http://www.w3.org/Graphics/SVG/1.1/DTD/svg11.dtd">
<svg version="1.1" id="Layer_1" xmlns="http://www.w3.org/2000/svg" xmlns:xlink="http://www.w3.org/1999/xlink" x="0px" y="0px"
	 viewBox="0 0 705 420" enable-background="new 0 0 705 420" xml:space="preserve">
<g>
	<g>
		<polygon fill="#FFFFFF" points="217.2,40.8 161.4,40.8 52.8,151.9 52.8,40.8 11.1,40.8 11.1,319.2 52.8,319.2 52.8,204.1 
			61.9,195.7 161.4,319.2 218.1,319.2 91.6,167 		"/>
		<path fill="#FFFFFF" d="M228.9,324.3h-70L61.4,203.1l-3.5,3.2v118H6V35.7h51.9v103.7L159.2,35.7h70.2l-131,131.6L228.9,324.3z
			 M163.8,314.2h43.4L84.7,166.7L205,45.9h-41.4L47.7,164.4V45.9H16.2v268.2h31.5V201.9l14.8-13.6L163.8,314.2z"/>
	</g>
	<g>
		<path fill="#FFFFFF" d="M277.7,44.7c-7.5,0-13.7,2.5-18.7,7.5c-5.1,5.1-7.5,11.2-7.5,18.7c0,7.5,2.5,13.7,7.5,18.7
			c5.1,5.1,11.2,7.5,18.7,7.5s13.7-2.5,18.7-7.5c5-5,7.5-11.2,7.5-18.7c0-7.5-2.5-13.7-7.5-18.7C291.5,47.2,285.3,44.7,277.7,44.7z"
			/>
		<path fill="#FFFFFF" d="M277.7,102.3c-9,0-16.3-3-22.3-9c-6-6-9-13.5-9-22.3c0-9,3-16.3,9-22.3c6-6,13.5-9,22.3-9
			c8.8,0,16.3,3,22.3,9s9,13.5,9,22.3s-3,16.3-9,22.3C294.1,99.3,286.6,102.3,277.7,102.3z M277.7,49.8c-6.1,0-11.1,2-15.1,6
			c-4.1,4.1-6,8.9-6,15.1c0,6.1,2,11.1,6,15.1c4.1,4.1,8.9,6,15.1,6c6.1,0,11.1-2,15.1-6c4.1-4.1,6-9,6-15.1s-2-11.1-6-15.1
			C288.8,51.7,283.9,49.8,277.7,49.8z"/>
	</g>
	<g>
		<rect x="256.4" y="143.5" fill="#FFFFFF" width="41.7" height="175.7"/>
		<path fill="#FFFFFF" d="M303.2,324.3h-51.9V138.5h51.9V324.3z M261.5,314.2H293V148.6h-31.5V314.2z"/>
	</g>
	<g>
		<path fill="#FFFFFF" d="M529.2,192.6c-4.6-11.2-10.7-20.8-18.5-28.7c-7.8-7.9-16.8-14.1-26.9-18.4c-10.2-4.3-21.2-6.4-32.8-6.4
			c-8.9,0-17.9,1.7-26.9,5.3c-9.1,3.4-17.4,9.6-24.9,18.5v-19.2h-41.7v271.2h41.7V298.8c4.4,5.6,9.3,10.1,14.5,13.6
			c5.3,3.4,10.2,6,14.9,7.9c4.7,1.8,9,3,13.1,3.6c4,0.6,7.3,0.8,9.7,0.8c10.2,0,20.5-2.2,30.7-6.4c10.2-4.3,19.2-10.5,27.1-18.5
			c7.9-8,14.3-18,19.2-29.7s7.4-24.9,7.4-39.6C536.1,216.4,533.8,203.8,529.2,192.6z M490.7,253.5c-2.3,6.9-5.6,12.8-9.7,18
			c-4.1,5.2-9.1,9.1-15.2,12.1c-6,3-12.6,4.3-20.1,4.3c-6.3,0-12.5-1.1-18.5-3.6c-5.9-2.4-11.2-5.8-15.7-10.5
			c-4.6-4.6-8.3-10.3-11-17.3c-2.7-7-4.1-15-4.1-24.2c0-9.5,1.4-17.8,4.1-25c2.7-7.3,6.4-13.2,11-17.8c4.6-4.6,9.7-8,15.7-10.5
			c6-2.4,12.1-3.6,18.5-3.6c7.4,0,14.1,1.5,20.1,4.3c5.9,2.8,11,7,15.2,12.1s7.3,11.1,9.7,18c2.4,6.9,3.6,14.1,3.6,21.8
			C494.3,239.6,493.1,246.6,490.7,253.5z"/>
		<path fill="#FFFFFF" d="M404.4,420h-51.9V138.6h51.9v11.8c5.6-4.8,11.6-8.5,17.9-10.8c9.4-3.7,19.1-5.6,28.8-5.6
			c12.5,0,24.2,2.3,34.8,6.8c10.5,4.4,20.1,10.9,28.6,19.5c8.1,8.3,14.7,18.5,19.5,30.4c4.9,12.1,7.3,25.5,7.1,39.9
			c0,15.1-2.6,29.1-7.8,41.5c-5.2,12.4-12,22.9-20.3,31.3c-8.4,8.5-18.1,15.1-28.7,19.7c-10.9,4.5-21.8,6.8-32.7,6.8
			c-2.7,0-6.1-0.3-10.4-0.9c-4.3-0.6-8.9-1.9-14.2-3.9c-5-2-10.1-4.7-15.8-8.4l-0.1-0.1c-2.3-1.5-4.5-3.2-6.6-5V420z M362.7,409.8
			h31.5V284.1l9.1,11.6c3.8,4.9,8.3,9.1,13.3,12.4c5.1,3.3,9.7,5.7,14,7.4c4.5,1.7,8.4,2.8,11.9,3.3c3.8,0.5,6.8,0.8,9,0.8
			c9.5,0,19.2-2,28.7-6c9.4-4,18-9.9,25.5-17.4c7.3-7.4,13.4-16.9,18.1-28.1c4.7-11.1,7-23.8,7-37.7c0.2-13.1-2-25.1-6.3-35.9
			c-4.4-10.6-10.2-19.7-17.4-27.1c-7.5-7.5-16-13.3-25.2-17.2c-9.4-4-19.7-6-30.8-6c-8.4,0-16.8,1.7-25.1,4.9l-0.1,0
			c-8.2,3-15.8,8.8-22.7,17l-9,10.8v-28.2h-31.5V409.8z M445.8,293.1c-7.2,0-14-1.3-20.4-4c-6.8-2.8-12.5-6.6-17.4-11.6
			c-5.2-5.2-9.2-11.5-12.1-19.1c-3-7.6-4.5-16.4-4.5-26c0-9.9,1.5-19,4.5-26.8c3-7.9,7.1-14.5,12.2-19.6c5.1-5.1,10.8-8.9,17.4-11.6
			c6.5-2.7,13.2-4,20.4-4c8,0,15.5,1.6,22.2,4.8c6.5,3.1,12.2,7.7,16.9,13.6c4.5,5.7,8,12.1,10.5,19.5c2.6,7.3,3.9,15,3.9,23.5
			c0,8.1-1.3,15.7-3.9,23.3c-2.3,6.9-5.8,13.5-10.5,19.5c-4.6,5.8-10.1,10.2-16.9,13.6C461.6,291.5,454.3,293.1,445.8,293.1z
			 M445.8,180.6c-5.8,0-11.2,1-16.5,3.2c-5.4,2.2-9.9,5.2-14,9.3c-4.1,4.1-7.4,9.5-9.9,16c-2.5,6.7-3.8,14.5-3.8,23.3
			c0,8.5,1.2,15.8,3.8,22.3c2.4,6.3,5.7,11.4,9.9,15.6c3.9,4,8.5,7.1,14.1,9.3c5.1,2.1,10.7,3.2,16.5,3.2c6.9,0,12.7-1.2,17.8-3.8
			c5.4-2.7,9.8-6.2,13.5-10.8c3.9-5,6.9-10.6,8.8-16.4c2.2-6.5,3.3-13.1,3.3-20.1c0-7.3-1.1-13.9-3.3-20.1
			c-2.2-6.4-5.1-11.8-8.9-16.5c-3.7-4.7-8.2-8.3-13.4-10.7C458.3,181.9,452.3,180.6,445.8,180.6z"/>
	</g>
</g>
</svg>
