<?xml version="1.0" standalone="no"?>
<!DOCTYPE svg PUBLIC "-//W3C//DTD SVG 20010904//EN"
 "http://www.w3.org/TR/2001/REC-SVG-20010904/DTD/svg10.dtd">
<svg version="1.0" xmlns="http://www.w3.org/2000/svg"
 width="818.000000pt" height="900.000000pt" viewBox="0 0 818.000000 900.000000"
 preserveAspectRatio="xMidYMid meet">
<metadata>
Created by potrace 1.14, written by Peter Selinger 2001-2017
</metadata>
<g transform="translate(0.000000,900.000000) scale(0.100000,-0.100000)"
fill="#000000" stroke="none">
<path d="M3734 7776 c-4 -11 -17 -14 -42 -11 -34 4 -36 4 -18 -10 20 -15 20
-15 0 -16 -10 -1 -25 -1 -33 0 -7 2 -10 -2 -7 -7 3 -5 -8 -8 -24 -7 -16 1 -27
-2 -24 -7 3 -4 1 -8 -5 -8 -5 0 -13 5 -16 10 -5 8 -11 7 -21 -1 -12 -10 -15
-10 -12 2 2 8 -5 14 -16 14 -11 0 -20 -6 -22 -13 -1 -7 0 -8 3 -2 8 18 22 11
18 -9 -3 -15 1 -18 13 -14 13 4 14 3 6 -6 -9 -10 -29 -15 -112 -25 -18 -3 -21
0 -17 15 5 14 2 17 -9 13 -9 -3 -13 -10 -10 -15 3 -5 -2 -12 -11 -15 -10 -4
-12 -10 -6 -18 6 -7 4 -16 -5 -24 -12 -11 -14 -10 -14 3 0 8 -5 15 -11 15 -6
0 -9 -7 -5 -15 3 -9 0 -15 -9 -15 -8 0 -13 9 -12 20 1 13 8 20 22 20 15 0 17
2 6 9 -8 5 -12 15 -9 22 3 8 1 23 -4 34 -8 18 -8 18 -4 -2 2 -13 0 -23 -5 -23
-5 0 -9 6 -9 13 0 6 -6 1 -13 -13 -7 -14 -21 -24 -30 -24 -9 1 -14 -3 -10 -9
4 -6 0 -8 -11 -4 -9 4 -15 3 -11 -3 3 -5 -3 -8 -14 -7 -11 0 -19 4 -18 8 1 4
-2 6 -8 6 -5 -1 -8 -10 -7 -21 3 -12 0 -16 -9 -11 -8 5 -10 4 -5 -4 6 -9 11
-9 24 1 9 7 5 -2 -8 -19 -26 -36 -36 -42 -26 -17 3 8 2 12 -3 9 -5 -3 -13 0
-17 6 -3 6 0 15 7 20 7 4 10 12 5 16 -5 4 -11 3 -13 -4 -2 -6 -15 -9 -29 -7
-25 5 -28 -2 -24 -58 1 -21 -3 -28 -17 -28 -14 0 -15 -2 -5 -9 11 -7 10 -10
-3 -15 -25 -9 -28 -8 -22 14 3 11 0 18 -7 17 -6 -1 -10 3 -9 10 2 7 -8 10 -25
8 -15 -2 -31 -4 -35 -4 -13 -1 2 -20 26 -31 21 -11 21 -11 3 4 -11 9 -17 18
-14 21 8 9 40 -25 35 -38 -6 -19 -22 -18 -44 2 -11 11 -24 17 -27 14 -3 -4 -6
-1 -6 5 0 7 -9 12 -20 12 -11 0 -20 5 -20 12 0 6 -3 8 -7 4 -4 -4 3 -16 17
-27 14 -11 20 -18 15 -17 -6 2 -21 -7 -34 -19 -13 -12 -28 -20 -33 -17 -4 3
-8 1 -8 -4 0 -6 -6 -12 -14 -15 -10 -4 -15 4 -18 24 -3 20 0 29 10 29 8 0 12
-6 9 -14 -4 -10 -1 -13 9 -9 11 4 12 9 3 19 -6 8 -8 21 -5 30 4 11 -1 9 -17
-6 -19 -18 -23 -29 -17 -54 4 -20 12 -31 23 -30 15 2 15 0 -1 -22 -16 -22 -31
-29 -61 -25 -7 2 -10 -2 -7 -8 4 -5 1 -13 -5 -17 -8 -4 -9 -3 -5 4 9 16 -7 15
-22 0 -19 -19 -14 1 9 38 11 19 17 39 13 45 -3 6 0 15 7 20 11 7 12 9 1 9 -12
0 -30 -39 -23 -48 1 -2 -6 -11 -16 -20 -20 -18 -28 -62 -12 -62 6 0 7 -5 3
-11 -5 -8 -10 -6 -16 5 -10 18 -28 22 -28 5 0 -5 5 -7 10 -4 6 3 10 1 10 -5 0
-7 -7 -9 -16 -6 -9 3 -18 6 -20 6 -3 0 -2 5 1 10 8 13 -11 13 -37 -1 -15 -8
-19 -8 -14 0 13 21 -13 11 -28 -11 -9 -12 -19 -19 -22 -15 -4 4 -13 -1 -20
-11 -12 -15 -12 -15 -7 6 4 15 1 22 -7 20 -7 -2 -15 3 -17 10 -3 6 0 12 5 12
6 0 8 8 5 19 -7 28 52 84 82 78 14 -2 22 0 19 4 -7 12 67 41 93 36 12 -2 20 0
17 4 -3 5 8 14 23 21 15 7 30 15 33 18 7 7 81 45 92 46 4 1 13 2 18 3 6 0 10
5 10 10 0 6 -12 6 -29 1 -16 -4 -32 -6 -35 -2 -3 3 -6 1 -6 -5 0 -15 -101 -67
-109 -56 -3 5 -15 13 -26 16 -20 7 -20 7 -1 -8 22 -17 22 -16 -16 -33 -31 -13
-39 1 -10 17 9 6 12 11 6 11 -6 0 -9 14 -8 33 2 17 1 23 -2 12 -3 -11 -10 -32
-16 -47 l-10 -27 -20 22 -20 22 16 -25 c22 -34 20 -41 -9 -34 -19 5 -25 2 -25
-10 0 -9 -6 -16 -13 -16 -7 0 -23 -9 -35 -20 -12 -12 -22 -16 -22 -10 0 5 -4
10 -10 10 -5 0 -9 -8 -8 -17 3 -45 -4 -75 -21 -90 -11 -9 -17 -21 -14 -26 3
-5 -6 -21 -19 -35 -14 -15 -28 -35 -32 -46 -3 -10 -12 -16 -20 -13 -8 3 -16 1
-18 -4 -2 -6 -10 -11 -18 -12 -24 -4 -58 -26 -40 -27 10 0 11 -3 4 -8 -6 -4
-15 -15 -20 -25 -8 -14 -10 -10 -10 18 0 22 5 35 13 35 7 0 13 5 13 11 0 5 -6
7 -12 3 -10 -6 -10 -5 0 8 10 12 9 18 -3 28 -14 12 -20 7 -16 -14 3 -13 -41
-56 -50 -50 -5 3 -9 1 -9 -4 0 -6 7 -13 16 -16 8 -3 13 -2 10 3 -3 5 0 11 8
14 15 6 16 -9 2 -31 -6 -11 -11 -11 -24 0 -9 8 -13 8 -9 1 12 -19 -4 -45 -25
-40 -15 4 -17 2 -9 -7 14 -17 2 -29 -15 -15 -9 8 -10 18 -3 37 9 25 8 26 -6 7
-8 -11 -20 -26 -26 -34 -10 -11 -9 -16 4 -26 9 -7 17 -18 17 -26 -1 -11 -4
-10 -13 3 -8 10 -18 13 -26 9 -10 -6 -9 -10 4 -15 14 -5 14 -8 3 -20 -8 -7
-24 -16 -35 -20 -12 -4 -24 -15 -26 -24 -3 -10 -5 -6 -6 11 -1 32 -11 34 -36
7 -18 -20 -8 -29 11 -10 8 8 11 0 10 -25 -1 -36 -16 -51 -16 -15 0 11 -5 20
-12 20 -6 0 -9 -3 -5 -6 3 -4 0 -13 -8 -21 -17 -16 -20 -37 -5 -28 5 3 10 2
10 -4 0 -5 -4 -13 -10 -16 -5 -3 -10 -2 -10 4 0 5 -9 8 -20 6 -11 -2 -21 2
-21 8 -3 27 -4 32 -12 35 -16 6 -38 -15 -46 -45 -7 -24 -5 -35 8 -48 9 -9 12
-15 6 -13 -5 2 -11 -1 -12 -6 -2 -11 -32 -29 -55 -33 -14 -2 -16 3 -11 27 4
21 2 30 -7 30 -9 0 -7 7 6 22 10 12 14 18 7 15 -6 -4 -16 0 -22 10 -6 10 -11
13 -11 8 0 -6 6 -17 12 -24 11 -11 10 -13 -4 -8 -24 8 -30 -18 -8 -40 20 -22
11 -53 -16 -53 -8 0 -12 -5 -9 -10 4 -7 11 -7 18 -2 15 12 47 11 47 -1 0 -5
-7 -7 -15 -3 -17 6 -47 -32 -38 -48 4 -6 0 -5 -9 2 -11 9 -18 10 -23 2 -3 -5
-11 -10 -17 -10 -6 0 -6 6 2 15 11 13 10 14 -5 9 -11 -5 -16 -3 -12 2 3 6 2
16 -4 24 -7 13 -9 12 -9 -2 0 -27 22 -68 33 -61 6 3 7 1 3 -5 -10 -17 -33 -15
-40 4 -4 9 -2 13 5 8 7 -4 6 2 -1 17 -16 30 -25 39 -17 17 8 -23 -21 -47 -34
-27 -7 12 -9 11 -9 -2 0 -9 7 -19 15 -23 8 -3 15 -1 15 4 0 6 4 10 8 10 5 0 9
-6 9 -14 0 -14 -34 -16 -55 -2 -6 3 -14 1 -18 -5 -4 -8 -3 -9 4 -5 7 4 12 2
12 -4 0 -6 6 -8 13 -5 6 4 5 1 -4 -7 -8 -7 -18 -21 -22 -31 -10 -28 26 -17 38
11 5 12 15 20 21 18 6 -2 17 1 23 7 6 6 11 7 11 1 0 -12 -37 -44 -51 -44 -8 0
-10 -12 -6 -35 5 -31 3 -34 -15 -32 -11 1 -23 -4 -26 -12 -2 -8 0 -11 6 -8 10
7 26 -33 17 -42 -3 -2 -5 1 -5 7 0 7 -4 12 -10 12 -5 0 -10 -7 -10 -15 0 -8 4
-15 9 -15 5 0 7 -12 5 -27 -7 -38 -14 -42 -14 -9 0 18 -4 25 -12 20 -7 -5 -8
-3 -3 6 5 8 3 11 -6 8 -8 -3 -13 -12 -13 -21 1 -9 -1 -16 -5 -15 -20 2 -22 -4
-6 -16 15 -11 17 -17 7 -28 -6 -8 -8 -19 -4 -23 4 -5 1 -5 -5 -1 -8 4 -13 1
-13 -9 0 -9 4 -14 8 -11 5 3 9 -1 9 -9 0 -13 -3 -12 -18 1 -18 16 -18 18 1 42
11 14 17 28 14 31 -4 3 -9 0 -12 -7 -3 -10 -11 -5 -24 15 -11 15 -18 20 -14
11 4 -14 0 -17 -19 -16 -27 3 -35 18 -10 18 8 0 15 6 15 13 0 15 55 77 68 77
5 0 16 8 23 18 13 15 12 16 -3 3 -16 -12 -18 -11 -18 4 0 13 6 16 21 12 24 -6
56 17 39 28 -5 3 -10 2 -10 -3 0 -5 -12 -9 -26 -9 -17 0 -22 2 -13 8 7 4 16 6
19 4 3 -2 6 12 6 30 0 27 -3 32 -13 23 -8 -6 -12 -17 -9 -24 6 -17 -10 -28
-19 -14 -4 6 0 19 9 29 24 27 21 54 -5 46 -18 -6 -20 -4 -15 13 4 12 2 24 -5
28 -8 4 -9 3 -5 -5 4 -6 -2 -23 -13 -37 -25 -32 -27 -50 -5 -58 10 -4 14 -12
10 -22 -5 -13 -4 -14 7 -6 8 7 16 9 19 6 8 -7 -14 -64 -25 -64 -4 0 -6 -4 -2
-9 3 -5 -4 -12 -15 -16 -11 -3 -20 -11 -20 -17 0 -7 -4 -7 -13 0 -10 8 -13 6
-13 -8 0 -10 5 -16 10 -13 5 4 1 -6 -10 -20 -10 -15 -23 -27 -28 -27 -5 0 -4
6 1 13 17 23 9 52 -15 55 -19 3 -21 6 -11 18 7 9 16 11 23 5 7 -6 21 -1 39 14
27 24 40 48 13 26 -7 -6 -21 -9 -30 -5 -10 4 -23 -2 -36 -17 -10 -13 -19 -20
-20 -16 0 13 22 51 34 59 6 4 8 10 4 13 -4 4 -19 -12 -34 -34 -15 -23 -24 -44
-20 -48 4 -4 -4 -13 -16 -21 -19 -11 -19 -12 -3 -7 24 8 24 8 49 6 16 -1 17
-4 8 -13 -15 -15 -16 -32 -2 -23 11 7 7 -36 -5 -55 -3 -5 -2 -10 4 -10 5 0 14
8 20 18 14 24 33 3 38 -44 3 -33 2 -36 -12 -24 -28 23 -28 2 0 -24 32 -30 29
-32 -11 -11 -30 15 -41 8 -30 -20 3 -8 12 -12 21 -9 10 4 15 0 15 -10 0 -9 -6
-16 -14 -16 -7 0 -20 -8 -27 -17 -11 -13 -11 -15 -1 -9 9 6 12 3 10 -10 -2
-11 2 -18 9 -17 7 2 10 -4 7 -12 -4 -8 -1 -15 5 -15 8 0 8 -4 -1 -14 -7 -8
-16 -12 -21 -9 -4 2 -7 -3 -7 -11 0 -9 -4 -17 -10 -17 -5 -1 -15 -2 -22 -3 -6
0 -13 -7 -16 -15 -3 -9 0 -11 9 -7 8 4 4 -1 -7 -11 -20 -17 -39 -63 -25 -61
21 2 23 -4 3 -18 -12 -8 -20 -20 -17 -25 3 -5 -1 -6 -10 -2 -17 6 -17 30 1 78
6 17 3 16 -15 -5 -19 -21 -22 -22 -16 -5 5 15 3 17 -5 9 -17 -17 -19 -48 -4
-59 10 -7 11 -14 3 -25 -9 -13 -10 -12 -5 3 3 9 2 17 -3 17 -10 0 -21 -35 -21
-70 0 -25 -16 -50 -32 -50 -4 0 -8 5 -8 11 0 5 5 7 10 4 15 -9 25 24 11 38 -8
8 -11 8 -11 -2 0 -7 -6 -11 -14 -8 -7 3 -13 0 -13 -6 1 -41 -4 -61 -12 -48 -5
8 -11 9 -15 3 -3 -5 1 -13 10 -16 13 -5 14 -9 4 -22 -7 -8 -19 -13 -27 -10 -7
3 -13 2 -13 -3 0 -16 13 -21 27 -9 17 13 26 6 18 -15 -8 -19 -34 -16 -47 6 -5
9 -14 17 -19 17 -6 0 -8 -4 -5 -8 3 -5 6 -27 7 -50 2 -31 6 -39 15 -31 9 8 11
5 7 -10 -3 -13 -1 -21 6 -21 7 0 9 4 6 10 -3 5 0 7 9 4 8 -3 17 -13 20 -21 5
-13 0 -15 -26 -10 -18 3 -27 3 -20 0 6 -2 12 -11 12 -19 0 -9 5 -12 10 -9 16
10 12 -4 -10 -35 -19 -27 -11 -35 17 -17 9 6 11 3 7 -7 -3 -9 -10 -16 -14 -16
-5 0 -7 -10 -5 -22 4 -21 3 -22 -9 -5 -12 16 -14 15 -20 -14 -3 -17 -6 -42 -6
-56 0 -13 -4 -21 -10 -18 -5 3 -7 0 -4 -9 3 -8 1 -24 -6 -35 -7 -14 -7 -21 0
-21 5 0 10 7 10 15 0 8 5 15 10 15 13 0 13 -3 -1 -37 -23 -56 -34 -78 -44 -85
-6 -5 -5 -8 3 -8 6 0 12 -7 12 -15 0 -8 -7 -15 -15 -15 -9 0 -12 -6 -9 -15 4
-8 2 -15 -4 -15 -15 0 -32 -52 -27 -83 4 -19 2 -26 -5 -22 -6 4 -9 13 -6 21 3
8 0 11 -10 7 -18 -7 -18 -19 0 -26 9 -4 13 -14 9 -29 -4 -18 -3 -20 6 -8 9 13
11 13 11 -2 0 -10 5 -18 11 -18 14 0 1 -82 -15 -92 -6 -4 -17 0 -23 9 -8 11
-13 12 -13 4 0 -7 7 -19 15 -27 8 -9 15 -23 15 -32 0 -12 -7 -9 -25 13 -13 17
-24 26 -25 22 0 -5 6 -15 12 -22 31 -34 36 -44 42 -76 l6 -34 -13 31 c-10 26
-14 30 -24 18 -15 -15 -17 -28 -4 -20 5 3 12 -1 15 -10 4 -12 2 -15 -9 -10 -8
3 -15 3 -15 0 0 -10 23 -48 37 -62 7 -7 13 -18 13 -23 0 -6 -7 -3 -16 6 -14
13 -18 14 -25 3 -5 -7 -4 -14 1 -16 6 -2 10 -8 10 -13 0 -4 -7 -6 -15 -3 -8 4
-15 2 -15 -4 0 -5 8 -13 17 -16 12 -5 13 -10 5 -18 -7 -7 -8 -17 -2 -28 5 -10
5 -22 -2 -31 -8 -11 -9 -11 -4 4 3 9 1 17 -4 17 -6 0 -10 9 -10 19 0 27 -10
51 -22 51 -11 0 -1 -60 13 -74 4 -5 4 -18 -2 -28 -14 -26 -2 -56 24 -60 13 -2
21 -9 19 -18 -2 -7 0 -25 4 -39 l7 -26 7 30 c4 19 1 39 -9 55 l-16 25 25 -16
c16 -11 23 -24 21 -35 -5 -18 -5 -30 -1 -108 1 -15 -6 -36 -14 -45 -18 -20
-21 -35 -6 -26 11 7 14 -8 4 -18 -4 -4 -8 -26 -10 -49 -6 -67 -11 -74 -34 -53
-25 23 -26 15 -1 -14 14 -16 21 -18 24 -9 3 7 5 -8 4 -34 -2 -26 -7 -51 -11
-55 -5 -4 -6 0 -3 10 4 9 2 17 -3 17 -6 0 -10 -1 -10 -3 0 -1 -4 -17 -10 -35
-8 -29 -7 -32 5 -22 12 10 15 10 15 -1 0 -37 32 52 33 94 2 34 5 44 12 34 6
-8 18 -13 28 -11 10 1 17 -4 17 -13 0 -13 -3 -13 -15 -3 -8 7 -16 10 -16 6 -2
-10 -6 -25 -9 -33 -1 -5 -2 -12 -1 -16 1 -4 -3 -16 -8 -26 -7 -12 -6 -22 2
-31 9 -10 9 -11 -1 -6 -6 4 -12 3 -12 -3 0 -5 9 -13 20 -16 11 -3 20 -11 20
-16 0 -6 -4 -7 -10 -4 -6 3 -10 -4 -10 -17 -1 -21 -2 -21 -11 -5 -6 9 -14 15
-20 12 -5 -4 -9 4 -10 17 0 20 -2 19 -11 -7 -6 -16 -16 -33 -22 -37 -8 -6 -7
-10 2 -16 7 -5 12 -15 10 -22 -2 -7 2 -14 9 -17 8 -3 10 6 7 27 -5 29 -4 30
15 19 11 -7 17 -17 15 -21 -3 -5 6 -3 20 3 14 7 24 15 21 18 -2 4 5 7 15 7 18
0 18 -2 -3 -21 -12 -11 -25 -19 -29 -18 -16 6 -7 -13 12 -25 11 -7 21 -22 21
-35 1 -17 2 -18 6 -4 9 34 21 6 13 -30 -5 -21 -5 -42 0 -48 4 -5 9 -13 9 -17
1 -5 1 -9 2 -10 3 -11 9 -57 10 -73 0 -28 31 -95 43 -95 6 0 6 -4 -1 -11 -7
-7 -8 -20 -3 -33 11 -30 35 -110 35 -119 0 -4 5 -11 10 -15 17 -12 36 -52 30
-62 -4 -6 -2 -10 4 -10 6 0 13 -11 17 -25 3 -14 10 -25 14 -25 5 0 7 -11 5
-25 -1 -14 1 -28 6 -30 4 -3 19 -30 34 -60 14 -30 31 -55 37 -55 6 0 2 -8 -10
-18 -14 -13 -18 -22 -11 -33 7 -11 9 -10 9 6 0 17 5 14 30 -15 16 -19 30 -29
30 -21 0 20 40 -33 40 -54 0 -9 5 -13 10 -10 17 10 11 -7 -6 -20 -15 -11 -15
-14 1 -38 9 -15 22 -24 27 -21 6 4 6 9 2 13 -5 3 -15 13 -21 22 -10 13 -10 16
2 16 8 0 15 -6 15 -13 0 -7 9 -18 20 -24 11 -6 20 -15 20 -21 0 -6 -4 -8 -9
-4 -6 3 -14 -2 -19 -10 -8 -15 -10 -15 -21 -1 -8 9 -18 16 -23 16 -5 0 3 -11
18 -25 31 -29 42 -31 50 -10 8 19 24 20 24 2 0 -8 9 -22 20 -32 11 -10 20 -15
20 -10 0 4 7 2 15 -5 8 -7 15 -17 15 -22 0 -6 -7 -5 -15 2 -13 11 -14 10 -9
-6 12 -33 44 -58 57 -45 9 9 9 14 1 19 -6 4 -10 15 -8 25 1 9 -1 15 -6 12 -11
-7 -23 26 -13 36 10 9 37 -10 46 -31 4 -12 6 -11 6 3 1 17 21 25 21 8 0 -5 11
-8 25 -9 34 0 40 -7 44 -55 1 -5 5 -6 10 -3 5 3 17 -6 26 -20 9 -15 12 -23 6
-20 -14 9 -14 -7 0 -21 7 -7 7 -13 0 -17 -13 -8 -52 24 -44 37 8 13 -18 87
-28 81 -5 -3 -9 0 -9 7 0 7 -3 9 -7 6 -3 -4 1 -15 11 -26 9 -10 19 -28 21 -41
4 -18 2 -20 -11 -9 -12 10 -13 9 -9 -4 8 -19 -14 -34 -25 -17 -5 7 -7 18 -6
24 2 6 1 8 -1 5 -2 -3 -15 -4 -28 -1 -28 5 -35 -18 -11 -37 13 -11 12 -15 -2
-31 -16 -19 -16 -19 -28 9 -7 16 -17 32 -23 35 -15 9 -14 5 5 -32 18 -37 30
-47 39 -32 4 6 11 7 17 4 7 -4 8 -2 4 4 -4 7 -2 12 3 12 6 0 11 -4 11 -10 0
-5 7 -10 16 -10 9 0 13 5 9 13 -4 6 0 4 7 -5 20 -24 40 -26 43 -5 3 14 0 16
-10 7 -9 -8 -14 -5 -18 12 -10 37 8 41 37 8 14 -17 26 -28 26 -25 0 4 11 0 25
-9 24 -16 25 -16 25 6 0 17 -3 19 -9 9 -6 -9 -11 -10 -15 -2 -9 13 2 33 14 26
4 -3 17 -22 28 -44 16 -30 18 -41 9 -51 -9 -10 -8 -12 5 -7 12 4 18 -2 23 -24
4 -16 11 -29 16 -29 6 0 6 8 -1 19 -6 11 -6 29 -2 41 8 22 10 21 39 -16 17
-22 31 -43 32 -49 0 -5 7 -10 14 -10 6 0 13 -13 14 -30 1 -21 0 -23 -4 -7 -3
14 -11 21 -20 20 -11 -2 -19 8 -25 30 -5 17 -13 32 -18 32 -6 0 -10 8 -10 17
0 12 -3 14 -11 6 -12 -12 4 -53 21 -53 6 0 10 -8 10 -18 0 -9 9 -23 20 -30 12
-7 18 -17 15 -22 -4 -6 -11 -8 -16 -5 -5 3 -6 -1 -3 -9 7 -18 -4 -20 -26 -6
-12 8 -12 12 -2 18 10 7 10 13 -1 34 -12 24 -14 24 -25 10 -10 -15 -11 -15
-12 3 l-1 20 -10 -20 c-8 -17 -9 -15 -6 11 3 25 0 30 -14 27 -11 -3 -19 3 -24
16 -3 12 -13 21 -21 21 -12 0 -13 -4 -4 -22 10 -21 10 -21 -3 -6 -8 10 -17 15
-20 11 -4 -3 -7 -1 -7 6 0 6 11 16 25 21 29 11 34 20 6 13 -10 -3 -22 0 -25 6
-4 6 -11 11 -16 11 -11 0 7 -74 19 -78 6 -2 11 -10 11 -18 0 -9 -4 -13 -9 -10
-5 3 -11 0 -14 -8 -4 -9 0 -12 12 -9 12 3 28 -7 44 -27 15 -17 27 -27 27 -21
0 21 20 11 26 -14 3 -13 11 -23 17 -22 6 1 12 -10 12 -26 1 -15 9 -35 19 -45
18 -16 18 -16 1 11 -10 15 -14 31 -10 35 11 11 64 -58 58 -77 -4 -12 -3 -13 4
-3 8 10 12 10 23 -3 12 -14 7 -20 -14 -16 -5 1 -3 -5 4 -14 13 -15 15 -15 22
5 6 15 2 27 -12 42 -11 12 -20 27 -20 32 0 6 13 -5 29 -24 16 -19 27 -39 24
-46 -2 -6 3 -14 12 -18 9 -3 13 -11 9 -17 -4 -8 0 -8 15 0 16 9 21 9 21 -1 0
-7 16 -25 35 -41 21 -17 32 -33 29 -42 -5 -13 16 -22 30 -12 8 5 45 -36 40
-45 -3 -4 0 -7 7 -6 6 2 14 -3 16 -10 3 -7 -1 -13 -8 -11 -30 4 -50 -2 -44
-11 4 -6 16 -8 27 -4 28 9 65 -14 77 -47 8 -23 7 -28 -7 -31 -13 -3 -12 -5 5
-10 18 -5 21 -2 17 20 -4 22 -3 24 11 12 8 -7 18 -10 22 -6 4 3 -3 13 -15 22
-23 16 -21 34 2 34 7 0 25 -12 40 -26 26 -27 34 -54 16 -54 -5 0 -10 7 -10 15
0 8 -5 15 -10 15 -7 0 -7 -6 0 -20 12 -23 21 -25 39 -7 10 10 11 8 5 -7 -5
-13 -4 -17 4 -12 7 4 12 2 12 -4 0 -6 5 -8 10 -5 6 3 13 -1 16 -9 3 -9 10 -13
15 -10 12 7 41 -15 34 -26 -3 -5 4 -11 15 -15 11 -4 19 -14 18 -22 -2 -9 2
-18 8 -20 6 -2 10 8 9 24 -1 16 0 21 2 11 2 -9 11 -19 20 -22 13 -5 13 -4 4 7
-9 11 -8 17 4 27 8 7 15 8 15 3 0 -14 33 -48 50 -51 8 -1 25 -14 37 -27 12
-14 23 -20 25 -13 3 8 13 8 34 1 24 -8 29 -15 27 -39 -2 -22 0 -24 5 -9 4 11
13 21 20 23 8 1 11 -2 8 -7 -3 -5 1 -11 9 -15 8 -3 15 -1 15 4 0 11 28 9 47
-3 6 -4 18 -5 26 -1 8 3 21 -1 28 -8 21 -21 49 -30 43 -14 -3 8 0 17 7 21 8 6
10 -1 7 -23 -4 -28 -3 -30 15 -20 12 6 22 6 26 1 11 -18 37 -10 37 10 -1 33
23 31 35 -2 12 -35 25 -40 32 -14 4 17 5 17 6 0 0 -10 6 -15 11 -12 6 4 8 11
5 16 -4 5 -1 9 4 9 6 0 11 -7 11 -16 0 -8 5 -12 10 -9 6 4 8 11 5 16 -4 5 -1
9 5 9 6 0 10 -6 9 -12 -1 -7 1 -21 6 -31 11 -26 -2 -33 -25 -12 -11 10 -23 15
-27 12 -3 -4 -4 -8 -2 -9 40 -24 69 -38 68 -31 -4 21 2 33 16 33 10 0 14 8 11
23 -2 12 -9 21 -15 20 -6 -2 -11 1 -11 6 0 5 -10 12 -22 14 -19 4 -19 4 5 6
28 1 62 -24 85 -64 11 -20 11 -20 12 0 0 12 3 16 8 9 4 -6 17 -15 30 -18 19
-6 21 -10 11 -22 -9 -11 -8 -14 5 -14 9 0 16 7 16 15 0 8 7 15 15 15 9 0 18 7
21 15 7 17 34 21 34 4 0 -13 25 11 32 31 4 11 8 8 15 -10 12 -30 -8 -50 -47
-46 -14 2 -18 1 -10 -1 8 -3 18 -10 23 -17 5 -8 10 -7 16 3 5 8 18 12 30 8 18
-4 20 -1 17 19 -3 13 0 24 6 24 5 0 8 -7 4 -15 -7 -20 0 -19 35 6 29 20 51 18
48 -4 -3 -27 2 -37 20 -37 11 0 23 4 26 10 3 5 0 7 -8 4 -8 -3 -18 -1 -21 4
-3 5 6 9 20 9 17 0 24 -4 20 -13 -8 -21 33 -59 47 -45 17 17 29 13 25 -11 -2
-11 3 -23 10 -25 7 -3 11 3 10 14 -3 37 2 54 14 47 6 -4 8 -3 5 3 -4 6 0 16 8
23 12 10 16 9 21 -4 3 -9 10 -13 15 -10 5 3 6 -3 2 -12 -5 -13 -3 -15 8 -8 8
4 34 9 58 9 36 0 45 4 52 23 7 18 5 22 -12 22 -11 0 -18 4 -15 9 7 11 56 2 56
-11 0 -6 9 0 19 13 19 23 20 23 15 3 -6 -22 11 -42 24 -29 3 3 0 10 -7 14 -8
5 -9 11 -3 14 5 4 16 -11 25 -33 9 -23 11 -42 6 -46 -5 -3 -9 2 -9 10 0 21
-36 40 -46 24 -4 -6 -3 -8 4 -4 6 3 14 1 18 -5 5 -8 -4 -10 -30 -7 -20 2 -36
1 -36 -3 0 -4 -15 -11 -32 -15 -18 -4 -27 -9 -20 -11 7 -3 26 0 42 5 18 7 32
7 35 1 4 -5 -1 -9 -9 -9 -9 0 -16 -4 -16 -9 0 -5 -16 -8 -35 -7 -19 1 -35 -2
-35 -6 0 -5 -6 -8 -12 -8 -7 -1 -26 -7 -43 -15 l-30 -14 30 3 c17 1 35 5 40 8
28 15 64 17 75 3 7 -8 16 -13 20 -10 5 3 19 1 32 -4 12 -6 17 -10 10 -10 -7
-1 -10 -6 -7 -11 3 -6 0 -13 -8 -16 -9 -3 -13 -13 -10 -25 5 -20 6 -20 20 1
16 22 59 27 66 8 3 -7 4 -3 4 10 -1 19 -5 22 -29 17 -22 -5 -27 -3 -22 8 3 9
14 14 27 12 14 -3 17 -1 10 6 -12 12 -34 17 -76 18 -18 1 -26 5 -22 12 4 6 24
9 46 6 21 -2 36 0 33 4 -3 5 -14 9 -25 9 -10 0 -19 4 -19 9 0 4 20 7 45 6 28
-1 50 4 57 12 9 11 13 12 21 1 6 -9 7 -8 3 4 -5 17 8 26 17 11 2 -5 2 -3 1 4
-4 15 22 37 35 29 5 -4 16 1 24 9 17 16 28 19 26 8 -5 -29 3 -33 21 -12 l19
24 1 -24 c0 -17 3 -21 13 -14 12 11 29 10 65 -1 13 -5 22 -1 26 10 7 19 -2 37
-15 28 -5 -3 -7 -10 -4 -15 10 -15 -20 -10 -41 7 -19 15 -18 15 4 11 16 -4 22
0 22 11 0 15 2 15 10 2 8 -13 10 -12 10 3 0 10 7 17 18 17 15 0 15 -2 2 -10
-13 -9 -13 -12 3 -21 9 -6 15 -14 12 -19 -3 -5 -1 -11 4 -14 5 -3 11 3 14 14
3 11 1 23 -4 26 -11 6 -2 24 12 24 6 0 8 -4 4 -9 -3 -5 -1 -12 5 -16 5 -3 10
-1 10 4 0 6 4 11 9 11 5 0 8 -18 7 -40 -3 -35 -1 -38 10 -22 7 9 21 17 31 18
10 1 31 2 46 3 19 0 26 5 21 13 -4 7 -3 8 4 4 7 -4 20 -2 29 3 17 10 17 10 0
11 -10 0 -15 5 -12 11 5 7 14 4 26 -7 20 -18 27 -40 9 -29 -5 3 -10 1 -10 -5
0 -7 -6 -10 -14 -7 -8 3 -16 1 -18 -5 -2 -6 -18 -11 -36 -12 -21 -1 -34 -7
-38 -18 -6 -19 -32 -28 -87 -33 -18 -2 -38 -3 -44 -4 -7 -1 -13 -6 -13 -12 0
-5 4 -7 10 -4 5 3 10 1 10 -4 0 -6 -4 -11 -10 -11 -5 0 -10 -6 -10 -14 0 -17
-33 -31 -38 -17 -2 6 -8 9 -13 5 -5 -3 -9 0 -9 6 0 8 9 10 23 7 19 -5 22 -2
23 26 1 18 -1 26 -3 20 -3 -7 -17 -13 -31 -14 -15 0 -21 -3 -14 -6 10 -4 10
-9 -2 -22 -15 -16 -14 -19 7 -28 32 -15 72 -11 72 7 0 8 6 26 14 40 13 23 15
24 21 5 5 -13 1 -25 -9 -33 -14 -11 -14 -12 4 -10 13 2 22 14 26 33 4 17 7 25
8 18 1 -7 8 -10 18 -6 10 4 14 2 9 -5 -3 -6 -2 -13 3 -16 5 -3 12 5 15 19 4
15 11 22 20 19 7 -3 16 3 20 13 6 15 8 15 17 3 8 -13 10 -13 18 0 6 8 13 11
16 8 10 -9 -4 -28 -20 -28 -7 0 -16 -8 -20 -17 -5 -15 -4 -16 6 -6 7 7 17 13
23 13 6 0 5 -5 -2 -12 -7 -7 -12 -17 -12 -22 0 -19 31 34 34 57 1 13 6 28 10
35 8 13 26 7 26 -9 0 -6 -4 -7 -10 -4 -5 3 -10 2 -10 -4 0 -22 20 -20 26 3 3
14 13 31 22 38 13 11 14 10 4 -9 -7 -12 -12 -30 -11 -40 0 -14 2 -13 10 5 6
17 14 22 28 17 14 -4 20 0 24 17 4 13 1 26 -6 30 -7 4 -9 8 -4 9 4 1 10 2 15
3 4 1 14 6 22 11 8 5 22 10 30 10 14 0 14 6 3 46 -3 11 3 15 24 15 43 0 58
-21 26 -35 -25 -11 -25 -12 -7 -27 18 -14 18 -14 0 -12 -19 3 -45 -26 -34 -37
6 -7 40 10 71 34 15 12 17 12 17 -5 1 -19 1 -19 15 0 15 20 15 20 15 0 0 -16
2 -17 10 -4 7 11 10 11 10 2 0 -10 5 -10 20 -2 11 6 20 18 20 26 0 12 6 15 26
10 14 -4 23 -3 20 2 -3 5 3 17 14 27 11 10 17 22 14 26 -3 5 0 9 5 9 17 0 13
-27 -4 -34 -8 -3 -15 -10 -15 -16 0 -7 6 -8 18 -2 9 5 23 8 30 6 7 -1 8 0 2 3
-15 7 -12 39 5 53 9 8 15 8 15 2 0 -6 -6 -12 -12 -15 -10 -4 -10 -7 0 -18 9
-9 12 -10 12 -1 0 7 9 3 20 -8 12 -12 25 -18 30 -15 18 11 10 23 -10 18 -11
-3 -20 -1 -20 4 0 13 29 10 57 -5 30 -16 33 -15 33 10 0 12 3 18 7 15 3 -4 12
1 20 11 14 16 14 16 9 -1 -3 -11 -2 -16 4 -12 6 3 10 1 10 -5 0 -7 -9 -14 -20
-17 -12 -3 -19 -12 -18 -22 4 -24 -126 -65 -153 -48 -11 7 -17 18 -14 25 3 8
0 12 -7 9 -7 -2 -12 -11 -10 -21 2 -9 -2 -16 -8 -16 -5 0 -10 -5 -10 -12 0 -9
3 -9 12 0 7 7 19 12 27 12 22 0 -19 -29 -41 -30 -10 0 -18 -4 -18 -8 0 -15
-83 -48 -87 -35 -3 7 -11 9 -19 6 -19 -7 -18 7 4 24 9 9 6 8 -8 -1 -14 -9 -42
-24 -62 -33 -21 -9 -38 -20 -38 -24 0 -5 11 -4 25 3 18 8 28 8 39 -1 11 -9 27
-7 75 9 33 12 65 19 71 15 6 -3 22 3 37 15 20 16 28 18 35 8 6 -10 8 -9 8 3 0
9 7 20 16 23 12 5 15 2 9 -11 -5 -14 -1 -12 15 5 11 12 31 22 45 22 13 0 25 5
27 12 2 6 20 12 40 12 22 1 34 5 31 12 -2 6 14 19 37 28 44 17 74 21 66 7 -3
-4 6 -6 19 -3 14 2 25 8 25 13 0 5 -8 6 -17 2 -15 -5 -16 -3 -6 7 10 11 18 11
38 2 20 -9 31 -9 48 0 12 7 24 13 27 13 3 1 18 7 34 14 27 11 28 12 12 30 -14
15 -15 19 -3 24 8 3 20 0 26 -6 8 -8 11 -7 11 4 0 8 17 25 38 37 52 30 26 27
-44 -5 -33 -15 -64 -26 -70 -25 -6 1 -11 -5 -11 -13 0 -10 6 -13 17 -10 22 7
35 -21 14 -29 -28 -11 -42 -6 -47 14 -3 11 -1 20 3 20 5 0 7 11 4 25 -3 18 0
25 11 25 9 0 14 -4 10 -9 -3 -5 -1 -12 5 -16 6 -4 10 6 10 24 0 32 14 49 26
30 3 -6 1 -15 -6 -19 -9 -5 -8 -9 3 -13 9 -3 21 1 27 9 7 8 19 14 26 14 8 0
14 4 14 8 0 5 -7 9 -15 9 -8 0 -15 -4 -15 -9 0 -4 -4 -8 -10 -8 -19 0 -10 20
14 31 13 6 31 27 40 46 14 29 19 33 31 23 12 -10 15 -10 15 3 0 8 7 20 15 27
10 9 15 9 15 1 0 -6 -4 -11 -8 -11 -5 0 -9 -7 -9 -15 0 -12 5 -10 19 5 17 18
18 23 6 37 -7 9 -8 14 -3 11 17 -10 33 5 37 32 4 25 27 73 28 56 0 -5 7 -2 16
5 9 7 22 14 28 15 20 3 97 54 102 68 3 7 11 13 19 14 8 1 22 3 30 4 8 1 12 5
9 9 -2 4 4 14 14 21 10 7 22 22 26 33 5 13 10 15 13 8 3 -10 12 -9 35 3 27 14
31 14 42 -1 11 -15 18 -11 64 36 35 36 54 64 58 88 7 35 19 51 38 51 6 0 2 -6
-7 -13 -13 -9 -14 -16 -6 -27 9 -13 10 -13 6 2 -7 19 19 33 27 15 3 -7 3 -1 0
12 -5 17 -3 21 6 16 9 -6 11 -4 5 4 -4 7 1 20 14 32 26 25 33 24 31 -3 -4 -42
0 -59 10 -53 6 4 10 16 9 28 -4 40 1 56 14 53 6 -1 9 -1 5 1 -15 8 -8 25 7 19
16 -6 21 9 6 19 -5 3 -16 -3 -23 -14 -8 -11 -30 -22 -51 -26 -20 -4 -35 -11
-32 -15 3 -5 1 -11 -5 -15 -6 -4 -8 -11 -5 -16 4 -5 1 -9 -5 -9 -14 0 -5 47
19 103 16 38 31 49 31 22 0 -23 17 -18 25 8 12 33 12 50 2 74 -7 15 -5 28 7
44 9 13 16 30 16 38 0 20 -17 2 -23 -24 -3 -14 -5 -11 -6 10 -1 35 18 76 37
83 11 3 12 0 2 -17 -13 -25 4 -96 21 -86 5 4 9 -1 9 -10 0 -9 -4 -14 -9 -10
-5 3 -12 1 -16 -5 -4 -6 -11 -8 -16 -5 -5 4 -9 1 -9 -4 0 -6 5 -11 10 -11 6 0
10 -7 10 -16 0 -8 5 -12 10 -9 6 4 8 11 4 16 -3 6 3 17 15 25 27 19 27 44 1
44 -11 0 -20 2 -20 5 0 13 47 50 59 47 13 -3 13 -1 2 12 -15 18 -29 13 -41
-18 -8 -19 -9 -19 -7 6 1 15 5 24 9 22 5 -3 11 2 14 11 6 13 8 14 15 3 7 -10
9 -9 9 5 0 10 5 15 10 12 15 -9 12 3 -7 24 -9 11 -21 17 -27 14 -6 -3 -7 -2
-3 2 11 12 37 15 37 4 0 -4 10 -13 21 -20 16 -8 23 -8 29 1 5 8 9 5 13 -9 6
-25 -11 -40 -24 -20 -6 10 -9 8 -9 -9 0 -13 4 -20 10 -17 11 7 14 -8 3 -18 -9
-9 -34 13 -27 24 3 5 0 9 -5 9 -13 0 -14 -13 -4 -24 4 -4 6 -24 5 -44 -2 -28
0 -33 7 -22 9 12 11 9 12 -15 l1 -30 9 32 c10 35 24 49 34 33 3 -5 1 -10 -4
-10 -6 0 -11 -5 -11 -11 0 -8 4 -8 14 0 14 12 46 5 46 -10 0 -4 -6 -6 -13 -3
-15 5 -21 -32 -6 -41 16 -10 10 -38 -7 -31 -9 3 -12 2 -9 -5 4 -5 1 -17 -7
-26 -11 -14 -11 -16 1 -9 8 5 17 3 23 -5 7 -11 8 -9 4 5 -7 21 21 59 36 50 4
-3 8 -2 7 3 -3 19 2 34 10 29 5 -3 14 8 21 24 7 16 18 35 26 41 17 14 19 -2 2
-19 -7 -7 -9 -12 -6 -12 3 0 18 17 34 38 15 20 20 31 11 23 -9 -7 -17 -9 -17
-4 0 13 45 54 52 47 3 -3 5 3 4 13 0 10 4 17 11 16 7 -2 10 3 7 11 -3 7 3 19
12 27 15 12 17 12 9 0 -5 -10 -4 -12 4 -7 7 5 9 16 5 28 -4 14 -2 18 5 14 6
-4 11 -4 10 1 -4 23 3 40 16 40 8 0 15 -1 15 -1 0 -1 -4 -15 -9 -31 -7 -26 -6
-31 9 -31 14 0 15 4 7 17 -8 13 -3 26 22 58 18 23 37 42 42 42 5 1 13 2 18 3
5 0 12 4 16 8 4 3 -1 5 -12 4 -10 -2 -21 4 -24 13 -5 12 -11 7 -22 -20 -18
-41 -47 -70 -47 -48 0 11 -2 11 -10 -1 -8 -12 -10 -12 -10 -1 0 16 -28 -19
-50 -62 -7 -15 -19 -26 -25 -23 -8 3 -11 -5 -9 -21 2 -18 -10 -39 -39 -71 -23
-26 -46 -53 -52 -60 -5 -8 -20 -25 -32 -38 -13 -14 -23 -30 -23 -36 0 -7 -5
-6 -15 2 -13 11 -11 17 15 50 22 28 26 39 16 43 -20 8 -29 67 -12 86 7 9 11
23 9 31 -4 13 -3 13 6 0 14 -19 14 -63 1 -55 -16 10 -11 -1 7 -16 9 -8 14 -9
10 -3 -3 6 0 22 7 36 11 20 11 29 2 38 -8 8 -6 9 8 4 17 -6 18 -4 12 19 -5 21
-3 25 9 21 14 -6 20 10 16 41 -1 6 6 1 14 -9 20 -27 19 -6 -2 23 -9 14 -11 21
-5 17 8 -5 10 -2 6 8 -3 9 -2 16 4 16 12 0 24 -29 16 -41 -13 -22 17 -6 32 17
15 22 15 27 3 34 -11 7 -10 10 4 16 25 9 22 34 -4 29 -25 -5 -38 -15 -20 -15
9 0 8 -4 -3 -15 -22 -22 -26 -18 -15 15 6 16 15 28 19 25 5 -3 10 1 13 7 3 10
8 10 21 -2 16 -12 19 -12 27 3 6 9 18 17 28 17 12 0 18 7 17 18 0 9 5 16 12
15 6 -2 12 7 12 19 0 19 -5 17 -38 -20 -21 -23 -42 -42 -46 -42 -5 0 -3 6 3
14 6 7 8 21 5 30 -5 14 -11 12 -35 -15 -29 -32 -35 -27 -22 19 4 18 8 20 14
10 7 -10 9 -9 9 3 0 9 7 16 16 15 9 0 19 6 21 14 4 13 3 13 -6 1 -8 -13 -13
-11 -30 10 -12 13 -20 20 -20 14 3 -17 -21 -68 -39 -81 -9 -7 -26 -11 -37 -9
-11 3 -14 2 -7 -1 6 -3 12 -19 12 -35 0 -16 5 -29 11 -29 5 0 8 4 4 9 -3 5 -1
12 5 16 6 4 8 11 5 16 -4 5 1 9 9 9 18 0 21 -16 6 -25 -6 -3 -10 -15 -10 -26
0 -15 -5 -18 -24 -15 -18 3 -23 1 -19 -10 3 -8 12 -14 20 -14 8 0 12 -4 9 -9
-4 -5 -16 -4 -30 2 -13 7 -22 15 -20 19 2 4 -5 23 -16 42 -11 20 -15 36 -10
36 6 0 16 -11 22 -25 6 -14 15 -25 20 -25 15 0 8 16 -17 40 -28 26 -35 50 -8
29 15 -12 16 -12 10 4 -7 20 8 57 23 57 5 0 7 -7 4 -15 -4 -8 -1 -15 5 -15 6
0 11 11 11 24 0 13 9 34 21 47 l20 24 -11 -23 c-6 -13 -9 -31 -5 -40 3 -9 3
-13 -1 -9 -4 4 -13 -5 -21 -20 -7 -14 -11 -28 -9 -31 8 -8 36 25 28 33 -4 5
-1 5 5 1 9 -5 15 6 19 34 5 33 10 39 24 35 10 -3 21 -1 25 4 4 7 -1 8 -11 4
-12 -4 -15 -3 -10 5 5 8 1 10 -11 5 -15 -5 -14 -2 4 16 14 13 20 28 17 39 -5
14 -4 15 5 2 9 -13 11 -13 11 2 0 9 9 19 19 23 13 4 19 15 19 33 -1 76 1 84
25 78 12 -3 17 -3 11 0 -16 7 -5 46 11 40 7 -2 18 1 25 7 10 9 11 9 6 0 -9
-16 20 -18 29 -2 5 6 11 4 19 -7 11 -15 13 -15 13 -1 0 19 -24 30 -33 15 -4
-7 -9 -6 -14 3 -5 7 -2 22 7 36 10 16 12 23 4 23 -7 0 -10 4 -6 9 3 5 1 12 -4
15 -5 4 -12 -3 -16 -14 -7 -22 -31 -27 -37 -7 -3 6 -5 -3 -5 -21 0 -18 -7 -40
-16 -49 -14 -14 -15 -12 -10 28 3 24 13 54 21 66 12 20 12 24 -3 39 -13 14
-14 19 -3 25 8 6 14 3 16 -6 2 -9 8 -13 12 -10 6 3 5 16 0 29 -10 27 -5 37 16
29 9 -3 14 2 15 13 2 51 17 122 27 128 4 2 5 -16 3 -40 -1 -25 2 -51 8 -58 8
-10 9 -16 1 -19 -6 -3 -5 -4 2 -3 7 1 14 15 16 30 3 21 0 26 -9 20 -9 -5 -10
-2 -6 10 4 10 7 30 7 44 1 25 2 25 14 10 16 -22 23 -23 23 -3 0 8 -5 11 -10 8
-6 -4 -7 5 -3 23 4 16 13 32 19 36 9 6 9 8 -1 8 -8 0 -10 8 -7 23 4 12 1 35
-4 50 -9 22 -8 29 4 33 8 4 12 10 9 15 -3 5 -9 7 -13 5 -4 -3 -8 1 -8 8 0 8 7
12 15 8 10 -3 13 -1 8 6 -4 7 -2 12 4 12 7 0 10 -7 7 -15 -4 -8 -2 -17 4 -20
5 -4 7 -11 4 -16 -4 -5 1 -16 9 -25 15 -14 16 -14 16 0 0 9 -4 16 -10 16 -5 0
-7 7 -4 15 4 8 1 15 -5 15 -6 0 -8 7 -5 15 4 8 11 12 18 8 6 -4 5 1 -2 10 -8
9 -11 21 -7 26 3 6 2 19 -3 28 -11 19 13 93 29 93 5 0 9 5 9 11 0 6 -7 9 -15
5 -17 -6 -20 5 -5 20 10 10 21 45 23 75 1 9 12 16 27 17 20 2 31 -7 53 -45 22
-36 31 -43 38 -32 6 10 3 19 -10 30 -12 9 -18 25 -16 42 4 32 -3 35 -13 6 -8
-20 -9 -19 -25 12 -10 20 -17 27 -17 17 0 -10 -4 -18 -9 -18 -5 0 -8 11 -8 24
0 15 5 23 15 22 8 0 17 6 19 14 4 13 3 13 -6 0 -9 -13 -11 -13 -11 3 0 19 -15
23 -25 7 -4 -6 -11 -8 -16 -5 -11 8 -12 62 -1 69 10 6 9 42 0 52 -4 3 -11 -14
-17 -38 -9 -36 -10 -37 -7 -8 5 44 9 62 20 78 5 8 3 12 -6 10 -7 -2 -13 6 -13
16 0 11 -6 21 -13 24 -9 3 -8 8 6 20 10 10 21 26 25 37 7 19 6 19 -7 3 -7 -10
-16 -18 -18 -18 -3 0 -5 31 -4 69 1 41 -3 67 -8 63 -5 -3 -7 2 -3 12 4 10 3
15 -3 11 -6 -3 -10 -2 -10 3 0 10 29 26 42 24 3 -1 9 5 12 13 6 17 -9 20 -19
4 -4 -6 -14 -8 -22 -5 -8 3 -11 1 -8 -4 3 -6 1 -10 -4 -10 -6 0 -11 5 -11 12
0 6 -7 20 -17 30 -9 10 -11 18 -6 18 6 0 16 -7 23 -15 16 -19 37 -19 37 0 0
11 -4 12 -14 4 -9 -8 -13 -8 -13 -1 0 6 -7 18 -16 27 -10 9 -18 33 -20 53 -1
20 0 29 3 20 2 -10 9 -18 15 -18 6 0 6 -6 -2 -15 -17 -20 -6 -19 15 1 13 14
14 19 3 25 -11 7 -11 9 1 9 11 0 11 3 1 15 -7 9 -10 18 -7 22 4 3 2 12 -4 19
-6 8 -12 30 -14 51 -1 21 -9 59 -18 85 -11 34 -13 49 -5 54 7 5 8 2 3 -6 -6
-9 -4 -11 4 -5 9 5 10 10 2 18 -6 6 -11 22 -11 37 0 14 4 20 8 14 4 -6 16 -14
27 -17 15 -5 12 0 -10 20 -28 25 -43 63 -24 63 5 0 9 7 9 16 0 8 -4 12 -10 9
-5 -3 -10 1 -10 9 0 9 5 15 11 13 6 -1 14 4 16 11 3 8 -1 10 -11 6 -17 -6 -23
11 -7 20 12 8 37 -24 45 -58 4 -17 10 -26 14 -20 4 5 16 16 26 24 18 14 19 13
13 -3 -4 -11 -3 -16 3 -12 10 6 14 35 5 35 -3 0 -17 -7 -30 -16 -24 -16 -25
-15 -26 5 -1 11 -2 26 -3 33 -1 6 5 13 13 16 10 3 11 -2 6 -18 -5 -15 -4 -20
4 -16 6 4 11 14 11 22 0 8 5 14 10 14 6 0 10 8 10 17 0 13 -3 14 -12 5 -17
-17 -24 -15 -43 15 -15 22 -15 25 -2 20 9 -3 18 1 21 9 10 26 7 34 -11 33 -11
0 -13 -3 -5 -6 17 -7 15 -23 -3 -23 -17 0 -20 27 -5 50 9 13 11 13 20 0 5 -8
10 -10 10 -5 0 11 -43 61 -58 66 -5 2 -12 15 -16 29 -3 14 -3 19 0 12 3 -6 10
-10 15 -6 5 3 9 -2 9 -10 0 -9 4 -16 9 -16 5 0 7 9 4 20 -3 11 -9 20 -14 20
-5 0 -9 5 -9 11 0 8 4 9 13 0 8 -6 17 -7 21 -3 4 4 14 -2 22 -12 19 -27 18
-12 -3 27 -14 28 -14 30 0 19 13 -11 15 -10 10 7 -3 12 -10 18 -17 14 -6 -4
-5 1 3 10 12 15 11 17 -5 17 -11 0 -25 10 -33 22 l-14 22 -8 -23 c-6 -14 -5
-29 1 -39 9 -14 10 -13 5 5 -3 12 -1 25 6 29 7 4 9 3 5 -4 -3 -6 2 -16 11 -22
13 -8 15 -13 5 -17 -10 -4 -10 -8 -1 -19 14 -17 -2 -19 -20 -1 -8 7 -11 7 -8
1 4 -7 0 -17 -8 -24 -13 -11 -15 -8 -15 14 0 15 -4 25 -9 21 -5 -3 -13 -1 -16
5 -4 6 -1 9 6 8 6 -2 14 3 17 11 3 9 0 11 -7 6 -8 -4 -14 1 -18 14 -3 12 -10
21 -15 21 -5 0 -6 5 -2 12 4 6 3 8 -4 4 -15 -9 -19 1 -27 59 -6 45 -5 48 9 31
8 -10 19 -15 25 -12 5 4 12 -3 16 -14 6 -20 25 -28 25 -12 0 10 -32 41 -40 39
-17 -6 -47 32 -46 59 0 16 -4 36 -8 43 -13 21 3 26 19 5 19 -25 19 -14 0 22
-22 42 0 58 29 21 20 -25 24 -26 30 -12 6 17 -1 30 -34 67 -33 38 -40 48 -40
63 0 10 -5 13 -12 9 -8 -5 -9 -2 -5 10 4 10 2 16 -6 15 -24 -3 -38 1 -32 10 3
5 0 13 -6 17 -9 5 -10 -4 -4 -32 8 -45 12 -54 26 -54 6 0 5 8 -1 21 -22 41 -2
29 38 -23 34 -44 38 -54 24 -57 -9 -2 -22 -7 -28 -12 -8 -7 -14 -1 -18 16 -4
14 -11 25 -17 25 -6 0 -7 5 -3 12 4 7 3 8 -4 4 -7 -4 -14 3 -18 18 -3 14 -12
30 -20 37 -10 8 -9 2 3 -22 9 -17 16 -44 17 -59 1 -16 6 -26 13 -23 6 2 14 -5
18 -16 3 -12 11 -21 16 -21 5 0 1 -12 -8 -27 -13 -19 -14 -25 -4 -18 11 6 13
4 8 -9 -4 -9 -3 -15 2 -12 8 5 22 -66 20 -103 0 -12 -2 -11 -9 4 -7 17 -9 14
-9 -14 -1 -26 2 -32 15 -27 10 4 14 2 11 -6 -2 -7 -9 -12 -15 -11 -6 2 -9 -4
-6 -12 4 -8 2 -15 -4 -15 -5 0 -12 9 -15 20 -5 21 -47 29 -47 9 0 -5 4 -7 10
-4 5 3 7 0 4 -9 -3 -8 -2 -21 2 -28 10 -15 14 -38 8 -38 -8 0 -27 54 -29 82
-1 15 2 25 6 22 5 -3 9 0 9 5 0 6 5 11 11 11 5 0 7 -4 4 -10 -3 -5 -1 -10 4
-10 19 0 12 22 -8 27 -15 4 -18 11 -15 31 3 14 7 28 9 31 1 3 -8 7 -22 7 -13
1 -27 5 -30 8 -11 10 20 37 36 31 8 -3 12 -3 9 0 -4 4 -3 18 2 31 7 18 6 22
-5 18 -8 -3 -13 -11 -12 -17 1 -7 -6 -11 -15 -9 -9 1 -19 -2 -23 -8 -4 -6 1
-7 12 -3 16 6 16 5 4 -10 -7 -9 -17 -17 -21 -17 -15 0 -21 33 -8 42 10 6 10 8
-1 8 -8 0 -11 6 -7 16 3 8 2 12 -4 9 -6 -3 -11 -23 -11 -43 -1 -22 -3 -28 -6
-15 -3 15 -9 20 -21 17 -15 -5 -15 -4 1 9 10 8 17 23 15 34 -2 10 2 17 10 15
6 -1 12 2 12 8 0 15 -16 12 -30 -5 -7 -8 -17 -12 -22 -9 -6 4 -5 9 2 14 9 6 7
11 -9 19 -11 7 -21 8 -22 4 0 -4 -4 1 -8 12 -5 12 -2 30 8 47 10 18 12 31 6
36 -5 4 -15 16 -21 27 -6 11 -17 20 -25 20 -8 1 -13 6 -11 13 1 7 -2 12 -8 12
-13 0 -13 -6 1 -32 6 -11 8 -22 6 -25 -8 -8 -44 71 -39 86 3 9 7 9 16 -2 14
-18 63 -30 71 -17 7 12 32 3 39 -15 3 -9 0 -12 -8 -9 -7 3 -16 -2 -20 -11 -4
-13 -1 -15 13 -10 11 3 22 1 26 -5 3 -6 11 -8 16 -5 5 4 3 15 -6 28 -16 23
-20 41 -7 33 5 -3 9 1 9 9 0 8 -3 13 -5 10 -3 -3 -11 3 -19 13 -13 15 -13 15
-8 -8 6 -24 5 -24 -9 -6 -14 17 -14 20 2 32 16 13 16 13 0 14 -10 0 -18 -5
-18 -11 0 -5 -4 -7 -10 -4 -5 3 -10 12 -10 20 0 8 -12 27 -26 42 l-26 28 13
-28 c7 -15 16 -27 21 -27 5 0 7 -4 3 -10 -3 -5 3 -18 15 -30 11 -11 20 -24 20
-30 0 -17 -58 -11 -68 7 -6 9 -16 14 -25 10 -12 -4 -24 11 -49 63 -18 38 -36
69 -40 70 -12 0 -9 -28 2 -35 8 -5 7 -11 -1 -21 -9 -11 -8 -14 8 -14 27 0 48
-46 26 -54 -16 -6 -33 9 -33 29 0 5 -5 4 -12 -3 -13 -13 -29 -16 -26 -4 1 4
-2 18 -6 31 -5 15 -4 26 3 30 16 10 33 71 20 71 -6 0 -8 4 -5 9 4 5 -2 7 -13
4 -15 -4 -18 0 -16 21 2 14 -1 26 -6 26 -5 0 -9 -4 -9 -10 0 -12 -26 -14 -33
-2 -2 4 -2 1 -1 -5 2 -7 -1 -13 -5 -13 -5 0 -4 -11 2 -24 7 -13 15 -22 19 -20
4 2 11 -4 17 -13 10 -17 10 -17 11 -1 0 10 -9 22 -20 28 -20 11 -19 30 1 30 6
0 8 -4 5 -9 -3 -4 6 -13 19 -19 26 -12 32 -27 15 -37 -6 -4 -7 -11 -4 -17 4
-7 2 -8 -4 -4 -7 4 -12 2 -12 -5 0 -8 -4 -8 -15 1 -8 7 -13 16 -10 20 3 5 -4
11 -15 15 -11 4 -18 11 -15 16 4 5 1 9 -4 9 -6 0 -11 5 -11 11 0 7 -8 18 -17
25 -16 12 -16 15 -3 23 8 6 11 13 7 18 -5 4 -12 1 -17 -7 -8 -12 -13 -11 -30
8 -11 12 -26 22 -32 22 -6 0 -8 3 -5 7 4 3 -1 15 -10 26 -10 11 -12 17 -6 13
9 -5 12 0 11 18 -2 21 -5 23 -21 14 -16 -8 -17 -7 -7 11 6 12 16 21 23 21 7 0
4 5 -6 11 -9 6 -15 14 -12 19 3 5 -4 14 -16 21 -20 10 -20 12 -6 21 21 11 22
37 3 63 -13 19 -16 27 -16 42 0 4 -6 1 -12 -5 -10 -10 -10 -15 1 -21 9 -6 11
-16 7 -27 -7 -18 -8 -18 -22 0 -14 20 -14 20 -14 0 0 -16 -5 -14 -30 13 -16
17 -35 34 -42 37 -11 5 -11 7 0 12 10 5 10 9 1 20 -9 11 -7 14 12 14 19 0 21
2 9 10 -9 5 -19 5 -24 0 -4 -4 -16 -6 -25 -3 -14 6 -14 4 2 -14 17 -19 17 -21
-2 -44 -16 -19 -22 -22 -32 -11 -7 6 -14 24 -15 40 -3 49 -4 51 -19 46 -8 -4
-15 -2 -15 4 0 5 -11 10 -24 10 -22 0 -23 -2 -10 -15 7 -8 14 -23 14 -34 0
-12 5 -17 10 -14 6 4 8 15 5 26 -5 14 -2 17 9 13 16 -6 30 -34 17 -34 -13 0
-9 -29 6 -34 7 -3 13 -11 13 -17 0 -7 -10 -4 -22 8 -30 27 -64 37 -74 22 -4
-7 -3 -9 3 -6 5 3 10 1 10 -6 0 -7 4 -21 9 -32 7 -17 6 -18 -8 -5 -9 8 -14 18
-12 22 2 4 -6 14 -18 22 -21 15 -21 16 -3 17 18 0 18 1 -2 9 -13 5 -23 12 -23
15 0 4 5 3 10 0 6 -3 10 -1 10 6 0 6 -8 9 -20 6 -13 -3 -20 0 -20 9 0 8 -6 14
-12 14 -9 0 -8 4 2 11 12 8 10 9 -7 4 -13 -4 -23 -2 -23 4 0 6 -6 8 -13 5 -12
-4 -65 42 -59 52 1 2 0 4 -3 4 -3 0 -10 0 -16 0 -8 0 -7 -5 1 -15 11 -13 10
-14 -4 -9 -11 4 -16 14 -13 25 3 11 1 22 -4 25 -5 3 -9 14 -9 25 0 11 -4 17
-10 14 -5 -3 -10 1 -10 9 0 8 -3 17 -7 19 -5 3 -9 -15 -10 -39 -1 -25 2 -44 8
-44 6 0 8 9 4 20 -3 11 -2 20 3 20 4 0 8 -13 8 -29 0 -26 -2 -28 -18 -20 -11
6 -18 6 -18 0 0 -5 7 -12 16 -15 9 -4 15 -9 12 -11 -3 -3 -31 11 -62 31 -31
21 -54 39 -52 42 3 2 18 -5 34 -17 31 -21 52 -27 52 -13 0 4 -19 15 -41 26
-31 14 -38 21 -29 30 9 8 16 5 27 -11 15 -22 51 -34 38 -13 -4 6 -11 7 -17 4
-5 -4 -3 5 7 19 10 17 13 27 6 32 -7 3 -11 -3 -12 -17 0 -22 -1 -22 -8 -3 -9
23 -3 47 10 39 5 -3 12 2 15 11 6 13 8 14 15 3 7 -10 9 -10 9 2 0 13 1 13 11
0 8 -11 12 -12 16 -2 2 6 9 10 13 7 5 -3 11 -1 15 5 3 5 1 10 -5 10 -6 0 -8 5
-4 11 4 8 0 8 -15 0 -16 -9 -21 -9 -21 1 0 7 -12 21 -26 32 -26 18 -26 18 -19
-3 4 -12 2 -21 -4 -21 -6 0 -11 9 -11 19 0 11 -5 23 -11 26 -7 5 -9 -3 -6 -24
6 -35 1 -37 -38 -17 -15 8 -34 12 -42 9 -8 -3 -13 0 -11 8 2 7 -3 14 -9 15 -7
1 -16 2 -20 3 -4 0 -2 6 5 13 9 9 8 16 -5 30 -9 10 -21 18 -26 18 -6 0 -2 -6
9 -14 16 -13 17 -18 6 -35 -10 -18 -10 -21 4 -21 9 0 14 -6 11 -12 -3 -9 7
-14 27 -15 17 -2 45 -10 63 -20 27 -14 32 -23 31 -50 -1 -27 -4 -31 -15 -21
-9 7 -10 15 -4 21 11 11 4 37 -11 37 -5 0 -6 -10 -3 -22 7 -22 7 -22 -8 -3 -8
10 -12 26 -9 34 4 11 1 13 -12 8 -10 -4 -24 -7 -32 -7 -8 0 -14 -7 -14 -15 0
-12 4 -13 19 -6 14 8 22 7 31 -4 13 -15 4 -39 -11 -29 -5 3 -7 9 -4 14 2 4 -9
7 -25 5 -33 -2 -54 -15 -27 -15 9 0 17 -4 17 -10 0 -6 -10 -5 -26 2 l-25 12
21 16 c16 12 18 18 8 28 -17 17 -29 15 -22 -3 7 -18 -12 -20 -19 -2 -4 9 -8 8
-16 -3 -9 -13 -11 -13 -11 1 0 9 -12 21 -26 27 -14 7 -22 17 -19 22 3 6 1 10
-4 10 -6 0 -11 -5 -11 -12 0 -6 -8 -3 -20 7 -11 10 -17 22 -14 26 5 9 -17 13
-43 10 -18 -2 -16 14 2 29 8 7 15 17 15 22 0 5 -10 -3 -23 -17 -19 -23 -26
-25 -50 -16 -15 6 -27 18 -28 28 0 10 -3 13 -5 6 -6 -13 -34 -6 -34 9 0 5 4 7
8 4 5 -3 6 8 4 25 -5 32 -1 34 29 19 10 -6 19 -7 19 -2 0 5 -14 15 -30 22 -17
7 -35 20 -40 29 -7 12 -9 12 -10 2 0 -9 -4 -10 -12 -4 -7 6 -21 9 -30 8 -10
-2 -20 5 -23 16 -4 10 -11 19 -17 19 -6 0 -6 -6 2 -15 16 -20 -1 -20 -39 0
-16 8 -32 11 -36 7 -5 -4 -5 -1 0 7 6 10 2 12 -16 6 -16 -4 -19 -3 -11 3 10 7
7 13 -12 25 -14 10 -33 17 -43 17 -13 0 -10 -5 12 -20 17 -11 26 -20 21 -20
-5 0 -24 11 -42 25 -19 15 -35 21 -39 15 -3 -5 -2 -10 3 -10 6 0 8 -10 4 -22
-3 -14 -2 -19 7 -14 6 4 18 0 27 -8 8 -9 24 -16 35 -16 12 0 17 -4 14 -11 -4
-6 -14 -8 -22 -5 -11 5 -13 2 -9 -9 3 -9 2 -13 -4 -10 -6 3 -10 13 -10 21 0 8
-4 13 -9 9 -5 -3 -12 -1 -16 5 -4 6 -11 8 -16 4 -5 -3 -16 -1 -23 5 -10 9 -15
8 -20 -4 -5 -15 -9 -14 -35 4 -35 25 -41 26 -41 5 0 -8 -5 -12 -10 -9 -6 4 -8
15 -5 25 3 10 1 21 -5 25 -6 3 -10 -3 -10 -14 0 -24 -8 -26 -32 -7 -10 7 -14
17 -9 22 5 5 11 16 14 24 2 8 3 3 1 -12 -4 -33 0 -34 27 -7 17 17 18 23 8 37
-11 14 -11 15 0 5 7 -6 19 -9 26 -7 6 3 12 -2 12 -10 0 -8 -4 -13 -8 -10 -4 2
-10 0 -14 -6 -3 -5 1 -10 9 -10 9 0 16 -6 16 -12 0 -9 3 -9 8 -2 4 5 17 10 30
10 l23 0 -23 -18 c-23 -17 -23 -17 -1 -12 24 7 38 30 23 39 -6 4 -10 11 -10
17 0 7 5 7 14 -1 10 -9 15 -8 19 3 5 12 12 13 39 5 18 -6 41 -15 50 -20 10 -5
35 -11 55 -13 35 -4 36 -4 13 7 -14 6 -28 16 -32 22 -5 6 -8 4 -8 -5 0 -9 -3
-11 -8 -4 -10 15 -44 27 -69 25 -13 -1 -23 3 -23 11 0 8 -4 6 -11 -5 -7 -12
-17 -15 -36 -11 -21 6 -25 4 -21 -8 4 -8 0 -15 -7 -15 -8 0 -13 8 -12 18 1 10
4 16 8 13 4 -2 10 3 13 12 3 8 2 12 -4 9 -6 -3 -10 3 -10 14 0 26 -65 48 -105
34 l-28 -9 42 -14 c22 -7 41 -17 41 -21 0 -9 -20 -6 -39 5 -11 7 -13 5 -7 -9
5 -15 4 -16 -9 -5 -8 7 -15 9 -15 6 0 -4 -9 -2 -20 4 -15 8 -21 7 -29 -8 -10
-20 -3 -38 16 -37 18 0 28 15 10 15 -9 0 -17 4 -17 9 0 5 9 7 20 4 12 -3 20
-14 20 -27 0 -30 -10 -39 -27 -24 -10 8 -12 8 -8 -3 4 -10 -3 -14 -20 -14 -17
0 -25 5 -25 18 0 9 -7 17 -15 17 -11 0 -12 5 -5 26 12 32 12 34 0 34 -5 0 -10
-9 -10 -19 0 -11 -4 -23 -10 -26 -5 -3 -10 -2 -10 4 0 10 -50 8 -91 -4 -18 -5
-21 -4 -9 4 13 9 13 11 -2 11 -10 0 -18 -4 -18 -10 0 -5 -5 -10 -11 -10 -5 0
-7 5 -3 12 5 8 2 9 -9 5 -10 -3 -17 -2 -17 4 0 6 -4 7 -10 4 -8 -5 -13 5 -12
25 0 3 -13 6 -28 7 -22 2 -28 -2 -23 -12 7 -20 -14 -19 -25 1 -8 14 -11 14
-26 -7 -14 -21 -21 -19 -17 4 1 4 -10 5 -24 3 -31 -6 -40 7 -19 28 8 9 11 16
6 16 -6 0 -17 3 -26 6 -11 4 -16 1 -16 -11 0 -9 5 -13 10 -10 20 13 9 -12 -15
-33 -30 -27 -35 -27 -36 -4 -1 11 -4 9 -9 -8 -7 -21 -8 -22 -9 -5 -1 15 -3 17
-10 7 -9 -15 -42 -13 -53 3 -4 5 -2 15 3 21 14 17 -7 28 -46 26 -23 -2 -26 0
-15 8 8 5 10 10 5 10 -6 0 -16 -5 -22 -11 -11 -11 -24 -14 -74 -18 -11 -1 -16
-10 -15 -28 1 -24 5 -27 34 -28 18 0 36 3 39 9 3 5 1 6 -4 3 -6 -4 -16 -1 -21
6 -9 10 -3 13 24 14 23 0 38 -5 41 -14 5 -11 8 -12 14 -2 6 10 11 10 23 0 25
-21 11 -29 -49 -30 -31 0 -60 -3 -65 -6 -6 -3 -10 -1 -10 5 0 8 -6 7 -22 -1
-18 -10 -20 -9 -15 5 3 8 2 18 -4 21 -5 4 -7 11 -4 16 4 5 -1 9 -10 9 -10 0
-13 -5 -9 -12 4 -6 3 -8 -3 -5 -5 3 -26 2 -46 -3 -20 -4 -39 -4 -42 0 -6 10
42 23 55 15 5 -3 11 4 15 15 3 11 11 20 16 20 6 0 7 -5 3 -11 -4 -8 0 -8 15 0
27 15 27 36 1 38 -11 1 -20 -3 -20 -8 0 -6 -5 -7 -10 -4 -6 4 -8 11 -5 16 4 5
4 9 0 9 -3 0 -8 -6 -11 -14z m-118 -1430 c-5 -20 -3 -23 14 -19 15 4 20 0 20
-15 0 -19 18 -32 46 -32 8 0 11 7 8 18 -5 13 -4 14 4 3 5 -7 14 -11 20 -7 6 3
25 -7 42 -23 23 -21 30 -34 26 -49 -4 -12 -1 -22 8 -25 10 -4 12 0 9 14 -3 11
0 19 6 19 7 0 10 4 7 9 -4 5 0 12 6 14 10 4 9 8 -2 16 -8 6 -13 11 -10 12 3 0
15 2 27 5 12 2 25 -1 28 -6 7 -12 25 -4 25 11 0 5 -7 9 -15 9 -8 0 -15 5 -15
10 0 14 13 13 35 -3 12 -10 14 -16 7 -21 -7 -4 -12 -12 -12 -18 0 -6 7 -5 17
3 15 12 16 12 11 -2 -4 -11 3 -25 18 -38 13 -11 24 -26 24 -31 0 -17 46 -81
53 -74 3 4 -1 13 -9 21 -8 9 -13 17 -10 20 5 5 107 -65 118 -81 6 -8 8 -7 8 1
0 6 -7 19 -16 27 -8 9 -13 19 -11 23 3 5 -6 9 -19 9 -24 2 -117 84 -96 84 6 0
16 -8 21 -17 6 -10 11 -14 11 -9 0 6 7 1 15 -10 14 -19 14 -19 15 1 0 27 -15
49 -29 41 -10 -7 -15 8 -14 42 1 6 -5 12 -12 12 -6 0 -20 9 -30 20 -16 18 -17
20 -2 21 18 2 34 5 42 9 29 15 69 -27 72 -77 1 -21 -2 -31 -9 -27 -6 4 -6 -1
1 -15 17 -30 20 -26 17 18 -2 30 0 38 10 34 17 -6 20 42 4 52 -17 10 -11 28 6
21 23 -9 56 3 48 17 -4 7 2 3 13 -8 20 -20 20 -20 -13 -23 -31 -3 -32 -5 -22
-28 6 -13 18 -24 26 -24 11 0 12 3 4 13 -9 10 -4 13 19 15 16 1 29 -3 29 -9 0
-6 -6 -9 -13 -6 -10 4 -14 -7 -14 -39 -1 -24 3 -41 8 -38 5 3 9 12 9 20 0 13
3 13 17 -2 12 -12 18 -13 21 -4 2 6 -1 17 -7 23 -6 6 -11 20 -11 31 0 33 20 4
40 -56 18 -57 17 -86 -5 -68 -6 5 -15 7 -18 3 -10 -10 -8 -33 3 -33 5 0 6 7 3
17 -5 12 -3 14 8 7 8 -5 16 -9 19 -9 21 -2 40 -26 42 -54 2 -32 3 -32 19 -12
9 11 20 17 24 13 4 -4 -5 15 -19 42 -36 68 -34 83 13 77 7 -2 10 3 6 9 -4 6 1
18 11 26 14 10 15 14 4 12 -8 -2 -14 3 -12 10 1 8 -2 11 -8 7 -5 -3 -10 -3
-11 2 -2 22 -8 45 -13 51 -3 3 -4 -15 -2 -39 6 -55 -8 -85 -18 -39 -4 21 -11
30 -19 27 -8 -3 -14 5 -15 21 -1 14 -7 29 -13 33 -8 4 -8 12 -2 24 12 20 23
21 34 3 7 -10 9 -10 9 2 0 13 1 13 10 0 5 -8 15 -15 22 -16 27 -2 50 -17 38
-24 -8 -5 -7 -9 4 -13 12 -5 16 0 16 15 0 12 3 19 6 15 3 -3 5 -8 4 -12 0 -3
6 -13 15 -21 17 -17 21 -39 5 -29 -6 4 -7 -1 -3 -11 4 -11 -1 -22 -12 -30 -20
-15 -31 -99 -15 -109 6 -3 10 -18 10 -32 0 -18 4 -24 15 -20 8 4 17 2 20 -3 4
-6 12 -10 18 -10 7 0 4 5 -5 11 -10 5 -18 19 -18 29 0 10 -9 35 -21 55 -17 28
-19 38 -9 50 7 8 16 13 20 10 5 -3 10 0 12 7 3 8 7 6 11 -5 3 -9 2 -17 -3 -17
-6 0 -10 -5 -10 -11 0 -5 4 -8 9 -4 5 3 12 1 16 -5 3 -5 1 -10 -4 -10 -17 0
-13 -27 5 -34 24 -9 36 3 28 27 -4 12 -7 30 -6 40 0 9 -4 17 -9 17 -6 0 -7 5
-4 10 4 6 11 7 17 4 7 -4 8 -2 4 4 -4 6 -8 26 -9 45 -3 31 -2 33 26 29 22 -4
28 -1 25 9 -3 8 -12 13 -21 13 -9 -1 -14 3 -11 8 3 5 12 7 19 4 8 -3 16 0 19
7 2 7 5 2 5 -10 1 -13 7 -23 16 -23 17 0 18 -5 6 -29 -6 -10 -6 -23 0 -32 7
-11 9 -9 9 8 0 32 10 53 26 53 8 0 14 6 14 13 1 6 16 -5 35 -27 19 -21 32 -43
28 -49 -4 -6 -1 -7 7 -2 10 6 12 4 7 -8 -4 -11 1 -20 16 -27 19 -10 20 -9 5 3
-12 9 -14 17 -7 28 8 11 12 11 16 2 2 -7 11 -13 19 -13 11 0 12 -5 5 -18 -6
-11 -6 -24 0 -33 7 -11 9 -9 9 9 0 31 18 28 26 -5 4 -16 12 -33 20 -39 7 -5
16 -23 20 -40 l7 -29 -22 19 c-18 17 -21 17 -15 3 4 -10 1 -17 -6 -17 -8 0
-11 9 -8 25 3 14 1 25 -3 25 -5 0 -10 -10 -10 -22 -2 -30 -2 -30 7 -53 7 -17
5 -18 -7 -8 -12 10 -15 8 -15 -7 0 -10 4 -17 7 -14 9 5 59 -58 59 -74 0 -6 -6
-13 -12 -16 -7 -3 -1 -3 15 0 17 4 27 2 27 -6 0 -6 -4 -9 -9 -6 -12 8 -9 -25
4 -42 6 -8 21 -25 35 -38 l24 -25 16 21 c10 13 19 17 25 11 7 -7 10 -1 11 17
0 15 3 34 6 42 2 8 3 11 0 7 -2 -4 -10 0 -17 10 -20 26 -28 14 -34 -51 -1 -5
-8 -3 -16 4 -17 14 -19 43 -5 71 8 15 7 19 -5 19 -8 0 -15 9 -15 20 0 22 16
27 23 8 4 -10 7 -10 18 0 16 15 29 16 29 1 0 -5 -4 -8 -9 -5 -14 9 -23 -26
-11 -38 8 -8 9 -6 4 8 -5 13 -4 17 3 13 6 -4 14 0 17 9 5 13 9 14 21 4 8 -7
12 -16 9 -21 -3 -5 0 -8 7 -7 8 2 13 -7 14 -19 0 -12 6 -28 13 -35 13 -13 16
-29 5 -25 -13 4 -15 -7 -8 -47 5 -25 14 -40 26 -43 21 -6 34 -33 16 -33 -8 0
-11 -14 -8 -46 2 -30 0 -44 -7 -40 -5 3 -13 -1 -16 -10 -5 -13 -1 -15 17 -10
18 4 23 1 23 -14 0 -11 -3 -20 -6 -20 -3 0 -5 -15 -5 -32 3 -51 4 -56 18 -55
41 1 47 -3 36 -22 -17 -27 -5 -49 23 -44 20 4 23 9 21 51 -1 26 -2 49 -3 52
-1 3 -2 9 -1 14 1 4 -3 14 -9 21 -9 11 -7 12 9 8 20 -5 23 -10 25 -43 1 -8 8
-15 16 -15 9 0 20 -17 27 -45 l12 -45 -5 47 c-6 56 1 75 22 57 16 -13 19 -39
3 -39 -5 0 -8 4 -4 9 3 5 1 12 -4 16 -16 9 -3 -39 14 -51 16 -12 31 -89 15
-79 -6 4 -10 1 -10 -5 0 -8 -6 -8 -20 0 -29 15 -25 -5 5 -24 19 -12 25 -13 26
-4 0 10 2 10 6 1 2 -7 13 -13 23 -13 11 0 20 -10 24 -24 3 -13 9 -32 12 -43 5
-15 4 -15 -5 -3 -9 13 -11 13 -11 -2 0 -14 -6 -16 -32 -11 -30 6 -32 5 -20
-10 10 -12 20 -14 37 -7 18 7 24 4 33 -15 7 -15 8 -35 2 -54 -5 -18 -5 -31 0
-31 6 0 5 -11 0 -26 -15 -38 -13 -46 9 -35 16 9 18 7 18 -17 0 -15 -2 -21 -4
-14 -3 6 -11 12 -19 12 -8 0 -14 -6 -15 -12 -4 -61 -4 -166 1 -166 3 1 13 -2
23 -7 14 -6 17 -14 11 -39 -3 -17 -11 -37 -16 -43 -7 -9 -7 -13 2 -13 7 0 10
-6 7 -13 -3 -8 -1 -20 5 -28 7 -10 8 -5 5 19 -2 23 0 32 11 32 9 0 12 -6 8
-16 -3 -8 1 -22 8 -30 13 -12 14 -10 9 20 -5 34 10 58 21 30 4 -10 2 -13 -7
-8 -9 6 -9 4 1 -8 14 -18 7 -68 -10 -68 -7 0 -6 -5 1 -14 6 -7 9 -21 5 -30 -4
-11 -1 -16 10 -16 9 0 16 -2 16 -4 0 -2 3 -13 6 -23 6 -16 5 -16 -10 2 l-18
20 8 -20 c3 -11 6 -28 6 -37 -1 -21 14 -24 21 -5 3 6 6 -3 7 -20 3 -48 4 -50
14 -60 5 -4 6 -3 2 4 -4 8 1 11 14 10 20 -1 29 -17 10 -17 -5 0 -10 -5 -10
-11 0 -5 4 -8 9 -5 4 3 7 -19 6 -50 -1 -30 2 -57 7 -60 4 -3 8 5 9 18 0 13 3
34 5 48 3 14 6 43 7 64 1 22 7 41 14 43 7 3 9 -3 6 -16 -3 -12 -1 -21 6 -21 6
0 11 -8 11 -17 0 -14 -2 -15 -9 -5 -6 10 -10 9 -14 -7 -3 -12 -1 -24 4 -27 5
-3 9 -16 9 -29 0 -19 -4 -23 -17 -18 -16 6 -17 5 -3 -12 12 -15 12 -17 1 -10
-11 6 -13 2 -8 -22 3 -17 3 -33 0 -36 -8 -9 -33 19 -33 37 0 9 -8 16 -17 16
-11 0 -14 -3 -7 -8 17 -11 22 -35 12 -54 -5 -11 -5 -18 1 -18 5 0 12 8 14 18
3 11 5 9 6 -8 1 -20 3 -22 11 -10 8 11 9 7 4 -14 -4 -18 -3 -27 3 -23 6 4 10
-6 9 -23 -1 -31 -11 -40 -19 -17 -2 6 -8 8 -13 4 -5 -5 -1 -15 10 -23 18 -13
18 -14 2 -14 -13 0 -16 -5 -11 -19 4 -14 1 -19 -9 -17 -19 3 -34 16 -18 16 7
0 12 15 12 37 0 20 -3 33 -7 29 -7 -6 -10 -23 -17 -76 -2 -14 -5 -26 -6 -27
-12 -13 16 -87 30 -78 3 2 4 -13 2 -33 -5 -36 -22 -62 -41 -62 -6 0 -11 -5
-11 -10 0 -12 -22 -9 -32 5 -11 14 -10 27 1 21 5 -4 7 4 4 16 l-5 23 21 -24
c25 -27 28 -26 41 18 6 22 6 29 -2 25 -7 -5 -9 0 -6 14 4 12 2 23 -3 23 -5 1
-14 2 -21 3 -7 0 -15 16 -19 34 -4 22 -3 31 5 30 12 -3 16 3 16 23 0 5 -4 7
-10 4 -6 -4 -8 7 -5 27 5 28 4 30 -4 11 -11 -25 -19 -27 -40 -14 -9 6 -10 11
-2 15 15 10 14 29 -1 21 -7 -4 -6 -1 2 7 16 14 25 78 11 78 -5 0 -7 19 -4 43
3 23 5 52 4 64 0 16 4 21 14 17 15 -6 19 -18 15 -39 -1 -5 4 -5 11 2 9 9 9 16
1 26 -7 8 -8 18 -4 22 4 5 1 5 -6 1 -7 -4 -20 -2 -29 6 -11 8 -14 8 -10 1 4
-7 0 -16 -10 -22 -11 -6 -13 -11 -5 -11 9 0 10 -5 4 -17 -5 -9 -7 -35 -5 -57
5 -34 3 -39 -8 -28 -7 6 -17 12 -23 12 -5 0 1 -8 12 -19 27 -22 28 -57 5 -84
-10 -11 -13 -17 -7 -14 7 4 14 -5 18 -24 9 -47 7 -59 -9 -59 -9 0 -15 -9 -15
-22 0 -12 -3 -19 -6 -15 -3 3 -3 20 1 38 5 23 10 28 16 18 7 -11 9 -11 9 3 0
23 -11 48 -21 48 -5 0 -9 -13 -9 -29 0 -17 -5 -33 -10 -36 -6 -4 -8 -11 -5
-16 4 -5 2 -9 -3 -9 -11 0 -21 79 -11 86 4 2 5 14 2 27 -4 17 -3 19 6 7 8 -12
10 -11 8 7 0 12 -4 20 -8 17 -4 -2 -11 1 -15 7 -5 8 -3 9 6 4 10 -6 12 0 7 30
-3 21 -11 41 -17 45 -7 4 -9 20 -5 41 6 32 13 103 14 142 1 15 5 14 26 -8 28
-27 36 -31 33 -14 -2 6 2 13 9 16 7 2 13 -8 16 -24 2 -16 5 -6 6 24 0 28 -3
54 -8 57 -5 3 -7 16 -4 29 3 12 2 19 -2 15 -4 -4 -8 -21 -7 -38 0 -19 -3 -28
-10 -24 -6 4 -8 -1 -3 -15 3 -11 4 -21 1 -21 -13 0 -36 13 -36 22 0 5 5 6 12
2 7 -5 8 -3 3 6 -7 11 -13 54 -18 133 -2 24 -15 21 -20 -5 -3 -17 -5 -14 -6
10 0 17 3 32 9 32 5 0 12 16 16 36 4 19 12 38 19 40 7 3 12 16 11 29 -1 19 -4
21 -15 12 -12 -10 -13 -8 -8 12 4 18 3 21 -6 12 -9 -9 -8 -16 1 -32 8 -12 9
-18 3 -14 -6 3 -11 2 -11 -4 0 -5 -5 -22 -12 -38 -6 -15 -11 -31 -10 -34 1 -4
-3 -21 -8 -38 -6 -22 -5 -35 4 -44 14 -14 22 -36 30 -80 4 -22 2 -27 -10 -23
-10 4 -14 -3 -16 -22 -2 -39 -3 -46 -9 -57 -3 -5 -4 -20 -3 -32 0 -13 -3 -23
-8 -23 -6 0 -8 -7 -4 -15 3 -8 2 -15 -3 -15 -14 0 -21 -72 -9 -87 9 -11 13
-12 19 -1 11 17 10 -111 -1 -137 -5 -11 -9 -14 -9 -7 -1 6 -5 12 -11 12 -5 0
-9 -9 -7 -19 1 -11 -2 -20 -8 -20 -5 0 -8 13 -7 29 2 18 -1 30 -8 30 -8 0 -11
-12 -8 -35 3 -27 1 -32 -9 -23 -10 8 -13 5 -13 -13 0 -13 4 -19 8 -14 10 15
34 13 40 -4 3 -8 0 -11 -5 -8 -5 3 -10 -13 -12 -35 -1 -23 -7 -50 -12 -60 -6
-11 -8 -26 -5 -34 3 -8 1 -14 -5 -14 -6 0 -7 -4 -4 -10 3 -5 0 -10 -7 -11 -10
0 -10 -2 0 -6 6 -2 12 -14 12 -26 0 -18 2 -19 10 -7 13 20 13 4 0 -20 -10 -19
-40 -18 -40 2 0 5 5 6 10 3 6 -3 10 1 10 10 0 11 -5 15 -16 11 -10 -4 -13 -2
-7 7 9 14 10 20 27 130 1 7 5 17 9 23 4 7 0 17 -8 24 -8 7 -15 24 -15 38 0 33
-14 19 -16 -16 -3 -81 -4 -84 -18 -79 -11 4 -16 -7 -21 -42 -3 -26 -6 -51 -5
-57 4 -19 -13 -54 -23 -47 -6 4 -8 0 -5 -9 4 -8 2 -21 -2 -29 -6 -8 -4 -16 3
-21 6 -4 9 -10 5 -13 -3 -3 -13 1 -22 10 -14 15 -16 15 -16 1 0 -9 5 -16 10
-16 6 0 10 -5 10 -11 0 -5 -4 -8 -9 -4 -16 10 -23 -15 -9 -32 10 -13 10 -15 0
-9 -10 6 -11 1 -7 -21 4 -20 3 -23 -3 -9 -12 27 -21 9 -27 -49 -4 -44 -22 -82
-33 -70 -3 2 0 11 7 18 7 9 8 27 4 48 -5 28 -7 30 -14 14 -11 -28 -11 -37 1
-30 6 3 10 1 10 -4 0 -6 -8 -11 -17 -11 -10 0 -25 -5 -33 -11 -12 -8 -10 -9 8
-4 21 6 22 4 19 -29 -2 -20 0 -36 4 -36 10 0 55 69 69 105 5 14 14 25 20 25 5
0 9 3 8 8 -4 15 14 72 23 72 5 0 9 8 9 19 0 37 21 79 38 76 9 -2 23 -4 30 -4
17 -1 15 -31 -3 -31 -8 0 -15 5 -15 10 0 6 -7 10 -15 10 -8 0 -15 -7 -15 -16
0 -8 5 -12 10 -9 6 3 10 1 10 -5 0 -6 5 -8 13 -3 6 4 3 -6 -7 -22 -13 -19 -15
-30 -8 -33 14 -4 16 -32 3 -32 -4 0 -7 -14 -5 -31 2 -19 0 -28 -7 -23 -7 4 -9
-3 -7 -17 2 -13 -4 -29 -12 -36 -11 -9 -12 -12 -2 -13 7 0 10 -5 7 -10 -4 -6
-11 -8 -16 -5 -5 3 -6 -2 -2 -11 5 -13 3 -15 -7 -9 -10 6 -12 4 -7 -8 3 -10 2
-17 -2 -17 -5 0 -12 6 -14 13 -3 7 -6 5 -6 -5 -1 -10 4 -18 9 -18 6 0 10 -7
10 -15 0 -8 -4 -15 -10 -15 -5 0 -13 -14 -18 -32 -8 -30 -32 -52 -32 -28 0 6
5 8 10 5 6 -3 10 1 10 9 0 17 -29 11 -42 -8 -4 -6 -8 -1 -8 12 0 13 -4 20 -10
17 -6 -3 -7 -17 -4 -30 3 -13 0 -26 -7 -30 -7 -5 -10 -4 -5 3 9 16 -14 26 -27
13 -9 -9 -8 -11 6 -5 12 4 16 2 12 -7 -4 -12 -8 -42 -14 -116 -1 -7 -8 -10
-16 -7 -19 7 -72 -25 -57 -35 7 -4 6 -14 -3 -31 -13 -24 -13 -24 -10 10 2 27
10 40 36 58 40 28 54 65 31 84 -13 11 -15 10 -9 -13 7 -28 -15 -70 -30 -56 -4
5 1 15 11 23 22 16 17 28 -7 18 -9 -3 -17 -17 -19 -30 -2 -14 -7 -23 -13 -22
-13 4 -25 -84 -14 -96 5 -6 9 -14 9 -18 0 -13 -40 31 -41 45 0 6 -4 3 -8 -8
-5 -11 -4 -23 0 -26 5 -3 2 -14 -6 -25 -14 -18 -15 -17 -12 16 1 27 -2 35 -17
38 -11 3 -16 0 -12 -7 4 -6 2 -11 -3 -11 -6 0 -11 6 -11 13 -1 7 -6 5 -14 -6
-13 -16 -14 -16 -20 -1 -4 10 -2 22 4 28 8 8 9 6 4 -7 -6 -17 -5 -18 14 -6 11
7 19 16 16 20 -2 4 3 13 12 20 13 11 17 10 26 -4 5 -10 14 -15 19 -12 5 4 7
10 4 15 -3 5 -1 11 5 15 5 3 10 11 10 18 0 8 -3 8 -12 -1 -15 -15 -28 -15 -28
-1 0 5 5 7 10 4 6 -3 10 3 10 15 0 14 -4 19 -12 14 -7 -4 -5 2 5 13 9 11 17
25 17 32 0 7 5 9 10 6 11 -7 10 -36 -1 -45 -4 -3 -1 -10 6 -16 9 -9 12 -5 13
19 1 28 15 46 36 47 4 0 6 -7 3 -14 -4 -10 -1 -13 9 -9 17 6 18 20 2 26 -10 3
-10 7 -2 18 11 14 11 63 0 126 -3 22 1 38 15 54 10 12 19 27 19 33 0 6 -8 2
-16 -9 -8 -11 -18 -19 -22 -18 -4 1 -8 -13 -9 -30 -1 -18 -5 -48 -8 -67 -6
-33 -8 -34 -21 -15 -14 18 -14 18 -14 -2 0 -30 -21 -34 -45 -9 -11 12 -17 17
-12 12 12 -17 8 -53 -9 -67 -13 -10 -17 -10 -25 2 -6 10 -9 7 -9 -13 0 -15 -4
-29 -10 -33 -5 -3 -6 -13 -3 -22 4 -11 3 -14 -5 -9 -7 4 -12 2 -12 -4 0 -7 -8
-9 -19 -5 -13 4 -23 0 -30 -12 -8 -14 -11 -15 -11 -3 -1 8 -8 2 -16 -15 -8
-16 -12 -22 -10 -13 3 10 1 20 -4 23 -6 4 -10 -7 -10 -24 0 -17 -5 -31 -11
-31 -6 0 -8 9 -4 20 4 14 -4 10 -30 -15 -33 -33 -64 -48 -50 -25 3 6 3 15 0
21 -8 13 -55 -28 -55 -48 0 -16 -85 -18 -95 -3 -4 6 -16 8 -27 4 -11 -3 -18
-2 -15 3 3 5 1 15 -4 23 -8 13 -11 13 -22 -1 -6 -9 -22 -14 -34 -13 -17 3 -24
-2 -29 -20 -4 -18 -11 -22 -32 -19 -19 3 -23 2 -13 -5 8 -6 9 -12 3 -16 -6 -3
-13 2 -17 13 -3 11 -12 24 -20 31 -11 9 -12 7 -8 -12 3 -13 1 -18 -4 -12 -14
19 -73 -12 -73 -39 0 -17 2 -19 9 -7 6 8 7 18 4 23 -3 5 0 7 8 5 8 -3 13 -12
13 -21 -1 -14 2 -15 20 -6 17 10 19 9 9 -2 -7 -7 -13 -17 -13 -22 0 -5 9 1 19
15 16 19 27 24 51 20 24 -3 29 -1 24 11 -4 12 0 15 24 11 16 -3 41 0 55 5 26
10 27 9 27 -21 0 -30 1 -31 14 -12 11 14 11 21 3 26 -8 5 -5 8 7 8 13 0 17 -5
13 -19 -3 -14 0 -17 15 -13 11 3 17 10 14 18 -7 18 2 18 20 0 17 -17 18 -35 3
-56 -8 -12 -9 -9 -5 13 8 34 -1 35 -14 2 -9 -24 -40 -36 -40 -15 0 5 7 7 15 4
9 -4 15 0 15 10 0 13 -4 14 -24 5 -14 -7 -22 -17 -19 -25 3 -8 0 -14 -6 -14
-6 0 -11 -4 -11 -8 0 -12 43 -9 52 3 5 6 8 5 8 -2 0 -10 6 -10 25 -1 14 6 25
14 25 17 0 4 12 8 28 9 23 2 21 -1 -15 -19 -24 -12 -43 -25 -43 -30 0 -13 -34
-11 -48 3 -9 9 -15 9 -23 1 -6 -6 -18 -9 -26 -6 -11 5 -11 9 2 30 23 34 14 38
-18 9 -16 -15 -27 -20 -30 -13 -3 9 -7 9 -18 1 -8 -7 -22 -8 -34 -3 -27 11
-37 11 -31 0 4 -5 0 -12 -6 -15 -7 -3 -3 -3 10 0 12 3 22 1 22 -5 0 -6 -11
-11 -25 -11 -14 0 -25 -4 -25 -8 0 -5 -6 -9 -13 -9 -8 0 -14 6 -14 13 0 7 4
11 8 8 4 -2 11 1 15 7 3 6 1 15 -7 19 -15 10 -39 -18 -32 -37 3 -7 0 -13 -7
-13 -8 0 -10 9 -6 25 4 14 2 25 -4 25 -5 0 -10 -9 -10 -19 0 -10 -7 -21 -15
-25 -8 -3 -15 -1 -15 4 0 6 3 10 8 10 4 0 12 11 18 24 11 23 10 24 -19 20 -30
-3 -51 -14 -27 -14 10 0 10 -3 0 -15 -15 -18 -34 -20 -24 -2 5 8 2 8 -9 -2 -9
-7 -17 -10 -17 -5 0 5 -5 2 -10 -6 -8 -12 -10 -11 -10 8 0 15 -6 22 -20 22
-11 0 -20 5 -20 10 0 6 -5 10 -11 10 -5 0 -7 -4 -4 -10 10 -16 -32 -12 -49 5
-19 20 -27 19 -20 -2 5 -15 3 -15 -11 2 -16 19 -16 18 -9 -20 3 -22 11 -48 15
-57 9 -17 -6 -36 -18 -24 -4 3 -1 6 6 6 7 0 9 5 6 10 -4 6 -11 7 -17 4 -7 -4
-8 -2 -4 4 10 16 -15 40 -36 34 -10 -2 -18 1 -18 7 0 6 3 10 8 10 23 -4 43 3
41 14 -5 38 3 59 24 65 19 6 17 7 -13 12 -19 3 -34 10 -33 16 1 5 -7 10 -18
10 -27 0 -24 -11 7 -25 16 -7 24 -18 22 -29 -3 -14 -12 -16 -47 -14 -32 2 -42
0 -38 -10 2 -7 11 -12 21 -10 9 2 16 -3 16 -11 0 -18 -38 -17 -49 1 -5 8 -12
13 -17 12 -5 -1 -10 4 -13 11 -2 7 1 9 8 5 7 -5 11 1 10 16 0 13 -3 17 -6 10
-4 -9 -8 -10 -18 -2 -9 8 -15 8 -20 0 -4 -7 -12 -7 -25 0 -14 7 -19 5 -23 -10
-6 -22 8 -28 16 -7 3 6 6 1 6 -12 1 -13 4 -22 7 -18 8 7 64 -20 63 -31 -1 -4
-1 -14 1 -22 1 -11 4 -9 10 5 7 15 9 16 9 4 1 -9 -6 -22 -14 -29 -13 -10 -15
-9 -15 8 0 24 -16 38 -22 20 -3 -7 -13 -3 -28 12 -15 15 -21 18 -17 7 3 -9 2
-19 -4 -22 -5 -4 -7 -11 -4 -16 4 -5 1 -9 -4 -9 -6 0 -11 7 -11 16 0 8 -4 12
-10 9 -5 -3 -10 -1 -10 4 0 6 7 11 16 11 11 0 14 6 9 20 -3 11 -8 32 -11 47
-3 16 -11 34 -18 41 -11 11 -18 8 -40 -18 -28 -34 -36 -29 -10 8 8 12 11 22 5
22 -5 0 -13 -5 -16 -10 -9 -14 -25 -2 -25 18 0 21 -37 55 -45 43 -3 -5 -2 -16
1 -25 4 -10 0 -18 -10 -22 -9 -3 -16 -13 -16 -20 0 -12 -4 -12 -20 -4 -26 14
-25 28 2 26 28 -1 33 16 11 40 -10 11 -14 14 -10 7 13 -18 -1 -33 -28 -31 -27
3 -33 13 -12 21 6 2 9 8 5 12 -4 4 -14 2 -23 -5 -13 -11 -15 -9 -11 11 3 13 5
26 5 28 1 3 6 0 13 -7 7 -7 17 -12 23 -12 5 0 3 6 -6 13 -9 7 -18 19 -22 27
-4 12 -6 11 -6 -2 -1 -26 -71 -21 -71 4 0 5 5 6 10 3 6 -3 10 -1 10 5 0 7 -8
9 -21 5 -16 -5 -20 -3 -17 6 3 8 9 14 14 14 5 0 15 4 23 9 8 5 16 4 22 -5 5
-8 9 -10 9 -5 0 5 7 3 15 -4 8 -7 15 -9 15 -6 0 4 10 0 21 -8 12 -8 27 -12 33
-10 7 3 21 -5 31 -16 25 -27 78 -50 117 -50 26 0 29 2 18 15 -7 8 -17 12 -23
8 -6 -3 -7 -1 -3 6 4 6 12 9 17 6 5 -4 9 1 9 9 0 15 -16 20 -52 17 -10 -1 -18
2 -18 7 0 5 20 8 45 7 25 -1 45 2 45 6 0 12 44 1 55 -13 6 -7 16 -13 23 -14
29 -2 33 -5 26 -16 -4 -7 -3 -8 4 -4 19 11 14 34 -9 41 -19 6 -20 7 -2 20 10
7 19 18 19 24 1 6 2 17 3 25 1 9 10 12 26 8 19 -3 25 0 25 14 0 15 -2 16 -9 5
-5 -7 -14 -10 -20 -7 -13 9 -53 -2 -47 -13 9 -14 -39 -7 -52 8 -7 9 -12 12
-11 6 1 -5 -3 -21 -9 -35 -6 -15 -11 -19 -11 -9 -1 16 -25 22 -51 12 -8 -4
-27 -8 -42 -10 -22 -3 -28 0 -28 14 0 15 -2 16 -10 3 -7 -11 -27 -15 -74 -15
-35 0 -62 3 -59 8 2 4 0 7 -6 7 -15 0 -41 30 -41 48 0 15 2 15 11 2 9 -12 10
-11 6 8 -5 23 8 31 16 10 3 -8 6 -6 6 4 1 13 -6 17 -23 16 -13 -1 -22 -7 -19
-13 2 -7 -2 -17 -10 -24 -16 -12 -47 -5 -47 11 0 6 6 8 13 5 8 -3 14 4 15 16
1 17 -1 19 -8 7 -8 -13 -10 -13 -10 -1 0 8 7 22 16 32 15 16 14 17 -5 12 -11
-3 -18 -9 -15 -14 3 -5 1 -9 -4 -9 -6 0 -9 -8 -8 -17 0 -10 -6 -18 -14 -18
-24 -2 -51 15 -44 27 4 6 3 8 -4 4 -16 -10 -26 13 -12 29 10 12 8 13 -7 10
-24 -4 -97 60 -87 77 4 6 3 8 -3 5 -6 -4 -30 15 -54 41 -24 26 -47 46 -52 44
-4 -1 -6 4 -5 10 2 7 -2 12 -8 11 -9 -2 -12 31 -5 44 0 2 19 -15 42 -37 25
-24 38 -44 33 -51 -5 -8 -3 -9 5 -4 13 7 64 -39 96 -89 10 -14 26 -26 36 -26
10 0 23 -8 28 -19 16 -29 39 -34 34 -7 -3 15 -16 26 -36 32 -18 5 -32 16 -32
24 0 8 -10 25 -22 38 -13 12 -23 29 -23 37 0 8 -5 15 -11 15 -6 0 -8 -7 -5
-16 8 -20 -12 -8 -40 26 -12 14 -33 38 -48 55 -31 36 -25 47 9 15 14 -13 25
-19 25 -14 0 6 -11 20 -24 31 -17 15 -28 18 -41 11 -13 -8 -16 -7 -13 3 3 8
-16 40 -41 71 -82 102 -96 121 -103 140 -4 10 -4 18 0 18 4 0 13 -13 19 -30 7
-19 18 -30 30 -29 10 0 13 3 6 6 -7 2 -13 11 -13 19 0 9 -4 12 -10 9 -5 -3
-10 3 -10 15 0 11 -8 24 -17 27 -26 9 -28 15 -28 77 0 31 -4 56 -8 56 -4 0 -7
-20 -6 -45 3 -59 -6 -66 -19 -15 -6 24 -6 42 -1 46 15 9 7 73 -8 67 -9 -3 -13
4 -13 21 0 14 5 26 10 26 6 0 10 -5 10 -11 0 -12 74 -124 97 -147 7 -7 13 -9
13 -4 0 5 -7 15 -15 22 -8 7 -15 19 -15 26 0 8 -5 14 -11 14 -5 0 -8 4 -5 9 3
5 -1 11 -9 15 -9 3 -12 12 -8 22 4 12 3 15 -5 10 -7 -4 -12 -1 -12 8 0 8 -4
16 -9 18 -15 5 -18 43 -3 40 8 -1 11 2 7 8 -3 5 -14 10 -24 10 -17 0 -19 8
-17 70 1 50 4 69 13 66 7 -3 10 1 6 9 -3 8 -9 12 -14 9 -5 -3 -10 4 -10 15 -1
12 -2 27 -3 34 -1 6 -5 15 -11 19 -6 5 -3 14 8 25 12 13 17 14 17 4 0 -11 5
-9 20 4 12 11 20 31 20 51 0 36 -17 55 -26 30 -3 -9 -12 -16 -20 -16 -13 0
-17 25 -17 102 1 52 -15 18 -19 -42 -5 -69 -11 -78 -35 -59 -17 13 -16 12 0
-8 15 -18 16 -24 6 -41 -7 -11 -18 -18 -24 -16 -6 3 -12 -2 -12 -10 0 -8 4
-13 9 -10 4 3 8 -4 8 -15 0 -12 -6 -21 -12 -21 -9 0 -8 -3 2 -10 12 -7 12 -16
4 -49 -12 -44 -4 -55 13 -19 9 22 11 21 28 -16 17 -36 19 -37 33 -20 14 18 14
18 7 -1 -4 -11 -14 -41 -21 -67 -7 -25 -17 -55 -22 -65 -6 -11 -7 -35 -2 -63
5 -25 9 -54 9 -65 0 -16 -3 -15 -15 9 -10 17 -14 40 -10 57 4 22 2 27 -9 22
-8 -3 -15 0 -15 6 0 6 -5 11 -10 11 -6 0 -9 -3 -9 -7 1 -5 1 -17 -1 -28 l-1
-20 -10 20 c-8 18 -8 17 -6 -5 1 -14 7 -24 13 -23 7 1 10 -13 9 -38 -1 -22 2
-42 6 -45 5 -3 9 -11 9 -17 0 -7 -7 -3 -15 7 -8 10 -12 23 -9 28 3 5 -3 23
-14 41 -20 34 -22 84 -4 80 5 -1 16 4 22 12 12 15 3 21 -23 16 -5 -1 -6 3 -2
9 3 5 2 10 -3 10 -6 0 -13 11 -16 25 -4 14 -10 24 -14 21 -4 -3 -14 -1 -22 5
-8 5 -10 9 -4 9 7 0 11 17 11 40 0 22 2 43 6 47 4 3 7 -1 7 -10 0 -9 3 -17 8
-18 4 0 15 -2 25 -4 9 -2 17 0 18 3 5 43 4 52 -8 52 -7 0 -13 -11 -13 -26 0
-15 -4 -23 -11 -19 -5 4 -9 17 -7 28 1 12 -1 27 -5 33 -3 6 -9 51 -13 100 -3
49 -11 92 -17 96 -6 4 -8 10 -5 13 4 4 3 18 -2 31 -6 14 -6 24 0 24 4 0 11 -8
13 -17 4 -14 5 -12 6 5 1 17 -4 22 -25 22 -21 0 -24 4 -19 20 3 11 7 33 7 50
1 16 5 30 9 30 4 0 11 15 14 33 4 17 12 39 19 47 9 13 9 13 -5 3 -9 -7 -18
-10 -21 -7 -3 2 -8 -2 -12 -11 -3 -9 -2 -13 3 -10 5 3 2 -9 -7 -27 -16 -32
-20 -59 -25 -160 -2 -49 -10 -61 -21 -32 -4 9 -1 24 6 33 12 14 11 14 -4 2
-12 -9 -18 -10 -18 -2 0 6 5 11 11 11 6 0 9 7 5 15 -3 8 -1 15 5 15 5 0 8 20
6 46 -2 31 1 48 10 51 20 8 15 23 -7 23 -15 0 -20 7 -20 24 0 14 5 28 11 32 7
4 7 10 1 16 -13 13 -2 58 14 58 16 0 19 16 4 25 -5 3 -10 14 -10 23 0 13 5 12
20 -8 21 -27 18 -56 -9 -78 -13 -10 -13 -12 -1 -10 19 4 40 23 40 37 0 6 7 11
15 11 22 0 18 27 -5 40 -15 8 -20 8 -20 -1 0 -7 -3 -10 -6 -7 -10 11 -13 83
-5 118 l9 35 1 -46 c1 -25 8 -54 17 -65 15 -19 15 -19 6 1 -13 32 -8 153 7
167 11 10 12 10 7 1 -4 -7 -2 -13 3 -13 6 0 12 12 12 28 1 20 3 22 6 6 5 -27
-14 -77 -27 -69 -6 4 -7 -1 -3 -10 5 -13 7 -14 14 -3 7 10 9 10 10 -2 1 -8 1
-22 0 -32 -1 -9 4 -20 10 -24 9 -5 10 -2 6 9 -4 12 -1 15 14 12 17 -4 19 1 14
47 -6 57 0 74 21 58 7 -7 19 -10 26 -7 8 3 2 10 -14 17 -28 13 -38 30 -18 30
6 0 8 11 4 26 -6 23 -4 25 20 21 28 -3 29 -8 13 -45 -8 -18 -7 -25 9 -37 19
-14 19 -15 -2 -54 -14 -25 -17 -38 -9 -34 8 2 16 11 19 19 3 9 9 13 13 11 5
-3 9 5 10 16 1 12 4 36 8 52 6 27 5 28 -8 12 -12 -14 -16 -15 -20 -4 -3 8 0
20 6 26 12 12 -10 64 -25 55 -4 -3 -8 2 -8 10 0 9 6 16 13 17 8 0 8 2 1 5 -8
4 -9 16 -2 42 5 20 12 47 15 60 3 13 19 36 35 52 16 17 24 30 18 30 -7 0 -9
12 -4 38 7 35 6 36 -12 22 -14 -11 -16 -11 -7 0 7 7 23 15 35 17 12 2 27 9 33
15 7 8 6 9 -2 4 -7 -4 -13 -3 -13 2 0 6 7 12 15 16 9 3 15 0 15 -9 0 -8 7 -15
15 -15 8 0 15 -5 15 -11 0 -6 -7 -9 -15 -5 -10 3 -15 -1 -16 -12 0 -10 -3 -12
-6 -4 -10 25 -33 13 -31 -18 2 -26 4 -28 19 -14 9 8 23 12 32 9 19 -8 26 4 29
48 3 33 18 43 18 12 0 -9 6 -12 15 -9 12 5 12 9 -2 30 -12 18 -19 22 -28 14
-22 -18 -30 26 -11 55 14 21 14 25 2 25 -8 0 -18 -9 -21 -21 -4 -11 -9 -18
-12 -15 -9 8 27 57 37 51 5 -3 14 3 19 14 14 25 14 44 1 36 -6 -4 -8 -11 -5
-16 4 -5 1 -9 -4 -9 -12 0 -10 27 2 48 5 7 12 10 17 7 4 -3 10 2 14 10 3 8 1
17 -4 20 -17 11 10 53 31 48 11 -3 19 0 19 8 0 7 -3 9 -7 6 -9 -9 -34 13 -27
24 3 5 10 9 15 9 6 0 8 -4 5 -9 -12 -19 26 -19 44 -1 16 16 18 25 10 40 -8 15
-6 21 11 30 11 7 24 8 27 4 4 -4 1 -9 -5 -11 -7 -3 -13 -17 -13 -31 0 -19 3
-23 9 -14 4 8 12 14 17 15 5 1 9 9 8 18 -1 9 12 24 29 34 21 13 27 14 21 4 -4
-8 -7 -23 -6 -35 3 -23 -30 -62 -84 -99 -20 -14 -33 -25 -29 -25 5 0 2 -8 -6
-17 -37 -47 -50 -86 -24 -77 8 4 15 1 15 -5 0 -6 -2 -11 -4 -11 -2 0 -12 -3
-21 -6 -9 -4 -15 -3 -14 2 1 5 -3 20 -10 34 -11 24 -11 23 -6 -9 4 -24 0 -40
-12 -53 -16 -18 -16 -18 0 -12 9 3 17 11 17 17 0 6 3 8 6 4 3 -3 -4 -21 -17
-39 -13 -18 -16 -27 -8 -21 9 7 19 9 23 5 4 -4 6 -2 4 3 -2 6 15 29 36 50 22
22 36 35 32 28 -3 -6 -3 -14 2 -17 4 -2 14 9 21 25 9 21 17 27 25 20 8 -7 11
0 12 26 1 25 -2 30 -8 19 -15 -26 -29 -19 -18 9 5 14 6 25 1 25 -5 0 -12 -10
-16 -22 -4 -15 -8 -18 -12 -10 -8 20 18 44 43 39 15 -3 21 0 17 9 -2 7 9 27
26 45 17 17 28 36 25 41 -4 5 8 24 25 42 21 22 29 38 25 49 -3 10 -1 17 6 17
7 0 10 -13 8 -32 -2 -18 -8 -32 -14 -31 -6 1 -11 -5 -11 -13 0 -17 -5 -18 48
8 24 12 47 21 52 20 4 -1 7 3 7 9 0 6 17 9 45 6 24 -2 42 0 39 5 -12 19 81 -3
99 -24 9 -11 17 -15 17 -9 0 6 8 8 18 4 16 -6 15 -5 -2 15 -18 21 -18 21 10
17 16 -2 29 -4 29 -5 0 -1 8 -3 19 -5 10 -2 28 -13 40 -24 23 -21 42 -28 32
-12 -8 13 25 3 49 -15 17 -13 18 -16 5 -24 -11 -8 -9 -9 10 -6 28 4 75 -17 83
-36 4 -11 7 -11 15 0 6 9 12 6 20 -13 17 -36 15 -43 -10 -51 -13 -4 -29 -15
-36 -26 -9 -12 -18 -16 -28 -10 -20 11 -84 -9 -84 -25 0 -7 -5 -13 -11 -13 -5
0 -7 5 -4 10 3 6 1 10 -5 10 -7 0 -10 -7 -6 -15 3 -9 0 -15 -9 -15 -9 0 -12 6
-9 15 7 18 8 18 -33 6 -20 -6 -35 -6 -38 0 -4 5 -14 9 -23 8 -14 0 -14 -2 2
-8 19 -7 19 -8 1 -14 -10 -4 -25 -5 -34 -2 -20 6 -52 -14 -33 -22 22 -9 12
-25 -15 -23 -44 3 -55 1 -48 -10 6 -9 -10 -14 -42 -13 -7 1 -13 -3 -13 -8 0
-5 -13 -15 -30 -24 -16 -8 -39 -25 -52 -38 -13 -12 -43 -38 -68 -57 -88 -69
-200 -188 -200 -212 0 -13 -9 -38 -21 -57 -11 -18 -17 -36 -14 -39 10 -10 52
50 65 92 9 29 14 36 21 25 6 -10 9 -7 9 13 0 31 15 44 34 29 14 -11 26 -5 26
13 0 6 -5 4 -10 -4 -5 -8 -10 -10 -10 -5 1 15 26 46 33 39 3 -3 8 3 11 14 10
32 88 97 157 132 35 19 72 40 81 48 9 8 22 11 29 6 7 -4 10 -3 5 4 -3 6 2 13
11 16 23 7 39 4 35 -9 -1 -5 4 -2 11 8 8 9 21 17 30 17 8 0 17 7 20 15 4 8 23
21 43 30 45 19 50 19 34 0 -15 -18 -7 -19 21 -4 11 6 30 12 41 14 11 3 26 12
32 21 10 13 17 14 32 6 28 -15 36 -15 44 -2 12 19 92 19 110 1 8 -9 12 -12 8
-7 -11 14 -10 26 2 26 6 0 10 -6 10 -13 0 -7 7 -23 16 -35 15 -22 17 -23 35
-6 18 16 19 16 13 1 -3 -10 -1 -17 5 -17 6 0 10 3 10 8 -4 26 1 32 21 20 11
-7 20 -18 20 -25 0 -7 6 -13 13 -14 48 -3 77 -15 77 -34 0 -8 5 -15 10 -15 6
0 10 2 10 5 0 11 -73 115 -81 115 -5 0 -9 9 -9 20 0 18 2 19 20 8 11 -7 20
-18 20 -23 0 -6 7 -20 15 -31 14 -18 14 -18 10 4 -2 12 0 20 6 17 5 -4 9 -15
9 -25 0 -10 5 -20 10 -22 6 -2 11 -17 13 -34 2 -31 10 -36 35 -21 8 6 12 2 12
-10 1 -17 1 -17 11 0 9 15 13 16 26 5 14 -11 15 -10 8 12 -11 36 -32 57 -64
63 -25 5 -59 52 -47 65 6 5 75 7 145 4 34 -2 42 -5 37 -17 -3 -8 -1 -15 4 -15
6 0 10 5 10 11 0 5 5 7 10 4 13 -8 13 5 0 25 -7 11 -10 11 -10 2 0 -7 -5 -10
-10 -7 -6 4 -7 12 -4 18 5 9 3 9 -6 0 -11 -10 -16 -9 -27 5 -10 13 -13 14 -11
2 3 -17 -33 -15 -43 2 -4 6 -28 9 -58 6 -31 -3 -52 -1 -55 6 -3 7 -8 7 -14 -2
-7 -11 -10 -9 -15 8 -4 16 -2 20 9 16 8 -3 14 -1 14 4 0 6 -6 10 -13 10 -31 0
-155 139 -142 160 3 4 -4 6 -15 3 -22 -6 -92 26 -84 38 2 4 0 10 -5 13 -5 3
-11 -1 -15 -9 -3 -10 5 -20 26 -31 24 -13 28 -18 17 -25 -12 -8 -12 -10 1 -8
31 3 42 -1 37 -15 -4 -10 -1 -13 9 -9 8 3 14 -1 14 -11 0 -9 4 -16 10 -16 5 0
35 -24 66 -53 44 -43 51 -53 33 -52 -12 1 -32 10 -44 21 -13 10 -29 20 -36 22
-8 2 -21 11 -30 22 -9 11 -19 17 -21 14 -3 -2 -11 2 -18 11 -7 8 -19 15 -26
15 -8 0 -14 5 -14 10 0 6 -6 10 -12 10 -7 1 -31 9 -53 20 -22 10 -43 16 -47
14 -5 -3 -18 2 -30 10 -12 9 -31 16 -41 16 -10 0 -15 4 -12 10 3 5 0 7 -9 4
-9 -3 -12 -13 -9 -22 5 -15 4 -15 -8 0 -8 10 -28 19 -46 20 -17 1 -30 6 -27
10 3 4 11 5 18 2 19 -7 32 16 15 27 -11 7 -9 10 8 15 15 4 22 13 20 26 -1 12
3 23 9 25 7 2 10 -6 6 -23 -3 -19 -1 -25 7 -20 6 4 11 15 11 24 0 23 17 48 26
39 4 -3 3 -12 -2 -20 -5 -7 -1 -4 9 6 9 11 17 15 17 10 0 -10 46 -10 57 0 3 4
-3 7 -15 7 -29 0 -53 11 -46 21 3 5 10 7 15 3 6 -3 13 3 16 15 3 12 8 21 10
21 3 0 2 -11 -1 -24z m-2146 -3006 c0 -11 -7 -20 -14 -20 -12 0 -13 -6 -5 -30
10 -27 19 -34 41 -31 6 0 22 -72 18 -85 -1 -4 5 -11 14 -16 9 -5 14 -13 11
-19 -4 -5 -1 -9 5 -9 6 0 8 -4 5 -10 -3 -5 -1 -10 4 -10 6 0 11 -3 10 -7 -3
-18 14 -53 25 -53 6 0 4 -5 -4 -10 -13 -8 -12 -10 3 -10 12 0 17 8 17 25 0 14
-3 25 -7 25 -5 0 -13 11 -20 25 -6 14 -7 23 -2 19 5 -3 9 -1 9 5 0 5 -9 13
-20 16 -11 3 -20 13 -20 20 0 9 6 12 15 9 8 -4 12 -11 8 -17 -4 -6 1 -8 13 -5
14 4 20 0 20 -13 0 -11 -5 -19 -11 -19 -5 0 -2 -7 7 -14 10 -7 15 -16 11 -19
-3 -4 2 -7 13 -7 14 0 16 -2 5 -9 -10 -7 -10 -10 -1 -16 7 -4 16 -2 20 5 5 8
9 8 13 -4 7 -17 -8 -31 -22 -21 -5 3 -12 1 -16 -4 -7 -12 35 -62 45 -56 12 7
32 -23 25 -36 -4 -6 -1 -15 6 -20 11 -7 11 -9 -2 -9 -9 0 -19 7 -23 15 -3 8
-1 15 4 15 5 0 7 7 3 16 -4 11 -9 12 -16 5 -12 -12 -37 4 -37 23 0 6 -14 19
-31 29 -18 10 -29 20 -26 24 4 3 -3 14 -14 24 -11 9 -20 20 -20 23 0 3 -7 23
-16 43 -8 21 -16 48 -17 59 0 13 -6 19 -13 17 -7 -3 -13 2 -13 11 0 17 -16 50
-39 78 -7 10 -11 25 -7 34 5 14 4 15 -9 4 -9 -7 -15 -8 -15 -2 0 15 22 21 43
10 12 -6 17 -5 17 7 0 8 2 15 5 15 3 0 5 -9 5 -20z m600 -814 c0 -22 17 -28
33 -11 16 16 28 8 41 -29 3 -10 12 -16 20 -13 16 6 26 -13 26 -49 0 -23 10
-31 23 -17 4 3 2 12 -5 20 -8 10 -8 12 3 8 17 -6 55 -62 52 -76 -2 -5 4 -9 12
-9 8 0 15 -4 15 -10 0 -5 12 -17 26 -27 23 -15 28 -15 38 -2 13 17 46 21 46 5
0 -6 4 -5 9 3 6 9 8 4 8 -17 -1 -20 -6 -28 -15 -24 -7 2 -11 11 -8 18 6 16 -3
18 -22 5 -11 -7 -11 -9 1 -14 22 -8 16 -53 -7 -49 -38 7 -66 22 -62 34 1 7 1
10 -1 6 -9 -15 -25 -8 -19 8 3 9 2 12 -5 9 -6 -4 -18 0 -27 8 -9 7 -25 17 -34
20 -12 4 -15 12 -11 23 4 12 3 15 -5 10 -7 -4 -12 -1 -12 9 0 9 -4 13 -10 10
-5 -3 -10 1 -10 10 0 9 -5 13 -10 10 -6 -4 -7 -12 -3 -18 3 -7 -3 -3 -15 7
-12 11 -20 21 -17 24 3 3 -1 12 -8 20 -10 13 -9 14 11 3 13 -7 20 -17 15 -24
-5 -9 -3 -9 9 0 8 7 17 11 19 8 3 -2 5 5 5 16 0 18 -2 18 -12 4 -10 -13 -12
-13 -17 -1 -3 8 -1 17 6 19 7 3 -1 4 -18 4 -18 -1 -35 -10 -41 -21 -11 -19
-12 -18 -19 4 -4 13 -21 36 -38 52 -17 15 -26 28 -20 28 7 0 15 -5 18 -10 9
-15 25 -2 18 15 -3 8 0 15 6 15 6 0 11 -6 11 -14z m600 -420 c22 5 31 1 39
-15 13 -24 0 -28 -19 -6 -7 8 -18 15 -24 15 -6 0 -3 -7 7 -14 9 -7 17 -18 17
-25 0 -8 6 -9 18 -3 25 13 40 4 36 -21 -4 -21 -4 -21 5 -2 4 11 6 24 3 29 -2
4 6 5 19 2 20 -6 21 -5 6 4 -9 6 -21 9 -26 5 -5 -3 -12 -1 -16 4 -3 6 12 10
40 9 36 0 45 -4 43 -17 -2 -9 2 -15 9 -14 13 3 8 -22 -11 -47 -9 -13 -9 -13 6
-2 15 12 17 11 15 -7 -2 -24 -1 -24 -30 -10 -20 9 -20 9 -5 -4 10 -8 14 -18
10 -22 -4 -5 5 -1 20 8 15 9 29 13 33 8 3 -6 -2 -14 -12 -19 -13 -8 -9 -10 20
-10 20 0 53 -10 74 -22 20 -12 52 -23 70 -25 32 -3 34 -2 29 26 -4 28 7 39 19
19 3 -5 11 -7 18 -4 7 2 22 -5 33 -17 10 -13 14 -19 7 -16 -6 4 -14 1 -16 -5
-3 -7 -6 -3 -6 10 -1 12 -6 22 -11 22 -6 0 -9 -3 -9 -7 1 -5 1 -15 0 -23 -1
-13 -2 -13 -11 0 -5 8 -10 10 -10 5 0 -18 21 -34 36 -28 10 4 12 0 8 -10 -8
-22 36 -14 54 10 6 9 12 12 12 6 0 -7 -4 -14 -10 -18 -5 -3 -8 -11 -6 -18 1
-7 1 -10 -1 -7 -2 3 -23 4 -48 2 -41 -4 -45 -2 -45 19 l0 23 -16 -22 c-9 -14
-22 -21 -32 -18 -10 3 -36 6 -59 8 -24 1 -43 5 -43 10 0 4 -7 5 -15 2 -16 -7
-48 20 -37 30 11 12 -21 25 -39 16 -9 -5 -19 -6 -23 -3 -3 3 -6 2 -6 -4 0 -6
-9 -9 -20 -6 -15 4 -19 11 -15 27 6 21 6 21 -11 1 l-17 -20 8 20 c6 17 9 30
14 54 1 2 8 -2 16 -9 20 -16 25 -11 14 15 -4 11 -8 14 -8 8 -1 -15 -71 15 -71
29 0 5 -4 6 -10 3 -5 -3 -12 5 -16 19 -3 14 -15 28 -25 31 -10 4 -19 14 -18
23 0 10 3 12 5 5 4 -8 16 -10 34 -7z"/>
<path d="M4740 5796 c0 -42 36 -111 73 -139 36 -27 42 -62 10 -50 -13 5 -15 1
-10 -26 5 -21 3 -30 -4 -25 -6 3 -3 -8 5 -25 16 -31 16 -31 -8 -31 -13 0 -27
6 -29 13 -3 6 -3 -4 0 -23 3 -19 10 -41 16 -47 15 -20 37 -15 37 6 0 11 5 23
11 27 6 3 9 17 6 30 -3 16 0 24 9 24 8 0 14 10 14 24 0 14 5 37 11 53 8 22 7
30 -6 39 -9 7 -20 25 -25 41 -7 24 -8 25 -9 6 -1 -29 -12 -29 -45 2 -24 22
-31 36 -27 58 0 4 -3 7 -9 7 -5 0 -10 10 -10 23 0 18 2 19 10 7 8 -13 10 -13
10 1 0 9 -7 19 -15 23 -11 4 -15 -1 -15 -18z"/>
<path d="M5050 5492 c0 -26 -5 -42 -15 -46 -8 -3 -15 -13 -15 -22 0 -10 -3
-14 -7 -11 -3 4 -13 -3 -21 -14 -12 -18 -13 -23 -1 -30 21 -13 27 -11 45 16
22 34 34 32 34 -6 0 -21 -4 -28 -12 -23 -9 6 -9 3 1 -9 11 -14 10 -21 -12 -46
-14 -17 -28 -27 -32 -23 -5 4 -5 -1 -2 -11 4 -10 7 -21 7 -23 0 -13 20 -1 25
16 3 11 10 20 15 20 4 0 6 -9 3 -20 -3 -11 -9 -20 -13 -20 -11 0 -20 -42 -12
-54 4 -6 8 -40 9 -75 0 -34 6 -68 12 -74 6 -6 11 -23 11 -38 0 -30 21 -52 46
-47 16 3 16 4 0 21 -10 10 -20 35 -22 55 -2 20 -7 69 -12 107 -7 54 -6 74 5
90 7 11 13 15 13 10 0 -5 7 0 15 11 14 18 14 17 15 -13 0 -17 -4 -35 -10 -38
-16 -10 -12 -28 5 -22 23 9 29 -13 9 -29 -11 -9 -14 -13 -7 -10 6 4 14 2 18
-4 11 -18 21 -10 20 18 0 18 5 26 14 24 9 -2 11 3 7 13 -3 9 -6 20 -6 25 0 4
-9 10 -20 13 -29 8 -27 49 3 47 38 -4 47 -1 47 16 0 8 5 12 10 9 6 -3 10 1 10
9 0 18 -31 21 -47 5 -6 -6 -17 -9 -23 -7 -8 2 -1 16 19 35 31 31 44 56 18 34
-15 -12 -27 -5 -27 16 0 7 7 13 16 13 9 0 12 5 8 12 -9 14 -44 -26 -44 -51 -1
-14 -2 -14 -11 2 -5 9 -8 21 -5 26 3 4 -1 17 -9 27 -8 10 -15 14 -15 7 0 -6 4
-14 10 -18 5 -3 7 -12 3 -21 -4 -12 -8 -12 -21 -2 -13 11 -14 10 -8 -10 4 -13
3 -22 -3 -22 -5 0 -9 26 -9 60 1 34 -4 66 -10 72 -6 6 -8 16 -6 23 3 7 1 16
-5 20 -7 4 -11 -8 -11 -33z"/>
<path d="M2575 5231 c-3 -5 1 -28 9 -51 13 -39 12 -80 -4 -80 -4 0 -5 11 -3
24 5 26 -13 44 -29 28 -7 -7 -6 -17 1 -30 6 -12 7 -23 2 -26 -5 -3 -12 5 -15
19 -4 14 -11 25 -16 25 -13 0 -13 -51 0 -86 8 -21 8 -29 -2 -35 -15 -10 -18
-41 -4 -50 5 -4 4 -20 -3 -39 -14 -42 -14 -53 1 -44 6 4 8 3 5 -3 -4 -6 0 -19
8 -29 8 -10 15 -30 15 -44 1 -23 2 -23 9 -5 5 11 5 28 0 37 -14 26 -11 60 4
52 9 -5 9 -4 1 5 -19 21 -6 121 21 157 14 18 25 39 25 46 0 8 6 22 13 33 19
28 28 55 18 55 -5 0 -12 -10 -15 -22 -7 -21 -8 -19 -21 16 -8 21 -12 42 -9 47
3 5 3 9 0 9 -3 0 -7 -4 -11 -9z"/>
<path d="M4428 3411 c-6 -11 -18 -17 -26 -13 -10 3 -13 1 -8 -6 3 -6 -3 -13
-14 -17 -12 -4 -17 -11 -13 -18 4 -7 -1 -6 -10 2 -11 9 -17 10 -17 2 0 -6 -3
-10 -7 -9 -5 1 -18 -3 -30 -10 -12 -7 -44 -15 -70 -19 -26 -3 -51 -11 -55 -17
-5 -8 -8 -7 -8 2 0 8 -17 12 -47 13 l-48 1 33 14 c25 11 38 12 53 3 19 -10 20
-8 14 12 -7 20 -5 21 21 16 16 -4 23 -4 16 -1 -6 3 -10 10 -7 14 3 5 18 2 33
-6 24 -12 28 -12 38 1 6 8 14 12 17 8 4 -3 7 2 7 12 0 15 -3 16 -12 7 -16 -16
-28 -15 -28 3 0 14 -4 14 -32 -1 -17 -9 -40 -18 -52 -19 -12 -2 -48 -15 -81
-28 -58 -25 -77 -26 -147 -12 -24 5 -29 4 -18 -4 8 -6 24 -11 35 -12 15 0 13
-3 -8 -9 -34 -10 -142 -20 -286 -25 l-103 -4 6 31 c6 31 6 31 -12 13 -14 -15
-16 -24 -8 -41 7 -14 16 -20 23 -15 18 10 83 1 83 -11 0 -7 4 -7 13 0 17 14
126 21 131 8 3 -7 8 -6 14 2 7 10 27 13 70 10 33 -1 58 1 55 5 -3 5 1 7 8 6 8
-2 29 1 47 5 24 6 40 3 57 -8 13 -8 40 -15 59 -14 43 2 39 8 -11 19 -34 8 -34
8 7 3 25 -3 55 -7 68 -7 27 -2 29 -14 2 -22 -20 -6 -28 -25 -11 -25 12 0 41
28 41 40 0 4 9 10 20 13 11 3 18 1 14 -4 -3 -5 0 -9 5 -9 6 0 11 4 11 9 0 5
16 12 35 15 19 4 35 11 35 16 0 6 5 10 11 10 5 0 7 -5 4 -10 -8 -14 97 50 107
64 11 16 10 36 -2 36 -5 0 -15 -9 -22 -19z"/>
<path d="M7240 1218 c-19 -7 -20 -19 -22 -185 -4 -285 0 -366 19 -380 12 -10
72 -13 215 -13 l198 0 -20 -40 c-11 -21 -20 -48 -20 -58 0 -28 -52 -118 -82
-142 -15 -11 -29 -33 -33 -49 -7 -33 11 -111 25 -111 6 0 6 10 0 26 -16 42
-12 90 11 115 20 24 20 24 14 2 -10 -35 5 -92 32 -124 37 -44 84 -41 134 10
30 29 39 47 39 72 0 26 6 37 25 45 13 7 25 8 27 3 2 -5 32 -2 68 6 l65 15 -64
-3 -63 -3 6 40 c17 107 19 146 8 146 -14 0 -20 -25 -25 -104 -3 -43 -9 -63
-22 -72 -15 -11 -20 -11 -27 -1 -6 9 -8 9 -8 -1 0 -10 -5 -10 -22 2 -14 10
-44 16 -80 16 -32 0 -58 2 -58 5 0 2 8 18 18 34 16 26 19 28 37 15 24 -18 59
-18 95 1 40 21 49 54 20 77 -27 22 -52 23 -90 3 -37 -19 -39 -6 -10 42 18 30
24 33 69 33 27 0 53 6 59 13 6 7 13 123 17 278 l8 267 -25 16 c-21 14 -59 16
-272 14 -136 -2 -256 -6 -266 -10z m526 -20 c8 -9 17 -245 10 -281 -6 -31 -11
-37 -32 -37 -19 0 -24 4 -20 18 3 9 6 53 8 97 l3 80 -27 0 c-15 1 -31 4 -35 9
-13 12 20 26 50 20 23 -5 27 -2 27 15 0 18 -6 21 -39 21 -30 0 -40 4 -44 20
-7 26 -37 26 -37 1 0 -16 -8 -20 -42 -23 -30 -2 -43 -8 -43 -18 0 -11 14 -16
50 -20 37 -4 46 -8 35 -15 -8 -5 -24 -9 -35 -10 -19 0 -20 -6 -17 -97 l4 -97
-26 -7 c-19 -5 -26 -13 -26 -31 0 -19 3 -23 13 -16 32 26 76 31 134 18 35 -8
64 -10 74 -5 25 14 29 3 29 -85 0 -94 -9 -109 -62 -102 l-33 4 33 13 c17 8 32
18 32 22 0 14 -21 9 -57 -13 -32 -20 -47 -21 -231 -20 -248 2 -232 -11 -232
182 0 76 4 139 9 139 24 0 29 -31 24 -147 -3 -85 -1 -123 7 -128 6 -4 14 -5
16 -2 3 3 6 73 8 156 2 99 7 156 14 163 7 7 12 26 12 43 l-1 30 -23 -26 c-13
-15 -33 -30 -45 -34 -17 -5 -21 -2 -21 14 0 14 6 21 19 21 23 0 71 58 71 85 0
16 -6 13 -35 -15 -39 -37 -48 -35 -47 11 1 41 8 47 62 51 63 5 460 1 466 -4z
m-36 -821 c14 -25 13 -30 -5 -64 -11 -20 -35 -46 -53 -56 -43 -25 -77 -12 -98
38 -15 36 -19 97 -7 109 4 4 39 5 77 4 65 -3 71 -5 86 -31z"/>
<path d="M7394 1156 c-3 -8 -3 -20 1 -26 4 -6 -7 -10 -30 -10 -29 0 -36 -3
-33 -17 2 -12 14 -19 36 -21 43 -4 41 -22 -3 -22 l-34 0 2 -57 3 -57 82 -2
c92 -1 97 4 90 77 -3 30 -7 35 -36 39 -35 5 -40 25 -7 26 54 1 54 34 0 34 -27
0 -34 4 -37 22 -4 26 -26 36 -34 14z"/>
<path d="M7496 611 c-12 -13 -19 -49 -26 -122 -12 -139 -12 -178 0 -159 5 8
10 31 10 51 0 30 9 45 55 91 57 57 69 93 45 139 -14 25 -61 25 -84 0z"/>
</g>
</svg>
