<?xml version="1.0" encoding="utf-8"?>
<!-- Generator: Adobe Illustrator 16.0.0, SVG Export Plug-In . SVG Version: 6.00 Build 0)  -->
<!DOCTYPE svg PUBLIC "-//W3C//DTD SVG 1.1//EN" "http://www.w3.org/Graphics/SVG/1.1/DTD/svg11.dtd">
<svg version="1.1" id="Layer_1" xmlns="http://www.w3.org/2000/svg" xmlns:xlink="http://www.w3.org/1999/xlink" x="0px" y="0px"
	 width="75px" height="75px" viewBox="0 0 75 75" enable-background="new 0 0 75 75" xml:space="preserve">
<circle fill="#AADC00" cx="37.417" cy="37.085" r="36.417"/>
<g>
	<g>
		<path d="M28.928,23.982h-4.082c-0.035,0-0.069-0.035-0.069-0.069V23.51c0-1.695,0.438-2.709,1.995-3.839
			c1.476-1.072,1.683-1.695,1.683-2.145v-0.404c0-0.795-0.645-1.429-1.429-1.429h-0.277c-0.784,0-1.429,0.634-1.429,1.429v0.266
			c0,0.046-0.023,0.069-0.059,0.069h-0.276c-0.035,0-0.069-0.023-0.069-0.069v-0.266c0-1.014,0.819-1.833,1.833-1.833h0.277
			c1.014,0,1.833,0.819,1.833,1.833v0.404c0,0.646-0.335,1.372-1.856,2.479c-1.372,0.992-1.775,1.856-1.811,3.574h3.736
			c0.035,0,0.069,0.023,0.069,0.069v0.265C28.997,23.948,28.962,23.982,28.928,23.982z"/>
		<path d="M33.943,24.121h-0.278c-1.014,0-1.833-0.818-1.833-1.833v-5.165c0-1.014,0.819-1.833,1.833-1.833h0.278
			c1.014,0,1.833,0.819,1.833,1.833v5.165C35.776,23.302,34.958,24.121,33.943,24.121z M35.373,17.123
			c0-0.795-0.646-1.429-1.429-1.429h-0.278c-0.783,0-1.429,0.634-1.429,1.429v5.165c0,0.784,0.646,1.418,1.429,1.418h0.278
			c0.783,0,1.429-0.634,1.429-1.418V17.123z"/>
		<path d="M43.027,23.982h-4.346c-0.035,0-0.07-0.035-0.07-0.069v-0.265c0-0.046,0.035-0.069,0.07-0.069h2.109v-7.725l-1.453,1.695
			c-0.022,0.035-0.069,0.035-0.092,0.012l-0.208-0.173c-0.034-0.023-0.034-0.069-0.012-0.093l1.58-1.845
			c0.012-0.011,0.046-0.022,0.059-0.022h0.46c0.034,0,0.07,0.022,0.07,0.058v8.093h1.832c0.035,0,0.069,0.023,0.069,0.069v0.265
			C43.097,23.948,43.062,23.982,43.027,23.982z"/>
		<path d="M49.818,22.357h-0.749v1.556c0,0.035-0.034,0.069-0.069,0.069h-0.277c-0.034,0-0.069-0.035-0.069-0.069v-1.556h-3.192
			c-0.035,0-0.059-0.035-0.059-0.069v-0.714v-0.035l3.044-6.076c0.012-0.012,0.046-0.035,0.058-0.035h0.312
			c0.058,0,0.081,0.035,0.058,0.092l-3.066,6.134v0.288h2.847v-2.098c0-0.046,0.035-0.069,0.069-0.069H49
			c0.035,0,0.069,0.022,0.069,0.069v2.098h0.749c0.034,0,0.058,0.035,0.058,0.069v0.276C49.876,22.322,49.853,22.357,49.818,22.357z
			"/>
		<path d="M28.859,35.512c0,0.036-0.035,0.069-0.069,0.069h-0.277c-0.034,0-0.058-0.034-0.058-0.069v-2.916h-3.135v2.916
			c0,0.036-0.023,0.069-0.059,0.069h-0.276c-0.035,0-0.069-0.034-0.069-0.069v-3.135v-0.023l1.396-5.28
			c0-0.023,0.035-0.046,0.068-0.046h1.016c0.035,0,0.069,0.023,0.069,0.046l1.395,5.28v0.023V35.512z M27.141,27.431h-0.508
			l-1.245,4.75h2.997L27.141,27.431z"/>
		<path d="M35.845,35.582h-4.081c-0.035,0-0.069-0.034-0.069-0.069v-0.265c0-0.046,0.035-0.069,0.069-0.069h1.833v-7.747h-1.694
			c-0.035,0-0.069-0.035-0.069-0.07v-0.276c0-0.035,0.035-0.058,0.069-0.058h3.804c0.035,0,0.069,0.023,0.069,0.058v0.276
			c0,0.035-0.035,0.07-0.069,0.07h-1.694v7.747h1.833c0.035,0,0.069,0.023,0.069,0.069v0.265
			C35.914,35.548,35.88,35.582,35.845,35.582z"/>
		<path d="M40.998,35.72h-0.414c-1.015,0-1.834-0.818-1.834-1.833v-5.165c0-1.015,0.819-1.833,1.834-1.833h0.414
			c1.003,0,1.834,0.818,1.834,1.833v0.138c0,0.035-0.034,0.069-0.069,0.069h-0.276c-0.035,0-0.069-0.035-0.069-0.069v-0.138
			c0-0.796-0.634-1.43-1.419-1.43h-0.414c-0.785,0-1.43,0.634-1.43,1.43v5.165c0,0.783,0.645,1.417,1.43,1.417h0.414
			c0.785,0,1.419-0.634,1.419-1.417v-0.276c0-0.035,0.034-0.069,0.069-0.069h0.276c0.035,0,0.069,0.035,0.069,0.069v0.276
			C42.832,34.902,42.001,35.72,40.998,35.72z"/>
		<path d="M47.882,32.596h-1.695v2.916c0,0.036-0.034,0.069-0.069,0.069h-0.276c-0.034,0-0.059-0.034-0.059-0.069v-8.427
			c0-0.035,0.024-0.058,0.059-0.058h2.041c1.015,0,1.833,0.819,1.833,1.833v1.902C49.715,31.766,48.896,32.596,47.882,32.596z
			 M49.312,28.86c0-0.795-0.635-1.429-1.43-1.429h-1.695v4.75h1.695c0.795,0,1.43-0.634,1.43-1.418V28.86z"/>
		<path d="M28.79,47.181h-0.508c-0.011,0-0.057-0.022-0.057-0.046l-2.905-7.908v7.885c0,0.035-0.023,0.069-0.059,0.069h-0.276
			c-0.035,0-0.069-0.034-0.069-0.069v-8.427c0-0.035,0.035-0.057,0.069-0.057h0.508c0.012,0,0.057,0.021,0.057,0.033l2.905,7.909
			v-7.886c0-0.035,0.024-0.057,0.058-0.057h0.277c0.035,0,0.069,0.021,0.069,0.057v8.427C28.859,47.146,28.824,47.181,28.79,47.181z
			"/>
		<path d="M35.845,47.181h-3.804c-0.035,0-0.069-0.034-0.069-0.069v-8.427c0-0.035,0.035-0.057,0.069-0.057h3.804
			c0.035,0,0.069,0.021,0.069,0.057v0.276c0,0.034-0.034,0.069-0.069,0.069h-3.47v3.665h3.194c0.035,0,0.069,0.036,0.069,0.069
			v0.276c0,0.036-0.034,0.06-0.069,0.06h-3.194v3.677h3.47c0.035,0,0.069,0.023,0.069,0.069v0.265
			C35.914,47.146,35.88,47.181,35.845,47.181z"/>
		<path d="M42.854,47.181h-0.299c-0.012,0-0.059-0.022-0.059-0.034l-1.775-3.896l-1.774,3.896c0,0.012-0.047,0.034-0.059,0.034h-0.3
			c-0.058,0-0.081-0.046-0.058-0.091l1.972-4.335l-1.845-4.036c-0.022-0.058,0.012-0.091,0.069-0.091h0.299
			c0.012,0,0.047,0.021,0.059,0.033l1.637,3.598l1.637-3.598c0.013-0.012,0.047-0.033,0.059-0.033h0.3
			c0.057,0,0.092,0.033,0.068,0.091l-1.844,4.036l1.971,4.335C42.936,47.135,42.912,47.181,42.854,47.181z"/>
		<path d="M49.818,39.03h-1.972v8.081c0,0.035-0.035,0.069-0.068,0.069h-0.277c-0.035,0-0.069-0.034-0.069-0.069V39.03h-1.971
			c-0.035,0-0.059-0.035-0.059-0.069v-0.276c0-0.035,0.023-0.057,0.059-0.057h4.357c0.034,0,0.058,0.021,0.058,0.057v0.276
			C49.876,38.995,49.853,39.03,49.818,39.03z"/>
		<path d="M21.94,58.711c0,0.035-0.034,0.069-0.069,0.069h-0.277c-0.034,0-0.057-0.034-0.057-0.069v-2.916h-3.136v2.916
			c0,0.035-0.023,0.069-0.058,0.069h-0.276c-0.035,0-0.069-0.034-0.069-0.069v-3.136v-0.023l1.395-5.279
			c0-0.023,0.035-0.048,0.069-0.048h1.015c0.035,0,0.069,0.024,0.069,0.048l1.395,5.279v0.023V58.711z M20.223,50.63h-0.507
			l-1.245,4.75h2.998L20.223,50.63z"/>
		<path d="M29.135,54.25l-0.553,4.473c-0.012,0.023-0.046,0.058-0.069,0.058h-0.496c-0.035,0-0.069-0.022-0.069-0.046l-1.061-4.254
			l-1.072,4.254c0,0.023-0.035,0.046-0.058,0.046H25.25c-0.023,0-0.057-0.034-0.069-0.058l-0.553-4.473l-0.115-3.956
			c0-0.045,0.035-0.069,0.069-0.069h0.277c0.035,0,0.057,0.024,0.057,0.06l0.116,3.932l0.496,3.978l1.038-4.118
			c0-0.021,0.035-0.045,0.058-0.045h0.519c0.023,0,0.058,0.023,0.058,0.045l1.038,4.118l0.496-3.978l0.126-3.932
			c0-0.035,0.022-0.06,0.057-0.06h0.276c0.035,0,0.069,0.024,0.069,0.069L29.135,54.25z"/>
		<path d="M35.776,58.711c0,0.035-0.035,0.069-0.069,0.069H35.43c-0.034,0-0.057-0.034-0.057-0.069v-2.916h-3.136v2.916
			c0,0.035-0.023,0.069-0.058,0.069h-0.276c-0.035,0-0.069-0.034-0.069-0.069v-3.136v-0.023l1.395-5.279
			c0-0.023,0.035-0.048,0.069-0.048h1.014c0.035,0,0.069,0.024,0.069,0.048l1.395,5.279v0.023V58.711z M34.058,50.63h-0.507
			l-1.246,4.75h2.999L34.058,50.63z"/>
		<path d="M41.518,55.714l1.256,2.976c0.024,0.045-0.011,0.091-0.069,0.091h-0.287c-0.023,0-0.059-0.022-0.069-0.046l-1.245-2.939
			h-0.139h-1.695v2.916c0,0.035-0.033,0.069-0.069,0.069h-0.276c-0.034,0-0.058-0.034-0.058-0.069v-8.427
			c0-0.035,0.023-0.06,0.058-0.06h2.041c1.015,0,1.834,0.82,1.834,1.834v1.902C42.798,54.779,42.255,55.473,41.518,55.714z
			 M42.394,52.059c0-0.794-0.635-1.429-1.43-1.429h-1.695v4.75h1.695c0.795,0,1.43-0.635,1.43-1.419V52.059z"/>
		<path d="M47.882,58.78h-2.041c-0.034,0-0.059-0.034-0.059-0.069v-8.427c0-0.035,0.024-0.06,0.059-0.06h2.041
			c1.015,0,1.833,0.82,1.833,1.834v4.89C49.715,57.962,48.896,58.78,47.882,58.78z M49.312,52.059c0-0.794-0.635-1.429-1.43-1.429
			h-1.695v7.747h1.695c0.795,0,1.43-0.646,1.43-1.429V52.059z"/>
		<path d="M54.833,58.918H54.28c-1.004,0-1.833-0.817-1.833-1.831v-0.139c0-0.035,0.034-0.071,0.068-0.071h0.277
			c0.034,0,0.068,0.036,0.068,0.071v0.139c0,0.782,0.635,1.416,1.419,1.416h0.553c0.785,0,1.418-0.634,1.418-1.416V56.67
			c0-2.282-3.666-1.867-3.666-4.345V51.92c0-1.014,0.819-1.833,1.834-1.833h0.276c1.015,0,1.833,0.819,1.833,1.833v0.139
			c0,0.035-0.034,0.069-0.068,0.069h-0.277c-0.035,0-0.058-0.034-0.058-0.069V51.92c0-0.794-0.646-1.428-1.43-1.428h-0.276
			c-0.785,0-1.43,0.634-1.43,1.428v0.405c0,1.197,1.222,1.672,2.086,2.155c0.889,0.484,1.592,1.05,1.592,2.189v0.417
			C56.667,58.101,55.836,58.918,54.833,58.918z"/>
	</g>
</g>
</svg>
