<?xml version="1.0" encoding="utf-8"?>
<!-- Generator: Adobe Illustrator 16.0.0, SVG Export Plug-In . SVG Version: 6.00 Build 0)  -->
<!DOCTYPE svg PUBLIC "-//W3C//DTD SVG 1.1//EN" "http://www.w3.org/Graphics/SVG/1.1/DTD/svg11.dtd">
<svg version="1.1" id="Layer_1" xmlns="http://www.w3.org/2000/svg" xmlns:xlink="http://www.w3.org/1999/xlink" x="0px" y="0px"
	 width="75px" height="75px" viewBox="0 0 75 75" enable-background="new 0 0 75 75" xml:space="preserve">
<circle fill="#34D4FF" cx="37.5" cy="37.5" r="35.81"/>
<g>
	<path fill="none" d="M26.297,45.275h-1.702v3.433h1.702c0.691,0,1.254-0.562,1.254-1.254v-0.938
		C27.551,45.832,26.988,45.275,26.297,45.275z"/>
	<path fill="none" d="M49.242,55.341h-1.548v4.693h1.548c0.684,0,1.24-0.557,1.24-1.24v-2.213
		C50.482,55.897,49.926,55.341,49.242,55.341z"/>
	<path fill="none" d="M33.408,19.262h0.309c0.684,0,1.239-0.556,1.239-1.24v-5.995c0-0.684-0.556-1.24-1.239-1.24h-0.309
		c-0.684,0-1.239,0.557-1.239,1.24v5.995C32.169,18.706,32.725,19.262,33.408,19.262z"/>
	<path fill="none" d="M27.383,42.733v-0.952c0-0.684-0.557-1.24-1.24-1.24h-1.548v3.433h1.548
		C26.826,43.974,27.383,43.417,27.383,42.733z"/>
	<path fill="none" d="M33.801,40.387h-0.477c-0.684,0-1.239,0.557-1.239,1.24v5.995c0,0.684,0.556,1.24,1.239,1.24h0.477
		c0.684,0,1.239-0.557,1.239-1.24v-5.995C35.04,40.943,34.484,40.387,33.801,40.387z"/>
	<polygon fill="none" points="32.36,60.034 34.765,60.034 33.562,55.431 	"/>
	<path fill="none" d="M41.5,40.387h-0.476c-0.684,0-1.24,0.557-1.24,1.24v5.995c0,0.684,0.557,1.24,1.24,1.24H41.5
		c0.684,0,1.24-0.557,1.24-1.24v-5.995C42.74,40.943,42.184,40.387,41.5,40.387z"/>
	<path fill="none" d="M49.242,25.741h-1.548v4.693h1.548c0.684,0,1.24-0.556,1.24-1.24v-2.213
		C50.482,26.297,49.926,25.741,49.242,25.741z"/>
	<polygon fill="none" points="24.66,30.434 27.064,30.434 25.862,25.831 	"/>
	<path d="M23.362,19.437v0.63l5.001-0.021v-0.61l-4.415,0.021l0.003-0.178c0.03-1.772,0.558-2.747,2.088-3.864
		c1.913-1.396,2.171-2.256,2.171-2.913v-0.476c0-1.209-0.983-2.192-2.192-2.192h-0.309c-1.209,0-2.192,0.983-2.192,2.192v0.476
		l0.609-0.021l-0.007-0.456c0-0.877,0.713-1.59,1.59-1.59h0.309c0.876,0,1.589,0.713,1.589,1.59v0.476
		c0,0.485-0.218,1.2-1.922,2.439C23.948,16.196,23.362,17.33,23.362,19.437z"/>
	<path d="M33.408,20.201h0.309c1.209,0,2.192-0.978,2.192-2.179v-5.995c0-1.209-0.983-2.192-2.192-2.192h-0.309
		c-1.209,0-2.192,0.983-2.192,2.192v5.995C31.216,19.223,32.199,20.201,33.408,20.201z M31.819,12.027
		c0-0.877,0.713-1.59,1.589-1.59h0.309c0.876,0,1.589,0.713,1.589,1.59v5.995c0,0.876-0.713,1.589-1.589,1.589h-0.309
		c-0.876,0-1.589-0.713-1.589-1.589V12.027z"/>
	<path d="M38.762,20.067l5.326-0.021l-0.003-0.61l-2.213,0.021V9.981l-0.75,0.021c0.002,0-0.006,0.004-0.016,0.007l-1.967,2.299
		l0.485,0.383l1.658-1.967v8.732h-2.542L38.762,20.067z"/>
	<polygon points="51.617,17.546 50.679,17.566 50.679,15.024 50.069,15.045 50.076,17.566 46.896,17.566 46.915,17.257 
		50.541,10.005 49.881,10.002 46.305,17.187 46.308,18.176 49.901,18.155 50.076,18.155 50.076,20.067 50.679,20.047 50.679,18.155 
		51.638,18.155 	"/>
	<path d="M27.606,34.867l0.604-0.02v-3.804l-1.647-6.259l-1.414,0.018l-1.632,6.221v3.843l0.609-0.021l-0.007-3.46h3.487V34.867z
		 M24.207,30.784l1.409-5.392h0.493l1.408,5.392H24.207z"/>
	<polygon points="33.864,25.392 35.93,25.392 35.909,24.782 31.195,24.803 31.216,25.412 33.261,25.392 33.261,34.258 
		31.041,34.258 31.062,34.867 36.063,34.847 36.063,34.237 33.864,34.258 	"/>
	<path d="M41.57,25.237c0.885,0,1.604,0.713,1.604,1.59v0.322l0.609-0.021l-0.021-0.301c0-1.209-0.983-2.192-2.192-2.192h-0.462
		c-1.209,0-2.192,0.983-2.192,2.192v5.995c0,1.201,0.983,2.179,2.192,2.179h0.462c1.209,0,2.192-0.978,2.192-2.179v-0.476
		l-0.609,0.021l0.021,0.456c0,0.877-0.719,1.59-1.604,1.59h-0.462c-0.877,0-1.59-0.713-1.59-1.59v-5.995
		c0-0.877,0.713-1.59,1.59-1.59H41.57z"/>
	<path d="M49.242,24.803h-2.521l0.021,10.064l0.605-0.021l-0.003-3.46h1.897c1.209,0,2.192-0.983,2.192-2.192v-2.213
		C51.435,25.78,50.451,24.803,49.242,24.803z M50.832,29.194c0,0.876-0.713,1.589-1.59,1.589h-1.897v-5.392h1.897
		c0.877,0,1.59,0.713,1.59,1.589V29.194z"/>
	<path d="M27.543,44.713l-0.193-0.132l0.182-0.148c0.511-0.417,0.804-1.036,0.804-1.699v-0.952c0-1.201-0.983-2.179-2.192-2.179
		h-2.521l0.021,10.064l2.654-0.021c1.209,0,2.192-0.983,2.192-2.192v-0.938C28.489,45.791,28.136,45.116,27.543,44.713z
		 M24.245,40.191h1.897c0.877,0,1.59,0.713,1.59,1.59v0.952c0,0.877-0.713,1.59-1.59,1.59h-1.897V40.191z M27.9,47.454
		c0,0.885-0.719,1.604-1.604,1.604h-2.052v-4.132h2.052c0.885,0,1.604,0.713,1.604,1.59V47.454z"/>
	<path d="M33.801,39.435h-0.477c-1.209,0-2.192,0.983-2.192,2.192v5.995c0,1.201,0.983,2.179,2.192,2.179h0.477
		c1.209,0,2.192-0.978,2.192-2.179v-5.995C35.993,40.418,35.01,39.435,33.801,39.435z M35.39,47.622c0,0.877-0.713,1.59-1.589,1.59
		h-0.477c-0.876,0-1.589-0.713-1.589-1.59v-5.995c0-0.877,0.713-1.59,1.589-1.59h0.477c0.876,0,1.589,0.713,1.589,1.59V47.622z"/>
	<path d="M41.5,39.435h-0.476c-1.209,0-2.192,0.983-2.192,2.192v5.995c0,1.201,0.983,2.179,2.192,2.179H41.5
		c1.209,0,2.192-0.978,2.192-2.179v-5.995C43.692,40.418,42.709,39.435,41.5,39.435z M43.09,47.622c0,0.877-0.713,1.59-1.59,1.59
		h-0.476c-0.877,0-1.59-0.713-1.59-1.59v-5.995c0-0.877,0.713-1.59,1.59-1.59H41.5c0.877,0,1.59,0.713,1.59,1.59V47.622z"/>
	<polygon points="51.617,39.582 46.287,39.603 46.308,40.212 48.486,40.191 48.661,40.191 48.661,49.667 49.267,49.646 
		49.264,40.191 51.638,40.191 	"/>
	<path d="M28.385,56.729l-0.021-0.302c0-1.209-0.983-2.192-2.192-2.192h-0.462c-1.209,0-2.192,0.983-2.192,2.192v5.995
		c0,1.201,0.983,2.179,2.192,2.179h0.462c1.209,0,2.192-0.978,2.192-2.179v-0.477l-0.609,0.021l0.021,0.455
		c0,0.877-0.719,1.59-1.604,1.59h-0.462c-0.877,0-1.59-0.713-1.59-1.59v-5.995c0-0.877,0.713-1.59,1.59-1.59h0.462
		c0.885,0,1.604,0.713,1.604,1.59v0.322L28.385,56.729z"/>
	<path d="M32.848,54.402l-1.632,6.221v3.844l0.61-0.021l-0.007-3.46h3.486v3.48l0.604-0.02v-3.805l-1.646-6.258L32.848,54.402z
		 M31.907,60.384l1.409-5.393h0.493l1.408,5.393H31.907z"/>
	<path d="M41.555,58.528c-0.076,0.241-0.117,0.724-0.117,0.729h-0.35c0-0.005-0.041-0.487-0.119-0.732l-1.413-4.143l-1.291,0.021
		l0.021,10.064l0.609-0.021l-0.021-7.865c0-0.351-0.082-1.123-0.083-1.131l-0.021-0.193h0.626l0.021,0.15
		c0.002,0.007,0.111,0.772,0.23,1.116l1.261,3.528l0.731-0.018l1.235-3.512c0.119-0.343,0.229-1.108,0.23-1.115l0.021-0.15h0.626
		l-0.021,0.193c-0.001,0.008-0.083,0.78-0.083,1.131v7.886l0.589-0.02V54.382l-1.282,0.021L41.555,58.528z"/>
	<path d="M49.242,54.402h-2.521l0.021,10.064l0.605-0.021l-0.003-3.46h1.897c1.209,0,2.192-0.983,2.192-2.192v-2.213
		C51.435,55.38,50.451,54.402,49.242,54.402z M50.832,58.794c0,0.877-0.713,1.59-1.59,1.59h-1.897v-5.393h1.897
		c0.877,0,1.59,0.713,1.59,1.59V58.794z"/>
</g>
</svg>
