<?xml version="1.0" encoding="utf-8"?>
<!-- Generator: Adobe Illustrator 16.0.0, SVG Export Plug-In . SVG Version: 6.00 Build 0)  -->
<!DOCTYPE svg PUBLIC "-//W3C//DTD SVG 1.1//EN" "http://www.w3.org/Graphics/SVG/1.1/DTD/svg11.dtd">
<svg version="1.1" id="Layer_1" xmlns="http://www.w3.org/2000/svg" xmlns:xlink="http://www.w3.org/1999/xlink" x="0px" y="0px"
	 width="75px" height="75px" viewBox="0 0 75 75" enable-background="new 0 0 75 75" xml:space="preserve">
<g>
	<circle fill="#FF34DD" cx="37.486" cy="37.055" r="36.347"/>
	<g>
		<g>
			<path d="M29.445,17.516h-4.074c-0.035,0-0.068-0.035-0.068-0.069v-0.402c0-1.692,0.437-2.705,1.99-3.833
				c1.473-1.07,1.68-1.692,1.68-2.14v-0.403c0-0.793-0.644-1.426-1.427-1.426h-0.276c-0.783,0-1.426,0.632-1.426,1.426v0.265
				c0,0.046-0.023,0.07-0.059,0.07h-0.275c-0.035,0-0.069-0.023-0.069-0.07v-0.265c0-1.012,0.817-1.829,1.829-1.829h0.276
				c1.013,0,1.83,0.817,1.83,1.829v0.403c0,0.644-0.333,1.369-1.852,2.475c-1.37,0.989-1.772,1.852-1.807,3.567h3.729
				c0.034,0,0.068,0.023,0.068,0.069v0.265C29.513,17.481,29.479,17.516,29.445,17.516z"/>
			<path d="M34.163,17.654h-0.276c-1.013,0-1.83-0.817-1.83-1.83v-5.155c0-1.012,0.817-1.829,1.83-1.829h0.276
				c1.013,0,1.83,0.817,1.83,1.829v5.155C35.992,16.837,35.175,17.654,34.163,17.654z M35.589,10.669
				c0-0.793-0.645-1.426-1.427-1.426h-0.276c-0.782,0-1.427,0.632-1.427,1.426v5.155c0,0.783,0.645,1.416,1.427,1.416h0.276
				c0.782,0,1.427-0.633,1.427-1.416V10.669z"/>
			<path d="M42.943,17.516h-4.34c-0.033,0-0.068-0.035-0.068-0.069v-0.265c0-0.046,0.035-0.069,0.068-0.069h2.105v-7.71
				l-1.449,1.691c-0.022,0.035-0.068,0.035-0.092,0.012l-0.207-0.173c-0.034-0.022-0.034-0.069-0.012-0.091L40.525,9
				c0.013-0.011,0.046-0.023,0.059-0.023h0.46c0.034,0,0.068,0.023,0.068,0.058v8.079h1.831c0.033,0,0.068,0.023,0.068,0.069v0.265
				C43.012,17.481,42.977,17.516,42.943,17.516z"/>
			<path d="M49.433,15.893h-0.748v1.554c0,0.034-0.035,0.069-0.068,0.069h-0.277c-0.033,0-0.068-0.035-0.068-0.069v-1.554h-3.188
				c-0.034,0-0.057-0.034-0.057-0.069v-0.713v-0.034l3.037-6.064C48.074,9,48.109,8.978,48.121,8.978h0.311
				c0.058,0,0.079,0.035,0.058,0.092l-3.061,6.122v0.288h2.842v-2.094c0-0.047,0.035-0.07,0.068-0.07h0.277
				c0.033,0,0.068,0.023,0.068,0.07v2.094h0.748c0.035,0,0.057,0.035,0.057,0.069v0.276C49.489,15.859,49.468,15.893,49.433,15.893z
				"/>
			<path d="M29.375,29.024c0,0.034-0.034,0.069-0.069,0.069H29.03c-0.034,0-0.058-0.035-0.058-0.069v-2.911h-3.129v2.911
				c0,0.034-0.023,0.069-0.059,0.069h-0.275c-0.035,0-0.069-0.035-0.069-0.069v-3.13v-0.023l1.393-5.271
				c0-0.023,0.034-0.046,0.068-0.046h1.013c0.035,0,0.069,0.023,0.069,0.046l1.392,5.271v0.023V29.024z M27.661,20.958h-0.507
				l-1.243,4.741h2.992L27.661,20.958z"/>
			<path d="M36.061,29.093h-4.073c-0.035,0-0.07-0.035-0.07-0.069V28.76c0-0.046,0.035-0.069,0.07-0.069h1.829v-7.732h-1.691
				c-0.035,0-0.07-0.034-0.07-0.069v-0.276c0-0.035,0.035-0.058,0.07-0.058h3.796c0.035,0,0.07,0.023,0.07,0.058v0.276
				c0,0.035-0.035,0.069-0.07,0.069h-1.691v7.732h1.829c0.035,0,0.07,0.023,0.07,0.069v0.265
				C36.13,29.059,36.095,29.093,36.061,29.093z"/>
			<path d="M40.917,29.231h-0.414c-1.013,0-1.83-0.816-1.83-1.829v-5.155c0-1.013,0.817-1.83,1.83-1.83h0.414
				c1.001,0,1.83,0.817,1.83,1.83v0.138c0,0.034-0.035,0.069-0.069,0.069h-0.276c-0.035,0-0.069-0.035-0.069-0.069v-0.138
				c0-0.794-0.632-1.428-1.415-1.428h-0.414c-0.783,0-1.427,0.633-1.427,1.428v5.155c0,0.782,0.644,1.415,1.427,1.415h0.414
				c0.783,0,1.415-0.633,1.415-1.415v-0.276c0-0.035,0.034-0.069,0.069-0.069h0.276c0.034,0,0.069,0.034,0.069,0.069v0.276
				C42.747,28.415,41.918,29.231,40.917,29.231z"/>
			<path d="M47.499,26.113h-1.691v2.911c0,0.034-0.034,0.069-0.069,0.069h-0.276c-0.033,0-0.058-0.035-0.058-0.069v-8.412
				c0-0.035,0.024-0.058,0.058-0.058h2.037c1.012,0,1.829,0.817,1.829,1.83v1.899C49.328,25.284,48.511,26.113,47.499,26.113z
				 M48.926,22.385c0-0.794-0.633-1.427-1.427-1.427h-1.691v4.741h1.691c0.794,0,1.427-0.633,1.427-1.416V22.385z"/>
			<path d="M11.108,40.671H9.071c-0.035,0-0.058-0.035-0.058-0.069V32.19c0-0.034,0.023-0.058,0.058-0.058h2.037
				c1.013,0,1.83,0.817,1.83,1.831v4.878C12.938,39.854,12.121,40.671,11.108,40.671z M12.534,33.962
				c0-0.794-0.632-1.428-1.426-1.428H9.416v7.733h1.692c0.794,0,1.426-0.645,1.426-1.427V33.962z"/>
			<path d="M19.52,40.671h-4.073c-0.035,0-0.069-0.035-0.069-0.069v-0.265c0-0.045,0.034-0.069,0.069-0.069h1.83v-7.733h-1.692
				c-0.034,0-0.069-0.034-0.069-0.069V32.19c0-0.034,0.035-0.058,0.069-0.058h3.797c0.034,0,0.069,0.024,0.069,0.058v0.276
				c0,0.035-0.035,0.069-0.069,0.069h-1.692v7.733h1.83c0.034,0,0.07,0.024,0.07,0.069v0.265
				C19.589,40.636,19.553,40.671,19.52,40.671z"/>
			<path d="M24.894,37.61l1.254,2.969c0.022,0.046-0.012,0.092-0.07,0.092h-0.287c-0.023,0-0.057-0.022-0.069-0.046l-1.243-2.935
				h-0.138h-1.693v2.912c0,0.034-0.034,0.069-0.068,0.069h-0.276c-0.034,0-0.058-0.035-0.058-0.069V32.19
				c0-0.034,0.023-0.058,0.058-0.058h2.037c1.012,0,1.829,0.817,1.829,1.831v1.898C26.17,36.677,25.63,37.369,24.894,37.61z
				 M25.768,33.962c0-0.794-0.633-1.428-1.426-1.428h-1.693v4.741h1.693c0.793,0,1.426-0.632,1.426-1.416V33.962z"/>
			<path d="M32.753,40.671h-3.797c-0.036,0-0.07-0.035-0.07-0.069V32.19c0-0.034,0.034-0.058,0.07-0.058h3.797
				c0.034,0,0.068,0.024,0.068,0.058v0.276c0,0.035-0.035,0.069-0.068,0.069h-3.464v3.66h3.188c0.034,0,0.068,0.035,0.068,0.069
				v0.276c0,0.035-0.034,0.058-0.068,0.058h-3.188v3.67h3.464c0.034,0,0.068,0.024,0.068,0.069v0.265
				C32.821,40.636,32.787,40.671,32.753,40.671z"/>
			<path d="M37.609,40.81h-0.415c-1.013,0-1.83-0.817-1.83-1.831v-5.154c0-1.013,0.817-1.831,1.83-1.831h0.415
				c1.001,0,1.829,0.817,1.829,1.831v0.138c0,0.035-0.035,0.068-0.068,0.068h-0.277c-0.034,0-0.068-0.034-0.068-0.068v-0.138
				c0-0.793-0.633-1.428-1.415-1.428h-0.415c-0.783,0-1.427,0.634-1.427,1.428v5.154c0,0.783,0.644,1.416,1.427,1.416h0.415
				c0.782,0,1.415-0.633,1.415-1.416v-0.275c0-0.035,0.034-0.069,0.068-0.069h0.277c0.033,0,0.068,0.034,0.068,0.069v0.275
				C39.438,39.992,38.61,40.81,37.609,40.81z"/>
			<path d="M46.124,32.535h-1.968v8.067c0,0.034-0.035,0.069-0.069,0.069h-0.275c-0.035,0-0.069-0.035-0.069-0.069v-8.067h-1.968
				c-0.035,0-0.058-0.034-0.058-0.069V32.19c0-0.034,0.022-0.058,0.058-0.058h4.35c0.035,0,0.057,0.024,0.057,0.058v0.276
				C46.181,32.5,46.159,32.535,46.124,32.535z"/>
			<path d="M50.773,40.81h-0.415c-1.012,0-1.829-0.817-1.829-1.831v-5.154c0-1.013,0.817-1.831,1.829-1.831h0.415
				c1.012,0,1.83,0.817,1.83,1.831v5.154C52.604,39.992,51.785,40.81,50.773,40.81z M52.188,33.824c0-0.793-0.632-1.428-1.414-1.428
				h-0.415c-0.782,0-1.415,0.634-1.415,1.428v5.154c0,0.783,0.633,1.416,1.415,1.416h0.415c0.782,0,1.414-0.633,1.414-1.416V33.824z
				"/>
			<path d="M57.977,37.61l1.254,2.969c0.023,0.046-0.011,0.092-0.069,0.092h-0.287c-0.023,0-0.058-0.022-0.068-0.046l-1.243-2.935
				h-0.138h-1.692v2.912c0,0.034-0.034,0.069-0.068,0.069h-0.277c-0.033,0-0.058-0.035-0.058-0.069V32.19
				c0-0.034,0.024-0.058,0.058-0.058h2.038c1.012,0,1.829,0.817,1.829,1.831v1.898C59.254,36.677,58.713,37.369,57.977,37.61z
				 M58.851,33.962c0-0.794-0.632-1.428-1.426-1.428h-1.692v4.741h1.692c0.794,0,1.426-0.632,1.426-1.416V33.962z"/>
			<path d="M64.074,40.81h-0.551c-1.001,0-1.831-0.817-1.831-1.831v-0.138c0-0.034,0.036-0.069,0.07-0.069h0.275
				c0.035,0,0.069,0.035,0.069,0.069v0.138c0,0.783,0.634,1.416,1.416,1.416h0.551c0.783,0,1.416-0.633,1.416-1.416v-0.413
				c0-2.279-3.659-1.865-3.659-4.339v-0.402c0-1.013,0.818-1.831,1.829-1.831h0.276c1.014,0,1.83,0.817,1.83,1.831v0.138
				c0,0.035-0.035,0.068-0.068,0.068h-0.277c-0.033,0-0.057-0.034-0.057-0.068v-0.138c0-0.793-0.645-1.428-1.428-1.428H63.66
				c-0.781,0-1.427,0.634-1.427,1.428v0.402c0,1.197,1.221,1.668,2.083,2.152c0.887,0.483,1.589,1.047,1.589,2.187v0.413
				C65.905,39.992,65.077,40.81,64.074,40.81z"/>
			<path d="M19.658,52.248h-3.533c-0.034,0-0.069-0.034-0.069-0.068v-8.412c0-0.035,0.035-0.058,0.069-0.058h0.276
				c0.035,0,0.069,0.022,0.069,0.058v8.078h3.188c0.034,0,0.057,0.022,0.057,0.069v0.265C19.714,52.214,19.692,52.248,19.658,52.248
				z"/>
			<path d="M26.136,52.248h-3.797c-0.034,0-0.068-0.034-0.068-0.068v-8.412c0-0.035,0.034-0.058,0.068-0.058h3.797
				c0.035,0,0.069,0.022,0.069,0.058v0.275c0,0.035-0.035,0.069-0.069,0.069h-3.463v3.659h3.188c0.034,0,0.068,0.035,0.068,0.069
				v0.276c0,0.035-0.035,0.057-0.068,0.057h-3.188v3.672h3.463c0.035,0,0.069,0.022,0.069,0.069v0.265
				C26.205,52.214,26.17,52.248,26.136,52.248z"/>
			<path d="M30.992,52.386h-0.414c-1.013,0-1.83-0.817-1.83-1.828v-5.155c0-1.015,0.817-1.83,1.83-1.83h0.414
				c1.001,0,1.83,0.815,1.83,1.83v0.138c0,0.034-0.035,0.068-0.068,0.068h-0.276c-0.035,0-0.07-0.034-0.07-0.068v-0.138
				c0-0.795-0.633-1.428-1.416-1.428h-0.414c-0.782,0-1.427,0.633-1.427,1.428v5.155c0,0.781,0.645,1.415,1.427,1.415h0.414
				c0.783,0,1.416-0.634,1.416-1.415V50.28c0-0.034,0.035-0.068,0.07-0.068h0.276c0.034,0,0.068,0.034,0.068,0.068v0.277
				C32.821,51.568,31.993,52.386,30.992,52.386z"/>
			<path d="M39.508,44.112H37.54v8.067c0,0.034-0.035,0.068-0.069,0.068h-0.276c-0.036,0-0.07-0.034-0.07-0.068v-8.067h-1.967
				c-0.034,0-0.057-0.034-0.057-0.069v-0.275c0-0.035,0.023-0.058,0.057-0.058h4.35c0.034,0,0.058,0.022,0.058,0.058v0.275
				C39.565,44.078,39.542,44.112,39.508,44.112z"/>
			<path d="M44.087,52.386h-0.275c-1.014,0-1.83-0.817-1.83-1.828v-6.79c0-0.035,0.034-0.058,0.069-0.058h0.275
				c0.035,0,0.059,0.022,0.059,0.058v6.79c0,0.781,0.645,1.415,1.427,1.415h0.275c0.783,0,1.428-0.634,1.428-1.415v-6.79
				c0-0.035,0.022-0.058,0.058-0.058h0.275c0.035,0,0.068,0.022,0.068,0.058v6.79C45.916,51.568,45.1,52.386,44.087,52.386z"/>
			<path d="M51.36,49.188l1.254,2.968c0.021,0.047-0.011,0.093-0.069,0.093h-0.287c-0.023,0-0.059-0.022-0.07-0.046l-1.242-2.935
				h-0.138h-1.692v2.912c0,0.034-0.033,0.068-0.068,0.068h-0.276c-0.035,0-0.058-0.034-0.058-0.068v-8.412
				c0-0.035,0.022-0.058,0.058-0.058h2.037c1.013,0,1.828,0.817,1.828,1.83v1.897C52.636,48.255,52.097,48.945,51.36,49.188z
				 M52.234,45.54c0-0.795-0.634-1.428-1.427-1.428h-1.692v4.742h1.692c0.793,0,1.427-0.635,1.427-1.417V45.54z"/>
			<path d="M59.22,52.248h-3.798c-0.035,0-0.068-0.034-0.068-0.068v-8.412c0-0.035,0.033-0.058,0.068-0.058h3.798
				c0.034,0,0.068,0.022,0.068,0.058v0.275c0,0.035-0.034,0.069-0.068,0.069h-3.464v3.659h3.188c0.034,0,0.069,0.035,0.069,0.069
				v0.276c0,0.035-0.035,0.057-0.069,0.057h-3.188v3.672h3.464c0.034,0,0.068,0.022,0.068,0.069v0.265
				C59.288,52.214,59.254,52.248,59.22,52.248z"/>
			<path d="M21.068,63.964h-0.553c-1.002,0-1.829-0.817-1.829-1.83v-0.138c0-0.034,0.034-0.07,0.068-0.07h0.276
				c0.034,0,0.07,0.036,0.07,0.07v0.138c0,0.782,0.632,1.415,1.415,1.415h0.553c0.782,0,1.415-0.633,1.415-1.415v-0.415
				c0-2.277-3.659-1.863-3.659-4.338v-0.402c0-1.013,0.816-1.83,1.829-1.83h0.277c1.012,0,1.829,0.817,1.829,1.83v0.138
				c0,0.035-0.034,0.068-0.069,0.068h-0.276c-0.034,0-0.057-0.033-0.057-0.068v-0.138c0-0.794-0.644-1.427-1.426-1.427h-0.277
				c-0.783,0-1.427,0.633-1.427,1.427v0.402c0,1.197,1.22,1.669,2.083,2.152c0.886,0.484,1.588,1.048,1.588,2.186v0.415
				C22.897,63.146,22.068,63.964,21.068,63.964z"/>
			<path d="M29.445,63.824h-3.798c-0.035,0-0.068-0.032-0.068-0.067v-8.413c0-0.033,0.034-0.057,0.068-0.057h3.798
				c0.034,0,0.068,0.023,0.068,0.057v0.275c0,0.036-0.034,0.071-0.068,0.071H25.98v3.659h3.188c0.034,0,0.068,0.033,0.068,0.069
				v0.274c0,0.035-0.034,0.06-0.068,0.06H25.98v3.669h3.464c0.034,0,0.068,0.023,0.068,0.07v0.265
				C29.513,63.792,29.479,63.824,29.445,63.824z"/>
			<path d="M34.818,60.764l1.254,2.97c0.023,0.046-0.012,0.091-0.068,0.091h-0.288c-0.024,0-0.059-0.021-0.069-0.045l-1.243-2.934
				h-0.139h-1.691v2.911c0,0.035-0.035,0.067-0.069,0.067h-0.276c-0.035,0-0.058-0.032-0.058-0.067v-8.413
				c0-0.033,0.023-0.057,0.058-0.057h2.036c1.014,0,1.83,0.817,1.83,1.829v1.899C36.095,59.832,35.554,60.524,34.818,60.764z
				 M35.692,57.116c0-0.794-0.632-1.426-1.427-1.426h-1.691v4.74h1.691c0.795,0,1.427-0.632,1.427-1.415V57.116z"/>
			<path d="M42.678,63.824h-4.074c-0.033,0-0.068-0.032-0.068-0.067v-0.265c0-0.047,0.035-0.07,0.068-0.07h1.829V55.69h-1.69
				c-0.034,0-0.069-0.035-0.069-0.071v-0.275c0-0.033,0.035-0.057,0.069-0.057h3.797c0.035,0,0.07,0.023,0.07,0.057v0.275
				c0,0.036-0.035,0.071-0.07,0.071h-1.691v7.731h1.83c0.034,0,0.069,0.023,0.069,0.07v0.265
				C42.747,63.792,42.712,63.824,42.678,63.824z"/>
			<path d="M49.295,63.824h-3.798c-0.035,0-0.068-0.032-0.068-0.067v-8.413c0-0.033,0.033-0.057,0.068-0.057h3.798
				c0.033,0,0.068,0.023,0.068,0.057v0.275c0,0.036-0.035,0.071-0.068,0.071h-3.464v3.659h3.188c0.033,0,0.069,0.033,0.069,0.069
				v0.274c0,0.035-0.036,0.06-0.069,0.06h-3.188v3.669h3.464c0.033,0,0.068,0.023,0.068,0.07v0.265
				C49.363,63.792,49.328,63.824,49.295,63.824z"/>
			<path d="M54.15,63.964h-0.552c-1.002,0-1.83-0.817-1.83-1.83v-0.138c0-0.034,0.034-0.07,0.069-0.07h0.275
				c0.034,0,0.069,0.036,0.069,0.07v0.138c0,0.782,0.633,1.415,1.416,1.415h0.552c0.783,0,1.416-0.633,1.416-1.415v-0.415
				c0-2.277-3.66-1.863-3.66-4.338v-0.402c0-1.013,0.817-1.83,1.83-1.83h0.275c1.014,0,1.83,0.817,1.83,1.83v0.138
				c0,0.035-0.034,0.068-0.069,0.068h-0.276c-0.035,0-0.057-0.033-0.057-0.068v-0.138c0-0.794-0.646-1.427-1.428-1.427h-0.275
				c-0.783,0-1.427,0.633-1.427,1.427v0.402c0,1.197,1.219,1.669,2.082,2.152c0.887,0.484,1.588,1.048,1.588,2.186v0.415
				C55.979,63.146,55.151,63.964,54.15,63.964z"/>
		</g>
	</g>
</g>
</svg>
