<?xml version="1.0" encoding="utf-8"?>
<!-- Generator: Adobe Illustrator 16.0.0, SVG Export Plug-In . SVG Version: 6.00 Build 0)  -->
<!DOCTYPE svg PUBLIC "-//W3C//DTD SVG 1.1//EN" "http://www.w3.org/Graphics/SVG/1.1/DTD/svg11.dtd">
<svg version="1.1" id="Layer_1" xmlns="http://www.w3.org/2000/svg" xmlns:xlink="http://www.w3.org/1999/xlink" x="0px" y="0px"
	 width="75px" height="75px" viewBox="0 0 75 75" enable-background="new 0 0 75 75" xml:space="preserve">
<g>
	<path d="M52.159,31.132v7.876h2.811c1.319,0,2.37-1.053,2.37-2.352v-3.154c0-1.319-1.051-2.37-2.37-2.37H52.159z"/>
	<polygon points="19.74,31.132 17.676,39.008 22.646,39.008 20.582,31.132 	"/>
	<path d="M31.4,26.98h0.459c1.3,0,2.37-1.051,2.37-2.351v-8.563c0-1.319-1.07-2.37-2.37-2.37H31.4c-1.299,0-2.37,1.051-2.37,2.37
		v8.563C29.03,25.929,30.101,26.98,31.4,26.98z"/>
	<path d="M37.501,0.538c-20.414,0-36.962,16.548-36.962,36.961c0,20.414,16.548,36.963,36.962,36.963
		c20.413,0,36.961-16.549,36.961-36.963C74.462,17.086,57.914,0.538,37.501,0.538z M28.361,16.065c0-1.682,1.357-3.039,3.039-3.039
		h0.459c1.683,0,3.04,1.357,3.04,3.039v8.563c0,1.682-1.357,3.04-3.04,3.04H31.4c-1.682,0-3.039-1.358-3.039-3.04V16.065z
		 M16.663,26.655c0-2.81,0.727-4.492,3.308-6.365c2.447-1.778,2.791-2.81,2.791-3.556v-0.669c0-1.319-1.07-2.37-2.371-2.37h-0.458
		c-1.3,0-2.37,1.051-2.37,2.37v0.44c0,0.076-0.038,0.114-0.096,0.114h-0.459c-0.057,0-0.115-0.039-0.115-0.114v-0.44
		c0-1.682,1.357-3.039,3.04-3.039h0.458c1.683,0,3.04,1.357,3.04,3.039v0.669c0,1.071-0.554,2.275-3.077,4.11
		c-2.275,1.644-2.944,3.078-3.001,5.926h6.193c0.057,0,0.115,0.038,0.115,0.114v0.439c0,0.058-0.058,0.115-0.115,0.115h-6.767
		c-0.058,0-0.115-0.058-0.115-0.115V26.655z M17.562,39.695v4.836c0,0.058-0.038,0.115-0.096,0.115h-0.459
		c-0.057,0-0.115-0.058-0.115-0.115v-5.199v-0.039l2.313-8.753c0-0.039,0.058-0.077,0.115-0.077h1.682
		c0.057,0,0.114,0.038,0.114,0.077l2.313,8.753v0.039v5.199c0,0.058-0.057,0.115-0.115,0.115h-0.458
		c-0.058,0-0.096-0.058-0.096-0.115v-4.836H17.562z M23.889,54.341l-0.918,7.417c-0.019,0.038-0.076,0.095-0.114,0.095h-0.822
		c-0.058,0-0.115-0.038-0.115-0.075l-1.759-7.054l-1.778,7.054c0,0.037-0.057,0.075-0.095,0.075h-0.841
		c-0.038,0-0.095-0.057-0.115-0.095l-0.917-7.417l-0.191-6.556c0-0.077,0.058-0.115,0.115-0.115h0.459
		c0.057,0,0.095,0.038,0.095,0.095l0.191,6.52l0.822,6.595l1.721-6.825c0-0.038,0.057-0.075,0.096-0.075h0.86
		c0.038,0,0.096,0.037,0.096,0.075l1.721,6.825l0.822-6.595l0.21-6.52c0-0.057,0.038-0.095,0.096-0.095h0.458
		c0.058,0,0.115,0.038,0.115,0.115L23.889,54.341z M35.128,48.224c0,0.059-0.057,0.115-0.114,0.115H29.26v6.079h5.294
		c0.058,0,0.115,0.057,0.115,0.115v0.458c0,0.057-0.058,0.095-0.115,0.095H29.26v6.099h5.754c0.058,0,0.114,0.038,0.114,0.114v0.44
		c0,0.057-0.057,0.113-0.114,0.113h-6.308c-0.057,0-0.115-0.057-0.115-0.113V47.765c0-0.057,0.058-0.095,0.115-0.095h6.308
		c0.058,0,0.114,0.038,0.114,0.095V48.224z M35.128,44.531c0,0.058-0.057,0.115-0.114,0.115h-6.767
		c-0.058,0-0.115-0.058-0.115-0.115v-0.439c0-0.076,0.058-0.114,0.115-0.114h3.039V31.132h-2.81c-0.058,0-0.115-0.058-0.115-0.115
		v-0.458c0-0.058,0.058-0.096,0.115-0.096h6.308c0.058,0,0.115,0.038,0.115,0.096v0.458c0,0.057-0.057,0.115-0.115,0.115h-2.81
		v12.846h3.04c0.058,0,0.114,0.038,0.114,0.114V44.531z M46.597,48.224c0,0.059-0.057,0.115-0.114,0.115h-5.754v6.079h5.296
		c0.057,0,0.115,0.057,0.115,0.115v0.458c0,0.057-0.059,0.095-0.115,0.095h-5.296v6.099h5.754c0.058,0,0.114,0.038,0.114,0.114v0.44
		c0,0.057-0.057,0.113-0.114,0.113h-6.308c-0.058,0-0.115-0.057-0.115-0.113V47.765c0-0.057,0.058-0.095,0.115-0.095h6.308
		c0.058,0,0.114,0.038,0.114,0.095V48.224z M46.597,33.502c0,0.058-0.057,0.115-0.114,0.115h-0.458
		c-0.059,0-0.115-0.057-0.115-0.115v-0.229c0-1.319-1.051-2.37-2.351-2.37h-0.689c-1.3,0-2.369,1.051-2.369,2.37v8.563
		c0,1.3,1.069,2.352,2.369,2.352h0.689c1.3,0,2.351-1.052,2.351-2.352v-0.458c0-0.057,0.057-0.115,0.115-0.115h0.458
		c0.058,0,0.114,0.059,0.114,0.115v0.458c0,1.684-1.376,3.04-3.038,3.04h-0.689c-1.681,0-3.039-1.356-3.039-3.04v-8.563
		c0-1.682,1.358-3.039,3.039-3.039h0.689c1.662,0,3.038,1.357,3.038,3.039V33.502z M47.036,27.324c0,0.058-0.057,0.115-0.115,0.115
		h-7.206c-0.057,0-0.113-0.058-0.113-0.115v-0.439c0-0.077,0.057-0.114,0.113-0.114h3.5V13.963l-2.409,2.81
		c-0.038,0.058-0.115,0.058-0.153,0.019l-0.345-0.286c-0.057-0.039-0.057-0.115-0.018-0.154l2.618-3.059
		c0.019-0.019,0.076-0.038,0.096-0.038h0.764c0.059,0,0.115,0.038,0.115,0.095v13.419h3.038c0.059,0,0.115,0.038,0.115,0.114V27.324
		z M50.86,24.629v-1.185v-0.058l5.046-10.074c0.019-0.02,0.077-0.057,0.096-0.057h0.516c0.096,0,0.134,0.057,0.096,0.153
		l-5.085,10.169v0.478h4.722v-3.479c0-0.076,0.058-0.115,0.115-0.115h0.458c0.059,0,0.115,0.039,0.115,0.115v3.479h1.243
		c0.057,0,0.095,0.057,0.095,0.114v0.458c0,0.058-0.038,0.115-0.095,0.115h-1.243v2.58c0,0.058-0.057,0.115-0.115,0.115h-0.458
		c-0.058,0-0.115-0.058-0.115-0.115v-2.58h-5.295C50.898,24.744,50.86,24.687,50.86,24.629z M58.009,33.502v3.154
		c0,1.663-1.357,3.039-3.039,3.039h-2.811v4.836c0,0.058-0.057,0.115-0.113,0.115h-0.459c-0.059,0-0.096-0.058-0.096-0.115V30.559
		c0-0.058,0.037-0.096,0.096-0.096h3.383C56.651,30.463,58.009,31.82,58.009,33.502z M58.659,61.853h-0.555
		c-0.019,0-0.077-0.038-0.096-0.057l-4.778-6.882l-1.262,1.759v5.066c0,0.057-0.038,0.113-0.097,0.113h-0.458
		c-0.057,0-0.114-0.057-0.114-0.113V47.765c0-0.057,0.058-0.095,0.114-0.095h0.458c0.059,0,0.097,0.038,0.097,0.095v7.742
		l5.581-7.799c0-0.019,0.077-0.038,0.097-0.038H58.2c0.097,0,0.153,0.076,0.076,0.172l-4.625,6.499l5.103,7.34
		C58.812,61.777,58.772,61.853,58.659,61.853z"/>
</g>
</svg>
