<?xml version="1.0" encoding="utf-8"?>
<!-- Generator: Adobe Illustrator 16.0.0, SVG Export Plug-In . SVG Version: 6.00 Build 0)  -->
<!DOCTYPE svg PUBLIC "-//W3C//DTD SVG 1.1//EN" "http://www.w3.org/Graphics/SVG/1.1/DTD/svg11.dtd">
<svg version="1.1" id="Layer_1" xmlns="http://www.w3.org/2000/svg" xmlns:xlink="http://www.w3.org/1999/xlink" x="0px" y="0px"
	 width="75px" height="75px" viewBox="0 0 75 75" enable-background="new 0 0 75 75" xml:space="preserve">
<linearGradient id="SVGID_1_" gradientUnits="userSpaceOnUse" x1="0.8438" y1="37.4209" x2="73.6045" y2="37.4209">
	<stop  offset="0" style="stop-color:#FF34DD"/>
	<stop  offset="1" style="stop-color:#00EAFF"/>
</linearGradient>
<circle fill="url(#SVGID_1_)" cx="37.224" cy="37.421" r="36.38"/>
<g>
	<g>
		<path d="M28.743,29.856h-4.077c-0.035,0-0.068-0.035-0.068-0.069v-0.402c0-1.693,0.438-2.707,1.992-3.836
			c1.475-1.071,1.682-1.693,1.682-2.143v-0.403c0-0.794-0.644-1.428-1.428-1.428h-0.276c-0.783,0-1.429,0.633-1.429,1.428v0.265
			c0,0.046-0.022,0.069-0.057,0.069h-0.276c-0.035,0-0.069-0.023-0.069-0.069v-0.265c0-1.014,0.818-1.832,1.832-1.832h0.276
			c1.014,0,1.831,0.818,1.831,1.832v0.403c0,0.646-0.333,1.371-1.854,2.476c-1.371,0.991-1.773,1.855-1.808,3.57h3.731
			c0.035,0,0.069,0.023,0.069,0.069v0.265C28.812,29.822,28.778,29.856,28.743,29.856z"/>
		<path d="M33.754,29.994h-0.276c-1.014,0-1.832-0.818-1.832-1.832v-5.159c0-1.014,0.818-1.832,1.832-1.832h0.276
			c1.014,0,1.832,0.818,1.832,1.832v5.159C35.585,29.176,34.768,29.994,33.754,29.994z M35.182,23.003
			c0-0.794-0.645-1.428-1.428-1.428h-0.276c-0.783,0-1.429,0.633-1.429,1.428v5.159c0,0.783,0.646,1.417,1.429,1.417h0.276
			c0.783,0,1.428-0.634,1.428-1.417V23.003z"/>
		<path d="M42.829,29.856h-4.342c-0.034,0-0.068-0.035-0.068-0.069v-0.265c0-0.046,0.034-0.069,0.068-0.069h2.107v-7.716
			l-1.451,1.693c-0.022,0.035-0.069,0.035-0.092,0.011l-0.207-0.172c-0.034-0.023-0.034-0.069-0.012-0.093l1.578-1.843
			c0.012-0.011,0.046-0.022,0.058-0.022h0.461c0.034,0,0.069,0.022,0.069,0.057v8.085h1.83c0.035,0,0.069,0.023,0.069,0.069v0.265
			C42.898,29.822,42.864,29.856,42.829,29.856z"/>
		<path d="M49.613,28.232h-0.748v1.555c0,0.035-0.035,0.069-0.069,0.069H48.52c-0.035,0-0.069-0.035-0.069-0.069v-1.555h-3.19
			c-0.035,0-0.057-0.035-0.057-0.069v-0.714v-0.035l3.04-6.069c0.011-0.013,0.046-0.035,0.058-0.035h0.311
			c0.058,0,0.081,0.035,0.058,0.091l-3.063,6.127v0.289h2.845v-2.097c0-0.046,0.034-0.069,0.069-0.069h0.276
			c0.034,0,0.069,0.023,0.069,0.069v2.097h0.748c0.035,0,0.058,0.035,0.058,0.069v0.275C49.671,28.197,49.648,28.232,49.613,28.232z
			"/>
		<path d="M28.674,41.375c0,0.034-0.033,0.069-0.068,0.069H28.33c-0.035,0-0.059-0.035-0.059-0.069v-2.914h-3.133v2.914
			c0,0.034-0.022,0.069-0.057,0.069h-0.276c-0.035,0-0.069-0.035-0.069-0.069v-3.133v-0.023l1.394-5.275
			c0-0.022,0.034-0.046,0.068-0.046h1.014c0.035,0,0.069,0.023,0.069,0.046l1.393,5.275v0.023V41.375z M26.958,33.301h-0.507
			l-1.244,4.745h2.994L26.958,33.301z"/>
		<path d="M35.654,41.444h-4.078c-0.033,0-0.068-0.035-0.068-0.069v-0.266c0-0.046,0.035-0.067,0.068-0.067h1.832v-7.741h-1.693
			c-0.035,0-0.069-0.035-0.069-0.069v-0.276c0-0.034,0.035-0.057,0.069-0.057h3.801c0.035,0,0.069,0.023,0.069,0.057v0.276
			c0,0.035-0.035,0.069-0.069,0.069h-1.693v7.741h1.831c0.035,0,0.069,0.021,0.069,0.067v0.266
			C35.723,41.409,35.688,41.444,35.654,41.444z"/>
		<path d="M40.803,41.582h-0.415c-1.014,0-1.831-0.818-1.831-1.831v-5.16c0-1.014,0.817-1.832,1.831-1.832h0.415
			c1.002,0,1.831,0.818,1.831,1.832v0.139c0,0.035-0.035,0.068-0.069,0.068h-0.276c-0.035,0-0.068-0.033-0.068-0.068v-0.139
			c0-0.794-0.635-1.428-1.417-1.428h-0.415c-0.783,0-1.429,0.633-1.429,1.428v5.16c0,0.784,0.646,1.417,1.429,1.417h0.415
			c0.782,0,1.417-0.633,1.417-1.417v-0.276c0-0.034,0.033-0.069,0.068-0.069h0.276c0.034,0,0.069,0.035,0.069,0.069v0.276
			C42.634,40.764,41.805,41.582,40.803,41.582z"/>
		<path d="M47.679,38.461h-1.692v2.914c0,0.034-0.035,0.069-0.069,0.069h-0.276c-0.035,0-0.059-0.035-0.059-0.069v-8.42
			c0-0.034,0.023-0.057,0.059-0.057h2.038c1.014,0,1.831,0.818,1.831,1.832v1.9C49.51,37.632,48.692,38.461,47.679,38.461z
			 M49.106,34.729c0-0.795-0.633-1.429-1.428-1.429h-1.692v4.745h1.692c0.795,0,1.428-0.633,1.428-1.417V34.729z"/>
		<path d="M26.981,53.17h-0.553c-1.001,0-1.831-0.815-1.831-1.83v-0.139c0-0.034,0.034-0.069,0.068-0.069h0.276
			c0.035,0,0.069,0.035,0.069,0.069v0.139c0,0.784,0.633,1.416,1.417,1.416h0.553c0.783,0,1.417-0.632,1.417-1.416v-0.416
			c0-2.28-3.662-1.864-3.662-4.343v-0.402c0-1.014,0.818-1.831,1.832-1.831h0.276c1.014,0,1.831,0.817,1.831,1.831v0.14
			c0,0.034-0.033,0.069-0.068,0.069H28.33c-0.035,0-0.059-0.035-0.059-0.069v-0.14c0-0.795-0.644-1.427-1.428-1.427h-0.276
			c-0.783,0-1.429,0.632-1.429,1.427v0.402c0,1.199,1.221,1.671,2.084,2.154c0.887,0.485,1.59,1.049,1.59,2.188v0.416
			C28.812,52.354,27.983,53.17,26.981,53.17z"/>
		<path d="M35.516,53.033H35.24c-0.035,0-0.058-0.035-0.058-0.069v-4.008h-3.133v4.008c0,0.034-0.022,0.069-0.057,0.069h-0.276
			c-0.035,0-0.069-0.035-0.069-0.069v-8.421c0-0.034,0.035-0.057,0.069-0.057h0.276c0.035,0,0.057,0.022,0.057,0.057v4.009h3.133
			v-4.009c0-0.034,0.023-0.057,0.058-0.057h0.276c0.035,0,0.069,0.022,0.069,0.057v8.421C35.585,52.998,35.551,53.033,35.516,53.033
			z"/>
		<path d="M40.733,53.17h-0.415c-1.014,0-1.831-0.815-1.831-1.83v-5.161c0-1.014,0.817-1.831,1.831-1.831h0.415
			c1.014,0,1.831,0.817,1.831,1.831v5.161C42.564,52.354,41.747,53.17,40.733,53.17z M42.15,46.179c0-0.795-0.634-1.427-1.417-1.427
			h-0.415c-0.783,0-1.416,0.632-1.416,1.427v5.161c0,0.784,0.633,1.416,1.416,1.416h0.415c0.783,0,1.417-0.632,1.417-1.416V46.179z"
			/>
		<path d="M49.683,48.507l-0.553,4.467c-0.012,0.024-0.047,0.06-0.069,0.06h-0.495c-0.035,0-0.068-0.024-0.068-0.047l-1.062-4.251
			l-1.07,4.251c0,0.022-0.035,0.047-0.057,0.047h-0.507c-0.024,0-0.059-0.035-0.069-0.06l-0.553-4.467l-0.116-3.951
			c0-0.047,0.035-0.069,0.07-0.069h0.276c0.034,0,0.057,0.022,0.057,0.057l0.115,3.93l0.496,3.973l1.035-4.111
			c0-0.022,0.035-0.047,0.059-0.047h0.519c0.023,0,0.057,0.024,0.057,0.047l1.037,4.111l0.495-3.973l0.127-3.93
			c0-0.034,0.022-0.057,0.058-0.057h0.276c0.034,0,0.069,0.022,0.069,0.069L49.683,48.507z"/>
	</g>
</g>
</svg>
